<?xml version="1.0" encoding="UTF-8"?>
<svg id="Capa_2" data-name="Capa 2" xmlns="http://www.w3.org/2000/svg" xmlns:xlink="http://www.w3.org/1999/xlink" viewBox="0 0 612.45 328.87">
  <defs>
    <style>
      .cls-1 {
        fill: none;
      }

      .cls-2 {
        fill: #f0f0e7;
      }

      .cls-3 {
        clip-path: url(#clippath);
      }
    </style>
    <clipPath id="clippath">
      <rect class="cls-1" width="612.45" height="328.87"/>
    </clipPath>
  </defs>
  <g id="Capa_1-2" data-name="Capa 1">
    <g class="cls-3">
      <path class="cls-2" d="M20.91,175.08l44.47,87.77,39.33-87.77h17.9c.31,3.06-5.33,3.24-5.46,6.2l.15,89.04c1.62,1.39,5.53,2.65,5.3,4.99h-23.32c.41-2.65,3.91-3.22,5.42-5.15v-89.66l-43.21,94.82-3.62-.11L12.5,185.37v83.43c3.05,1.3,7.37,2.96,9.94,4.97.61.47,1.12.54.91,1.53H.02c-.18-1.1.7-1.54,1.45-2.08,2.53-1.81,9-3.07,9.43-6.29l-.02-84.97c-.2-.81-7.33-4.14-8.33-5.23-.55-.6-.37-.92-.36-1.65h18.71Z"/>
      <path class="cls-2" d="M186.61,175.08l43.66,87.75,39.32-87.75h17.9c.41,2.58-3.89,3.41-4.92,5.11l-.53,88.37c.13,3.31,5.6,3.52,5.45,6.74h-23.32c.65-2.64,4.42-3.49,5.97-5.69v-89.12l-42.9,93.95c-.95,1.4-3.03.88-4.48.77l-45.38-89.84v82.62l10.51,5.65.34,1.67h-23.32c-.2-.97.28-1.07.9-1.54,2.34-1.78,6.9-3.48,9.61-4.91l.35-86.89-8.35-5.22-.34-1.66h19.53Z"/>
      <path class="cls-2" d="M355.2,173.04c40.15-.52,74.38,39.43,51.31,77.29-22.18,36.41-81.01,35.63-101.94-1.57-20.94-37.21,11.95-75.22,50.63-75.72M351.94,175.22c-63.62,1.65-47.89,108.53,13.33,99.48,55.94-8.27,42.11-100.92-13.33-99.48"/>
      <path class="cls-2" d="M496.32,191.33c-1.32,1.27-5.03-4.3-5.95-5.16-9.75-9.1-21.7-12.46-35.02-11.66-12.22.74-25.66,7.87-21.13,22.23,6.75,21.37,64.16,22.23,67.47,50.17,2.01,16.99-11.19,25.49-25.97,28.66-16.74,3.59-35.91,1.58-51.95-4.2l-4.46-15.04c1.02-.24,1.29.58,1.9,1.08,5.04,4.15,7.95,8.81,14.21,12.36,10.87,6.16,29.31,7.9,41.12,3.9,16.92-5.72,19.92-24.66,5.32-35.12-15.28-10.95-56.99-17.66-58.77-39.9-1.22-15.3,11.97-21.93,24.96-24.41,14.15-2.7,29.28.07,43.4,2.18l4.88,14.89Z"/>
      <path class="cls-2" d="M560.32,175.08l42.68,93.57c1.31,2.01,6.39,3.3,8.49,5.12.56.49,1.14.52.9,1.53h-28.2c-.95-2.1,5.93-4.46,5.99-5.19l-16.01-34.39-43.61.11-14.68,32.73,8.3,5.08.34,1.66h-22.24l.34-1.67,11.52-5.72,37.24-82.58-4.63-10.25h13.56ZM531.58,234.13h42.31l-20.89-45.51-21.42,45.51Z"/>
      <path class="cls-2" d="M156.24,175.08c1.59,1.56-5.43,4.28-5.47,5.67l.16,89.56c1.67,1.46,5.51,2.48,5.3,4.99h-23.32c.09-2.57,5.04-3.68,5.43-5.68l-.28-89.66c-1.61-1.52-4.76-2.5-5.15-4.88h23.32Z"/>
      <path class="cls-2" d="M112.49,327.58h-3.98v-23.22h3.98v23.22ZM110.93,327.58v-3.68h4.98c1.15,0,2.21-.17,3.18-.5.97-.33,1.82-.83,2.54-1.49.72-.66,1.28-1.49,1.69-2.49.41-1,.61-2.14.61-3.45s-.2-2.45-.61-3.45c-.41-1-.97-1.82-1.69-2.49-.72-.66-1.56-1.16-2.54-1.49-.97-.33-2.04-.5-3.18-.5h-4.98v-3.68h5.08c2.37,0,4.44.48,6.24,1.44,1.79.96,3.19,2.31,4.2,4.05,1.01,1.74,1.51,3.78,1.51,6.12s-.5,4.38-1.51,6.12c-1.01,1.74-2.4,3.08-4.2,4.05-1.79.96-3.87,1.44-6.24,1.44h-5.08Z"/>
      <path class="cls-2" d="M148.88,327.58h-3.85v-23.22h3.85v23.22ZM147.45,304.36h11.71v3.45h-11.71v-3.45ZM147.45,313.44h11.05v3.38h-11.05v-3.38ZM147.45,324.13h11.71v3.45h-11.71v-3.45Z"/>
      <polygon class="cls-2" points="192.93 304.36 197.44 304.36 186.1 328.87 174.75 304.36 179.27 304.36 186.1 320.68 192.93 304.36"/>
      <path class="cls-2" d="M217.24,327.58h-3.85v-23.22h3.85v23.22ZM215.82,304.36h11.71v3.45h-11.71v-3.45ZM215.82,313.44h11.05v3.38h-11.05v-3.38ZM215.82,324.13h11.71v3.45h-11.71v-3.45Z"/>
      <polygon class="cls-2" points="249.52 304.36 249.52 324.06 258.74 324.06 258.74 327.58 245.61 327.58 245.61 304.36 249.52 304.36"/>
      <path class="cls-2" d="M273.4,311.16c.6-1.46,1.44-2.73,2.54-3.8,1.09-1.07,2.38-1.91,3.85-2.5,1.47-.6,3.06-.9,4.76-.9s3.35.3,4.81.9c1.46.6,2.74,1.43,3.83,2.5,1.09,1.07,1.94,2.34,2.54,3.8.6,1.46.9,3.06.9,4.81s-.3,3.33-.9,4.81c-.6,1.48-1.44,2.76-2.52,3.85-1.08,1.08-2.36,1.93-3.83,2.54-1.47.61-3.08.91-4.83.91s-3.33-.3-4.81-.91c-1.48-.61-2.76-1.45-3.83-2.54-1.07-1.08-1.91-2.37-2.5-3.85-.6-1.48-.9-3.08-.9-4.81s.3-3.35.9-4.81M277.66,320.23c.67,1.25,1.61,2.23,2.8,2.94,1.19.71,2.55,1.06,4.08,1.06s2.91-.35,4.1-1.06c1.18-.71,2.11-1.69,2.79-2.94.67-1.25,1.01-2.67,1.01-4.26s-.33-3.01-.99-4.26c-.66-1.25-1.59-2.23-2.77-2.94-1.18-.71-2.56-1.06-4.13-1.06s-2.89.35-4.08,1.06c-1.19.71-2.13,1.69-2.8,2.94-.67,1.25-1.01,2.67-1.01,4.26s.34,3.01,1.01,4.26"/>
      <path class="cls-2" d="M317.62,327.58h-3.91v-23.22h3.91v23.22ZM316.02,304.36h4.68c1.68,0,3.15.29,4.4.88,1.25.59,2.22,1.42,2.9,2.49.69,1.07,1.03,2.35,1.03,3.83s-.34,2.76-1.03,3.85c-.69,1.08-1.65,1.92-2.9,2.5-1.25.59-2.71.88-4.4.88h-4.68v-3.45h4.68c1.35,0,2.43-.32,3.25-.96.82-.64,1.23-1.58,1.23-2.82s-.41-2.17-1.23-2.8c-.82-.63-1.9-.95-3.25-.95h-4.68v-3.45Z"/>
      <polygon class="cls-2" points="348.86 327.58 344.82 327.58 348 303.2 357.52 318.95 367.07 303.2 370.26 327.58 366.21 327.58 364.59 313.44 357.52 325.42 350.45 313.44 348.86 327.58"/>
      <path class="cls-2" d="M391.19,327.58h-3.85v-23.22h3.85v23.22ZM389.76,304.36h11.71v3.45h-11.71v-3.45ZM389.76,313.44h11.05v3.38h-11.05v-3.38ZM389.76,324.13h11.71v3.45h-11.71v-3.45Z"/>
      <polygon class="cls-2" points="440.35 304.36 440.35 328.74 423.4 311.99 423.4 327.58 419.55 327.58 419.55 303.2 436.5 319.95 436.5 304.36 440.35 304.36"/>
      <polygon class="cls-2" points="456.43 304.36 472.62 304.36 472.62 307.97 466.48 307.97 466.48 327.58 462.54 327.58 462.54 307.97 456.43 307.97 456.43 304.36"/>
      <path class="cls-2" d="M491.91,322.45c.59.68,1.23,1.19,1.94,1.56.71.36,1.5.55,2.39.55,1.06,0,1.92-.29,2.59-.86.66-.57.99-1.32.99-2.22s-.21-1.55-.63-2.07c-.42-.52-1-.96-1.74-1.33-.74-.36-1.6-.72-2.57-1.08-.58-.2-1.22-.47-1.92-.81-.71-.34-1.38-.77-2.02-1.29-.64-.52-1.17-1.16-1.59-1.92-.42-.76-.63-1.69-.63-2.77,0-1.24.32-2.33.96-3.27.64-.94,1.51-1.67,2.6-2.19,1.09-.52,2.34-.78,3.73-.78s2.56.24,3.58.73c1.02.49,1.87,1.11,2.57,1.86.7.75,1.24,1.54,1.64,2.36l-3.18,1.79c-.29-.57-.65-1.11-1.09-1.61-.44-.5-.96-.9-1.54-1.19-.59-.3-1.27-.45-2.04-.45-1.08,0-1.88.25-2.39.75-.51.5-.76,1.08-.76,1.74,0,.6.18,1.13.55,1.61.36.48.93.92,1.71,1.34.77.42,1.78.85,3.02,1.29.69.24,1.38.55,2.07.93.7.38,1.33.85,1.91,1.41.57.56,1.03,1.22,1.38,1.97.34.75.51,1.64.51,2.65,0,1.08-.21,2.06-.63,2.92-.42.86-1,1.59-1.72,2.17-.73.59-1.55,1.04-2.47,1.36-.92.32-1.87.48-2.87.48-1.37,0-2.64-.27-3.8-.81-1.16-.54-2.17-1.27-3.04-2.17-.86-.91-1.55-1.89-2.06-2.95l2.92-2.02c.51.88,1.06,1.66,1.64,2.34"/>
      <path class="cls-2" d="M244.04,57.02c.71-.55,1.49-1.55,2.26-2.14.92-.71,1.88-1.06,2.67-1.83l-3.48,1.45-2.2,1.44c-.65.03-.15-.23.04-.39,1.59-1.32,3.72-2.17,5.43-3.36-1.45.11-2.87.99-4.14,1.65-.16.09-.69.44-.47-.04,1.5-1.35,3.47-1.61,5.19-2.31.86-.35,1.57-1.17,2.64-1.12.01-.39.11-.45-.32-.43-1.17.06-1.13.61-1.99,1.01-1.32.62-2.92.86-4.23,1.56-.3-.15.28-.41.39-.47,1.25-.74,2.81-1.18,4.22-1.46.05-.38-.48-.21-.72-.19-.44.04-1.57.52-1.85-.02l8.79-1.93c.05-.39-.46-.19-.69-.15-1,.13-1.96.53-3.04.4-1.47.11-2.8.83-4.19,1.17-.22.05-.7.28-.65-.12,2.98-1.37,6.19-1.66,9.43-1.93l-2.03-.21c-1.23,0-2.72.59-3.85.65-.45.02-.89.16-.76-.44l6.43-.65-.64-.42,3.64.21c.05-.32-.4-.27-.64-.32-2.35-.54-4.6-.48-6.86.32,2.55-2.18,6.43-.5,9.43-.64-.05-.37-.81-.42-1.11-.5-.99-.26-1.99-.38-3.01-.42l-2.31-.58c1.44.23,2.96.07,4.39.22.94.1,1.82.51,2.59.63.87.13,1.96-.03,2.88.22-.07-.41-.45-.35-.74-.44-1.92-.55-4.15-1.05-6.12-1.28l.93-.35,9.57,2.07c0-.31-.66-.42-.9-.49-.63-.18-1.29-.23-1.93-.43-1-.31-2.25-.92-3.33-1.17-.51-.12-1.05-.03-1.56-.05l1.88-.79,5.29-.71c.34-.19-.17-.3-.29-.31-1.19-.05-2.19.48-3.35.52l.96-.64c-2.53-.04-4.85,1.2-7.29,1.71l2.58-1.38,3.64-1.18c-1.77-.02-4.15.49-5.78,1.18-1.14.48-1.73,1.57-3.01,1.6,1.88-2.01,4.2-2.63,6.86-3l-.31-.37c-1.12.41-2.43.51-3.54.91-1.41.51-2.46,1.59-3.86,2.03.67-.59,1.71-1.97,2.37-2.45.65-.48,1.46-.57,1.92-1.19-.66.06-1.67.5-2.19.87-.2.13-2.14,2.21-2.21,2.36-.1.22.02.43.1.62-2.03.75.27-1.12.12-1.92-1.13.71-1.94,2.27-3.32,2.36,1.76-1.98,4.23-3.08,6.22-4.71-3.01.85-5.11,2.7-6.97,5.14l.11-1.07c-.6.66-.91,1.18-1.71.32,1.69-1.35,2.9-3.53,5.14-3.97.02-.35.1-.48-.32-.43-.35.05-2.8,1.52-3.12,1.81-.7.65-1.5,2.12-2.23,2.92-.42.45-1.13.89-1.51,1.49l-.32-.1c1.67-1.96,2.72-4.6,5.36-5.47.05-.4-.45-.19-.65-.11-.78.28-2.05,1.06-2.67,1.62-1.03.94-1.69,2.59-2.6,3.41-1.13,1.02-1.18.03-1.26.04l-.55.09c.72-.73,1.05-2.15,1.63-2.87.33-.42,1.44-.93,1.58-1.1.12-.14.04-.57-.32-.42-.15.06-1.33,1.08-1.53,1.28-.19.19-.77.95-1.06,1.28-.66.77-2.24,3.33-2.99,3.65-1.13.49.88-1.51.96-1.61,1-1.27,1.8-2.74,3-3.85-.54-.35-.95.71-1.29,1.07-.4.44-1.09.56-1.07,1.39l-.64-.43-2.26,3.21c-.32-.17.05-.52.15-.7.45-.81.88-1.67,1.45-2.4-.71-.43-1,1.43-1.39,1.61l-.32-.43-1.29,2.47c-.41.3-.17-.39-.11-.54.24-.65.89-1.26.86-1.93-.87,1.13-1.72,2.29-2.58,3.43-.16.21.07.57-.53.43.51-.85.97-2.08,1.54-2.86.51-.7,1.24-1.2,1.79-1.86.14-.17.56-.43.21-.64-2.45,1.66-3.54,4.27-5.36,6.43l.79-2.22,2.11-2.71c-1.9,1.19-2.82,2.87-4.18,4.5-.33-.56.96-.9.43-1.5l-2.25,1.5,2.21-2.93,2.07-1.47-1.07.32c-.03-.19-.03-.28.1-.44.13-.16,2.29-1.4,2.68-1.61,1.4-.74,2.9-1.18,4.29-1.93l-4.27,1.3-.23-.23,3.38-1.33,4.76-.92h-3.75c-.19,0-.78.4-1.18.21-.29-.21,1.43-.64,1.61-.64h5.68v-.21c-.43.02-1.31-.43-1.61-.43h-4.39l2.25-.43c2.64-.06,5.19.71,7.82.85-.63-.7-2.14-.5-3.05-.7-1.07-.23-2.06-.74-3.17-.8.12-.45.28-.32.6-.29,2.14.17,4.68,1.27,6.91,1.37l-4.5-1.5c-.05-.39.46-.19.69-.15.63.08,1.24.35,1.88.37l-.32-.65,6.96,1.72c.05-.31-.38-.3-.6-.36-1.46-.42-3.14-.66-4.5-1.3-.3-.14-.59.13-.47-.49,1.73.52,3.54.83,5.3,1.23.46.1.95,0,1.4.1.69.17,1.28.88,2.08.81l-2.18-1.14-3.82-.79c-.06-.36.52-.23.75-.22,1.36.07,3.62.58,4.86,1.15,1.28.58,2.22,1.81,3.61,2.07.32-.25-2.66-2.04-2.86-2.18-.22-.15-.67-.43-.04-.39l4.4,2.35-2.21-1.75-2.93-1.03c1.32-.58,2.51.04,3.78.19.41.05,2.02.31,1.8-.4-1.3.11-2.91-.44-4.16-.41-.86.02-2.29.49-3.26.61-.42.05-.31-.05-.3-.41h1.07s-.22-.43-.22-.43c1.71-.39,3.17-.13,4.83,0,.26.02.56-.18.83-.15.35.04,1.53.94,1.42-.06-1.79-.27-3.62-.58-5.44-.41-1.5.15-2.81.84-4.42.4-.04-.32.62-.29.87-.32,1.7-.24,3.42-.51,5.13-.53l-1.57-.34-4.64.56,3.43-.96c.21-.04.47-.33.53-.33h3.11c-.43-.87-2.43-.52-3.3-.4-1.84.24-3.61,1.01-5.49,1.04.08-.42.45-.35.74-.44,2.05-.61,4.18-1.39,6.33-1.06,0-.22-.91-.56-1.02-.58-2.01-.39-5.5,1.76-7.76,1.65.07-.39.44-.36.72-.46,1.37-.47,2.87-.63,4.2-1.27l-.21-.41,1.5-.22c.06-.35-.54-.24-.76-.22-2.3.2-5.14,2.14-7.6,2.37-.12-.61.16-.35.47-.49,1.45-.65,3.4-1.1,4.94-1.71.23-.09.64-.06.59-.37-2.76.01-5.17,1.93-7.93,1.92l5.36-2.03,2.57-.33-1.94-.54c-2.33.25-4.28,2.17-6.64,2.04,1.7-1.42,4.19-2.36,6.43-2.36,0-.29-1.04-.41-1.2-.4-2.79.03-5.48,2.16-8.23,2.55l3.43-1.82,4.07-1.18c-.89.03-2.22.03-3.06.26-.56.15-1.7.69-2.47.96-1.35.46-2.68,1.36-4.11,1.35l6.59-2.73,1.98-.26c-2.34-.22-4.57.51-6.54,1.71v-.64s-4.29,1.92-4.29,1.92c-.84,0,.64-.76.71-.8l6.27-2.63c-1.81-.36-3.23.95-4.78,1.54-1.36.52-2.8.81-4.12,1.46-.39-.3-.1-.34.17-.48,1.24-.61,2.56-1.11,3.76-1.81l2.82-.71c-3.09-.23-5.79,1.94-8.68,2.78l.17-.49,5.09-2.29c-1.26.03-2.59.39-3.76.85-.81.32-1.81,1.11-2.36,1.29-.11.04-.35.06-.32-.1l1.5-1.5c-.54-.29-.86.45-1.41.72-.9.45-2.09.92-3.09.88.73-.9,2.46-.72,2.71-1.93l5.22-1.06h-3c.11-.48,1.01-.42,1.38-.44,2.2-.12,4.18.16,6.33.44l-3.37-1.02-2.41-.05c-.06-.29.37-.33.57-.35,2.7-.23,5.54,1.22,8.22,1.63l-3.16-1.66-2.42-.48c-.01-.38.96-.24,1.18-.21,2.36.31,4.94,2.42,7.39,2.79l-2.6-1.58-2.55-.99c0-.45.84-.17,1.07-.11,1.65.47,3.11,1.67,4.71,2.25-.66-.87-1.81-1.31-2.58-2.03-.26-.25-.34-.42.11-.32,1.54.35,4.59,3.9,6.54,4.07-.6-.66-1.34-1.61-2.04-2.14-.61-.47-2.17-1.03-2.58-1.5-.24-.27-.12-.56.22-.43.53.2,2.49,1.52,3,1.93.93.76,1.53,1.85,2.36,2.57.24.21.35.52.75.43.25-.23-4.03-4.67-4.93-4.5.18-.58,1.26.07,1.57.25,2.02,1.18,3.1,3.51,5.07,4.68l-1.82-2.36c-.44-.75-1.86-1.45-2.26-2.03-.22-.32-.07-.55.11-.53.46.03,3.11,3.13,3.65,3.64.33-.47-.56-.85-.75-1.18-.1-.51.41-.38.65-.22.1.07.98,1.57,1.29,1.93.56.65,1.23,1.2,1.82,1.83.22-.33-.46-1.02-.67-1.26-.52-.63-1.19-1.11-1.58-1.85-.04-.14.19-.16.32-.1,1.68.72,2.59,3.17,4.29,4.07.35-.21-.07-.47-.21-.64-.45-.53-1.06-.97-1.5-1.5-.14-.17-.56-.43-.21-.64.99,1.16,2.6,1.02,4.03,1.55,1.36.51,2.61,1.44,4.01,1.88-2.41-2.21-5.91-2.65-8.79-4.07l.1-.42c.54.2,1.07.56,1.6.76.2.07.7.28.65-.11l-3.85-1.3c.57-.15-.67-.71.09-.63,1.77.19,3.31.75,4.99,1.02.23.04.75.23.69-.16-1.53-1.07-3.22-1.08-4.93-1.61-1.02-.32-2.98-.89-3.86-1.29-.27-.12-.37-.38.11-.32.89.1,5.63,1.7,5.9,1.5.1-.54-.1-.38-.42-.54-.51-.26-1.06-.34-1.58-.53-.47-.17-.21-.12-1-.3-1.18-.27-2.27-.67-3.43-.99-.06-.37.51-.23.73-.19.78.13,1.46.62,2.27.62.19-.3-1.94-.6-.96-.86l3.43,1.29c.78.02-.36-.61-.43-.65-2.5-1.23-5.56-1.04-8.26-1.5-.05-.31.55-.39.74-.39.9.01,2.28.11,3.2.2.62.06,1.2.43,1.84.4-.03-.27-1.11-.86-1.18-.86h-4.29c-.16,0-.63-.35-.96-.22v-.21s5.04,0,5.04,0c.68,0,3.5,2.29,3.97,1.93-3.08-2.91-7.14-2.88-11.15-2.57l.86-.21-.75-.21c-.33-.22.15-.27.3-.29,1.38-.25,2.5.1,3.88.08l-1.61-.86h-4.18c-.03-.5-.07-.38.32-.43,1.64-.21,3.98.05,5.62.38.22.04.75.22.7-.16-.88-.46-1.79-.31-2.65-.46-1.62-.29-2.98-.79-4.64-.4l.43-.42h-2.68s-.54-.64-.54-.64c2.15.25,4.36.3,6.54.21.26,0,.8.16.75-.21l-8.79-.65,1.61-.42c.81-.15,1.57.17,2.35.22.23.01.81.14.76-.22-1.76-.51-3.67-.44-5.41-.7-.16-.02-1.7-.43-1.23-.81.74-.06,1.53.07,2.26,0,.39-.03.67-.32.84-.33,1.6-.09,2.72.56,4.18.96l-1.93-1.07c-.06-.35.27-.21.48-.16,1.61.36,2.63,1.54,3.91,2.09.56.24-.14-.8.42-.42.34.23.43.67.7.86l1.99,1.06c-.93-1.17-2.06-2.15-3.16-3.15-.15-.13-.63-.14-.17-.49l5.36,4.93-1.83-2.68-1.71-1.72.53-.11,2.79,3.22c.34-.46-1.05-2.05-.97-2.14l.97.85.21-.43c2.05,1.59,2.77,4.15,4.5,6,.16-.69-.7-1.35-1.05-1.95-.39-.67-.72-1.55-1.1-2.12-.3-.46-1.29-.91-1.06-1.51,1.39,1.06,1.96,2.4,2.79,3.86l-.54-2.04c.04-.22.3-.14.43,0,.66.62,1.06,3.67,1.71,4.61.4.04.21-.71.16-.91-.14-.55-1.27-3.04-1.02-3.37.67.27.6,1.24.9,1.77.33.57.91,1.06,1.28,1.72.59,1.07.82,2.37,1.57,3.36l-1.08-3.42.11-.65c1.01,1.72,1.36,3.69,1.93,5.57.4.05.17-.43.12-.65-.3-1.32-.78-2.66-1.19-3.96l.42-.1,1.29,4.5.42-.85,1.29,2.57-.96-2.79c1.06,1.13,1.67,3.3,2.68,4.4.36.4.99.6,1.39.97.69.63,1.28,1.38,2.04,1.92-.32-1.63-3.53-3.19-4.07-4.4-.04-.09-.05-.35.1-.32.79.45,1.52,1.62,2.47,1.61-1.09-1.21-2.82-1.79-3.64-3.22l.36.04,2.64,1.78c-.49-1.34-1.97-1.74-2.93-2.65-.29-.28-1.26-1.37-1.04-1.64.4.39.76.81,1.2,1.16.27.21.92.88,1.26.67-.58-.43-.87-1.13-1.38-1.62-.96-.91-3.04-1.7-3.01-2.99.72.78,1.79,1.59,2.89,1.61-2.52-1.47-4.1-4.13-6.86-5.15,1.52-.43,2.52.99,3.54,1.82.69.04-.25-.41.53-.53-1.89-1.27-4.22-1.93-5.79-3.65l5.36,2.46c-1.42-1.59-4.07-1.97-5.57-3.54l.32-.1c.94.63,2.27,1.45,3.32,1.83.2.07.7.28.65-.11-2.06-.81-3.92-2.09-5.57-3.54.19-.34.48.07.67.19,1.16.76,2.15,1.74,3.52,2.27.62.05.18-.26-.04-.39-.4-.25-.86-.36-1.25-.67-.52-.42-.99-1.03-1.51-1.5-.5-.45-1.23-.53-1.39-1.29l4.4,2.57.1-.32-5.74-4.22.06-.6c.43.63,1.6.68,1.98.91.29.18,1.04,1.85,1.77,1.55l-3.97-3.97c-1.08-.56-1.72-1.32-2.46-2.25.43-.3,1.07.31,1.08.75l.41-.03.34-.4.76,1.07.32-.43c2.53,1.28,3.37,3.37,4.5,5.79l-.96-3.33-.86-1.71c.47-.36.86.54,1.04.88.86,1.59,1.26,3.83,2.49,5.22l-1.5-4.29.11-.54c1,2.06,1.92,4.24,2.14,6.54.28.07.32-.36.32-.53-.01-.95-.43-2.25-.45-3.33,0-.32-.11-.53.34-.64-.04,2.84,1.29,5.27,1.93,7.93.38.05.21-.48.19-.72-.18-1.82-1.18-3.79-1.04-5.71.35-.49.93,3.54,1,3.82.28,1.15.82,2.1,1.1,2.97.22.69.08,1.86.48,2.63.37.06.22-.5.19-.73-.11-.75-.36-1.32-.42-2.16-.02-.28-.15-1.34.22-1.4l.65,4.07c.38.05.21-.48.19-.72-.04-.44-.52-1.57.02-1.85-.16,2.37,1.14,3.99,2.68,5.57.05-1.7-2.53-2.95-2.36-4.71l1.82,2.36c-.73-2.54-2.32-4.85-3.86-6.97-.06-.61.27-.18.43,0,.78.82,1.28,1.87,1.96,2.76.15.2.43.67.39.04-.75-1.36-1.71-2.6-2.53-3.9-.15-.24-.62-.87-.36-1.14l3.54,5.14c-.39-2.54-2.28-4.52-3.43-6.76l.1-.32,1.61,2.14c-.09-1.24-1.14-2.19-1.45-3.37-.05-.21-.22-.75.16-.7.31,1.27,1.13,2.24,1.93,3.21-.09-1.76-1.61-3.13-2.14-4.83-.04-.64.24-.16.39.04.63.83.92,1.88,1.64,2.65.22-.54-.54-1.6-.54-2.04V3l.64,2.36L271.48,0l.62.36-.19,7.36,1.07-6c.54.27.02,1.36,0,1.82-.04.82.02,1.64,0,2.46l1.07-2.57-.85,7.72,1.71-5.14c.03,2.54-1.46,4.78-1.5,7.29.35-.25.64-1.01.83-1.42.33-.72.55-1.63.92-2.3.12-.22.46-.65.4-.03-.79,2.34-2.19,4.41-1.92,6.97l.54-1.92c.12-.34,1.83-4.28,2.46-3.65-.35,1.06-1.33,1.93-1.58,3.05-.1.44.1.84.03,1.08-.26.91-.96,1.82-.95,2.81,0,.16.08.63.36.57-.1-1.17.58-2.16.97-3.21.26-.7.05-1.56.86-2.14.24,1.38-.67,2.57-1.07,3.86-.22.69-.96,2.45.1,2.35.23-1.38,1.1-3.06,1.83-4.29.16-.28-.04-.54.53-.42-.67,2.22-2.46,4.88-2.57,7.18-.02.43.04.33.43.32-.07-.83.26-1.6.54-2.36.43-1.14,1.02-2.84,1.82-3.65-.09,1.86-1.24,3.24-1.82,4.93.05,1.05-.64,1.97-.76,2.89-.06.44.06.57.27.06.38-.92.67-2.29,1.19-3.1.19-.29.25-.58.69-.49l-2.15,5.46c0,.5.03.59.27.05.31-.7.54-1.44.82-2.14.06-.15.35-.16.37-.21.11-.24-.4-.72.15-1.02.1.49.24,1.01.32,1.5-.65-.15-.78,1.37-.83,1.85-.03.24-.04.48-.02.72l.54-.64c.86.03-.17.66-.28,1.01-.39,1.24-.19,3.24-.69,4.56.73-.61.65-2.01.86-2.9.08-.33-.14-.37.42-.32.37,1.78.82,4.17,1.56,5.83.1.23.3.8.58.81.19-.87-.43-1.09-.55-1.69-.11-.53-.02-1.14-.14-1.58-.47-1.6-1.29-3.13-1.66-4.77.76-.45.43,1.51,1.07,1.61-.35-1.5-.62-3-.86-4.5.45.09,1.25,3.55,1.48,4.21.11.33-.19.61.45.5l-1.72-7.61.37.06,1.56,5.19c.05-2.78-1.39-5.34-1.07-8.14l1.29,5.36c.38.04.23-.72.21-.96-.19-2.4-1.36-4.89-1.28-7.4l1.5,5.46c.28.35.24-.26.22-.43-.22-2.46-1.83-5.11-1.29-7.82l1.07,5.36c.05.06.29-.12.33-.21.1-.24-.65-4.24-.63-5.17,0-.46.1-1.03.19-1.48.05-.23,0-.69.32-.64-.31,1.8-.03,3.61.28,5.41.04.23.06.85.37.81-.27-3.07-.33-5.96.22-9,.38.06.24,1.12.22,1.4-.04.73-.27,1.4-.24,2.14l.44,2.89c.09-2.65.06-5.35.65-7.93.36-.06.23.52.22.76-.06,1.08-.48,2.22-.12,3.31l1.83-6.21.12.65-.87,3.42c.82-1.17.97-2.7,1.65-3.93.26-.47,1.96-2.1,2.46-2.47.64-.46,1.67-.79,2.32-1.32l.11.53-3.86,4.18,3.54-2.35c.14-.05.16.2.1.32-.3.66-3.39,2.19-3.87,2.78-.31.39-.26.93-.46,1.26-.25.4-1.35.96-1.14,1.64,1.12-.84,2.17-2.18,3.22-3,.2-.16.71-.63.96-.33-.84.55-1.13,1.48-1.7,2.15-1.48,1.74-3.31,2.36-4.2,5.02-.03.09-.34,1.26.11.97l1.84-3.52,3.31-2.59c-.35,1.07-1.23,1.76-2.01,2.49-1.11,1.03-1.37,1.15-2.17,2.65-.24.45-.76,1.21-.64,1.72.23-.33.8-.65.98-.96.16-.27-.01-.57.1-.74.6-.95,2.22-2.6,3.1-3.34.17-.14.43-.56.64-.21-.7,1.07-1.75,1.85-2.37,2.99-.95,1.74-.64,1.16-1.91,2.59-.63.72-1.11,1.8-1.72,2.57-.03.65.23.15.39-.04,1.25-1.5,2.53-2.99,3.72-4.53l.81-.05c-.32,3.32-3.99,5.11-5.14,8.25.19.33.49-.04.64-.21.94-1.09,1.93-2.81,2.89-3.97.31-.37.76-.69,1.08-1.07.16-.03.14.21.1.32-.41,1.32-2.84,3.13-3.42,4.51-.04.1-.06.35.1.32.89-.84,1.71-1.71,2.5-2.64.16-.19.42-.7.39-.04l-4.27,6.45.41.31c.38-.84,1.68-1.24,2.26-2.14l.1.32-3.85,6.44.1.32,2.25-2.57c-.19,1.59-2.18,2.85-2.04,4.5,3.08-4.15-.48,1.76-.53,2.48-.01.2.08,1.16.42,1.17.02-.7.2-1.38.42-2.04.1-.31.32-1.08.65-1.17l.64,3.43c.47-1.02-.37-1.79-.23-2.9.05-.4.4-.28.44-.46.05-.2-.12-4.46.43-3.71l.21,1.29v-4.07c.9-.21-.1,1.27.22,1.71.65-.34.48-1.51.66-2.2.05-.18.37-.16.41-.31.28-1.23.25-3.12.49-4.41.07-.37.09-.71.58-.58-.52,2.03-.72,4.43-.64,6.54,0,.26-.16.8.21.75l.86-9c.83-.1.21.35.21.54v3.22c0,.14-.6,1.08,0,1.18.65-1.97.46-4.1.65-6.1.02-.24.35-2.42.64-2.04.16.35-.21.8-.21.96v3.64c0,.25-.63,1.55,0,1.82.18-2.86.58-5.64,1.51-8.36.39-.05.19.47.16.69-.21,1.34-.86,2.77-1.02,4.13-.03.26-.17,1.34.21,1.39.4-2.32,1.13-4.32,2.15-6.43.3-.02.52-.1.41.3-.19.68-.83,1.64-1.11,2.54-.1.32-.61,1.52-.16,1.66l2.18-6.08.4-.35.21.64c.04-.81.33-1.94,1.07-2.36-.22.89-.74,1.76-.86,2.68-.14,1.1.62-.97.66-1.05.52-1.06,1.34-1.81,1.7-2.91l.11.65-1.08,2.57c.57-.51,1.04-1.12,1.48-1.73.19-.26.18-.69.34-.9.53-.69,1.59-1.46,2.25-2.08.22.59-.81,1.04-.96,1.61-.2.65,1.31-.9,1.4-.96.49-.36,1.28-1.01,1.9-.87.15.03.14.44.26.45.28.01,1.75-.58,2.38-.64.5-.05,1.02.27,1.57-.02.11.5-.06.34-.27.48-.31.2-.93.47-1.29.63-1.58.69-3.29,1.18-4.86,1.89,0,.37-.12.46.3.41.9-.1,1.76-.68,2.7-.63l-.64.42,1.71-.21c.34.27-3.88,1.67-4.29,1.5l.64.42-4.29,1.29c-.05.38.48.21.7.16,2.07-.45,4.41-1.1,6.27-2.09.36.28-.19.65-.48.81-1.67.93-4.53,1.35-6.27,2.51-.46.5-.11.29.24.24,1.39-.19,2.74-.69,3.94-1.42l-.1.55c-1.38.47-2.65,1.24-3.97,1.82-.74.33-1.73.2-2.26.96l4.71-1.29c-1.5,1.11-3.51,1.24-5.12,2.17-.58.33-1.83,1.18-1.63,1.8,1.71-1.94,4.16-1.47,6.22-2.57.64-.04.16.24-.04.39-1.5,1.14-3.38,1.1-5,1.97l.1.42c.92-.59,2.14-.63,3.11-.96.58-.2,1.12-.92,1.71-.64-1.05,1.31-2.36,1.22-3.76,1.82-1.56.66-2.37,1.37-3.64,2.36-.34.27-1.43.42-1.07,1.07,1.66-1.32,3.43-1.99,5.33-2.81.44-.19.79-.57,1.2-.73.19-.07.91-.3.87.12-2.25,1.41-5.1,1.87-6.86,3.97.41.31.89-.55,1.3-.84,1.29-.93,3.11-1.7,4.7-1.73-1.18.77-2.55,1.1-3.79,1.79-.72.4-2.7,1.5-2.54,2.39,1.35-.54,2.49-2.1,3.97-2.04-2.64,1.85-5.61,3.08-6.86,6.32.64-.62,1.28-1.22,1.94-1.81.73-.66,1.81-1.77,2.57-2.36.85-.65,2.09-.81,2.99-1.41l-1.83,1.92-3.74,2.69,2.12-.88,1.73-1.16c.16.16-1.6,2.19-.43,2.14l.75-2.57c.82,1.41-.95,3.42-.86,4.93,1.18-1.54,1.16-3.66,1.93-5.36.12-.27.38-.36.32.11-.09.69-.51,1.46-.63,2.16-.04.21-.19.99.19.94-.18-1.16,1.83-5.12,2.68-5.57.08-.04.35-.05.32.11l-.89,1.25-1.36,2.93,3.22-4.93-.43,1.71c.55-.61.88-1.4,1.4-2.03.13-.16,1.69-1.7,1.49-1.08-.55,1.06-2.03,1.8-2.04,3.11.87-1.04,1.7-2.4,2.67-3.33.27-.26.88-.93,1.29-.64-.96.79-1.91,1.9-2.66,2.92-.14.19-1,1.12-.24,1.05,1.14-1.34,2.31-2.94,3.65-4.07.24-.2.35-.52.75-.43-.96,1.39-2.23,2.56-3.32,3.85-.14.17-.56.43-.21.64,2.15-2.12,4.25-4.37,7.29-5.14.61-.06.19.28-.03.4-.73.39-1.62.61-2.37,1.06-1.21.72-2.58,1.96-3.5,3.04l5.37-3.31c1.59-.89,3.29-.53,5.01-.93l.34.38c-2.79.32-5.93.99-8.15,2.79.37.06.67-.05,1.01-.17,3.07-1.05,5.92-2.5,9.35-2.17.52.05,2.11.28,2.07,1.05-.77.07-1.48-.18-2.24-.22-.29-.02-1.34-.15-1.4.22l2.36.43c-1.27.11-2.35-.05-3.54-.44l-1.81.44c1.3.15,2.88.04,4.16.23,2.63.41,6.38,1.64,8.78,2.8.81.39,1.46.97,2.28,1.25.07-.41-.68-.86-.97-1.06-.99-.7-2.48-1.31-3.63-1.73-.87-.32-3.53-.79-3.97-1.28-.12-.13-.05-.56.32-.42.28.11.7.66,1.18.76.4.08.77-.14,1.3-.04,1.24.23,2.75,1.4,4.07,1.63-1.19-1.63-3.29-2.04-5.14-2.36l-.11.64-1.82-1.82c-.03-.16.2-.13.32-.1,1.2.31,3.1.88,4.24,1.33.78.31,1.51.75,2.19,1.24.14.05.16-.2.1-.32-.75-1.68-6.3-2.67-7.93-3.76-.04-.4.44-.18.65-.11,1.63.54,3.23,1.25,4.93,1.61-.47-.73-1.53-.77-2.22-1.1-.51-.24-2.51-1.21-2.71-1.58-.04-.09-.05-.35.11-.32l.88.58,2.01-.15-3.86-1.61,4.93,1.5c-1.77-1.58-4.29-2.07-6.43-3-.45-.47-.12-.33.24-.25,1.35.3,2.7.67,4.04,1l-.64.42,1.6.43c-.19-.71-1.35-1.4-1.98-1.66-.54-.22-1.09-.2-1.55-.38-1.64-.65-3.13-1.44-4.93-1.61-.06-.36.52-.23.76-.22,1.25.04,2.94.59,4.13,1.02.71.26,1.5.93,2.19.81-2.45-1.49-5.3-2.52-8.02-3.52l-.02-.45c2.56.19,4.88-.16,6.64,2.15.19-.56-.73-1.15-.96-1.61.38-.3,1.08.63,1.37.98.63.74,1.13,1.78,1.73,2.55l-1.07-3.21,2.36,4.07-.93-3.14.39-.28,1.93,5.57c.4.05.16-.43.12-.65-.14-.75-.47-1.48-.55-2.24-.02-.23-.15-.8.21-.75.76,1.89,1.63,3.74,1.93,5.79.38.04.23-.72.21-.96-.06-.76-.33-1.59-.43-2.36l.33.1c.5,1.32,1.01,4.29,1.71,5.36.07.1.27.28.32.21l-1.28-4.72c1.53,1.35,1.31,3.84,2.25,5.57.04-.97-.15-1.9-.11-2.9.01-.26-.16-.8.21-.75.31.88.11,1.82.23,2.67.04.33.36.59.43,1.07.2,1.44-.32,3.18.21,4.62l.43-3.11-.21-1.07v-2.68c.26.92.56,1.94.64,2.9.11,1.37-.34,3-.23,4.07.03.32.28,1.08.66,1.17-.03-1.68.05-3.37.01-5.05,0-.35-.48-1.79.2-1.49l2.25,2.04c.16.03.15-.22.1-.32-.18-.4-2.45-2.5-2.99-3.22-.35-.47-.91-.97-.86-1.6l2.37,2.66,1.7.66c-1.88-1.89-3.85-3.68-5.36-5.89.23-.21.8.46.97.64,1.24,1.25,2.36,2.81,3.75,3.97.17.14.43.56.64.21l-5.36-5.9c2.04,1.24,3.66,2.99,5.18,4.79.16.19.42.7.39.04-.81-1.86-2.31-2.63-3.64-3.86-.6-.55-1.7-1.53-1.61-2.25.24.3.82.42,1.05.63.15.14-.06.36.13.53.82.76,1.87,1.47,2.69,2.26l.1-.32-5.79-6.01c.21-.35.47.07.64.21.75.63,1.39,1.52,2.14,2.15.17.14.43.56.64.21l-1.5-1.5.43-.21c-.2-.52-1.92-1.38-1.61-2.04l1.08.85c.81.32-.28-1.14-.42-1.29-.45-.46-1.81-1.27-2.04-1.82-.11-.26.06-.41.32-.32,1.49.57,3.34,2.94,4.34,4.24.28.36.38.45.27-.06-.33-1.59-4.55-4.93-5.57-6.44.85-.13,1.56.94,2.35,1.18.23-.25-2.43-3.09-2.14-3.86.39,0,.57.76.67.81.07.04.36-.18.6-.07.42.19.69.9,1.04,1.18.4.34,1.09.55,1.34.8.71.69,1.06,2.56,1.49,3.49.41.05.14-.42.11-.64-.09-.71-.31-1.42-.32-2.14l.32.21,1.82,7.29c.37.04.23-.74.22-.97-.07-1.1-.6-2.23-.33-3.31.78,1.81.71,3.87.97,5.79.23.09.43-.71.43-.75v-3.75l.44,1.81c-.14,1.79-.03,3.53-.22,5.26.61.09.39-.11.43-.53.07-.98.13-1.84.42-2.8.09-.29.02-.67.44-.74l-.42,7.07.85-5.79c.55,2.73-.71,5.42-.21,8.14l.83-4.43.46-.5c-.74,2.87-.67,5.84-.64,8.79.31-.03.37-.95.4-1.2.17-1.34.2-2.71.46-4.04.06-.31,0-.67.42-.75.17,1.99-.45,3.93-.6,5.9-.02.26.18.57.17.86-.04.83-.4,1.76-.21,2.68.3-.13.36-1.09.4-1.42.18-1.3.16-2.65.46-3.94.37-.05.22.51.22.76.02,2.67-.69,5.24-1.08,7.81l1.23-3.59c.16-.52.31-.44.26.05-.17,1.88-1.25,3.99-1.47,6.03-.03.25-.22,1.15.19,1.15.2-.9.5-2.95.96-3.65.44-.67.85,1.19.76,1.5.94-.72-.18-2.17-.23-3.11-.04-.82.44-1.84.37-2.54-.07-.7-.87-1.79-.57-2.71l.96,1.29c.37-2.09-.55-4-.96-6l.87,1.6.42,1.62c.38,0,.24-.94.22-1.19-.1-1.49-.76-2.55-1.08-3.96l.89,1.36.82,2.29-1.07-7.07.97,1.49c.34.51.46,1.12.69,1.68.13.32-.13.58.48.47-.34-1.68-.7-3.19-1.71-4.61l.42-.1c.16.66.74,1.05,1.02,1.66.38.84.29,2.09,1.13,2.62-.45-2.33-1.79-4.42-1.93-6.86l1.93,5.04.42.53c-.18-.59.26-1.33.21-1.81-.05-.44-.63-1.23-.58-1.99.06-.99.25-.36,0-1.72-.28-1.51-.51-3.03-.69-4.55.48.17.48.83.58,1.24.28,1.21.63,3.23.72,4.45.05.65-.45,1.29,0,2.03.37.05.2-.49.21-.75.1-2.8-.35-5.21-.86-7.93l.86,1.39v-3.43c.42.09.38.43.43.75.23,1.46.6,2.85.43,4.4l.42-2.14-.21,4.29,1.28-1.29c-.01,1.13-1.12,2.21-1.39,3.21-.07.26-.08,2.1.32,1.72.27-.97.74-2.08,1.25-2.94.06-.1.32-.68.47-.39-.22,1.45-1.71,3.41-1.93,4.71-.02.12-.06.35.11.32l1.72-2.14c.18.74-.84,1.53-1.22,2.21-.67,1.19-1.19,2.51-1.67,3.79l3.43-4.5c.45.59-3.46,5.54-3.86,6.54.25.36.46-.07.61-.25.57-.68.81-1.68,1.64-2.22.33.61-1.27,1.19-.86,1.93l.75-.64c.14.73-.58.84-.85,1.18-.91,1.12-1.41,2.23-2.15,3.44-.13.34.16.46.43.22.4-.35,1.09-1.89,1.28-2.47.34-.06.23.29.2.52-.22,1.38-1.63,2.7-2.13,3.88-.04.1-.06.35.1.32l.86-.86c.31.37-.44.86-.63,1.3-.34.83-.13,1.84-.77,2.55.6.59,1.18-2.23,1.07-2.57l.64.22.43-3,.53,1.71c.05-.23.32-.86.32-.96v-3.64s.21-.63.43-.54c.02.68-.02,1.36,0,2.04,0,.26-.16.8.21.75.83-2.37.55-4.89,1.29-7.29.38.05.24,1.13.21,1.39-.12,1.05-.58,1.86-.43,3.01.04.29.14.67.43.32l1.07-7.72c.37.01.45-.14.38.27-.1.6-.26,1.2-.36,1.8-.04.26.17.49.17.63,0,.06-.67.17-.4.74l.64-.43c-.2,1.11-.55,2.43-.64,3.54-.02.24-.16.8.21.74.6-2.82,1.26-5.67,1.29-8.57l.85-.21-.96,6.22c1.41-2.19,1.3-5.7,2.57-7.93.06-.1.32-.36.33-.1l-1.4,5.46,2.89-6.11c.45-.29.12.35.07.5-.39,1.07-.99,2.11-1.35,3.15-.07.21-.4.61-.11.75,1.51-2.15,1.94-4.81,4.28-6.24.3-.18.59-.01.87-.17.24-.14,2.16-2.03,2.46-1.73-.43,1.25-1.44,2.21-2.36,3.11l1.71-.22c-1.03.94-2.47,1.4-3.53,2.26-.56.46-1.63,1.5-1.51,2.14,1.18-1.27,2.69-2.21,4.16-3.13.18-.11.46-.54.66-.19-1.74,1.64-4.02,2.94-5.79,4.5-.45.4-1.59,1.49-1.39,2.04,1.12-1.14,2.88-2.77,4.39-3.33.2-.07.7-.28.65.11l-2.56,1.63c-.04.2-1.13.94-.87,1.16.24.2,2.95-1.77,3.41-2.06.18-.11.47-.54.66-.19l-7.29,5.58c.38.17,1-.38,1.35-.58,1.37-.79,2.69-1.67,4.01-2.53l-1.51,1.59c-.78.49-3.49,1.62-3.82,2.4-.53,1.25,1.78-.39,2.01-.57.67-.52.88-1.56,2.04-1.18-.57.35-1.01,1.26-1.45,1.61-.63.51-2.62,1.15-2.95,1.5-.28.3-.36,1.13-.75,1.5.12.11,2.57-1.34,2.86-1.53.53-.36,1.01-1.3,1.64-1.15-1.16,1.78-3.12,2.28-4.7,3.44-.44.32-2.04,1.74-2.15,2.13-.31,1.07,1.28-.7,1.38-.77.7-.49,2.04-1.1,2.9-1.49-.91,2.12-3.55,2.33-5.01,3.88-.13.13-1,1.37-.24,1.05.59-.25,1.85-2.19,2.9-1.82l-4.5,4.18c.45-.21,1.9-.91,2.15-1.18.2-.21.22-.47.21-.75l.32.64,2.36-3.21c.35.21-.1.48-.2.66-.38.74-.91,1.4-1.31,2.12-.2.35-.21.64.22.22.41-.4.99-1.4,1.29-1.93.32-.58.43-1.37.64-1.73.12-.19.46,0,.63-.19.11-.12,1.61-2.21.54-1.94.16-.07.42-.59.86-.43l.21.64,1.51-2.14.32.43c1.48-1.29,2.02-3.3,3.86-4.29.35.21-.07.47-.21.64-.69.82-1.42,1.59-2,2.5l-1.22,2.43c1.9-2.32,3.24-5.13,5.79-6.86.35.21-.07.47-.21.64-.51.6-1.21,1.11-1.72,1.71-.14.17-.56.43-.21.64l1.5-1.5.21.43c.81-.52,2.3-2.68,3.01-3,.09-.04.35-.05.32.1l-3,3,.32.1,5.58-4.07.32.1-2.25,2.04c.96-.41,1.77-1.17,2.74-1.55,1.23-.48,3.44-.57,4.85-.72.3-.03.51-.3.44.23-.25.51-3.53,1.21-4.28,1.4-.05.37.49.2.75.21.68.03,1.36-.02,2.04,0,.06.04-.11.28-.21.32-1.45.68-4.59.23-6.22.96-.05.37.51.23.75.21.91-.07,1.56-.28,2.57-.21.25.02,1.15.08,1.18.42-2.16-.24-4.31.81-6.43.22-.75.69,2.83.86,3.11.87.37,0,.76.02,1.07-.22l.1.42c-3.22.13-5.86.93-8.79,2.15.17.52.24.33.57.25,1.91-.48,3.81-1.99,6.08-1.54-.53,1.05-.77,1.22-1.93.85l.13-.41-4.2,1.27v.64c1.18-.21,2.34-.74,3.54-.85.43-.04,1.14-.21.96.42-2.35.68-5.13.71-7.29,1.83l4.4-.75,1.82.21c-2.91.5-6.58.62-9,2.36,2.57-1.08,5.25-1.52,8.04-1.5l.32.43c-2.47-.13-4.94.32-7.29,1.08-.05.37.51.23.74.21,1.54-.12,3.07-.66,4.61-.75-2.04,1.04-4.46,1.02-6.64,1.61l1.83.22c.9.01,1.74-.49,2.58-.63.22-.04.79-.17.73.19-1.56.33-2.91,1.09-4.56.86l-3.36,2.14c2.03-.26,3.99-1.46,5.95-1.88.21-.05.95-.24.91.16l-7.29,2.79c-.05.4.43.16.65.12,1.29-.24,2.55-.73,3.78-1.16l.28.39c-1.71.53-3.47,1.11-5.08,1.89-.41.2-1.12.51-1.35.9,1.65-.27,3.14-1.09,4.71-1.61.21-.07.69-.29.65.11l-7.06,2.69c-.47.57-1.63,1.15-2.05,1.6-.24.25-.03.26.22.22.71-.13,1.42-1.02,2.25-1.39.98-.44,2.35-.76,3.43-.86-.63.8-1.73.48-2.57,1.08-.57.4.15.25.21.42-.29.55-2.61,1.34-3.36,1.79-.35.21-1.05.39-.93.89l2.92-1.27.4.41c.57-.47.83-1.12,1.41-1.59.72-.58,1.26-.28,1.81-.76.63-.56,1.36-2.38,2.25-2.04-.39.45-1.26,1.15-.96,1.82.95-1.01,1.81-2.13,2.76-3.14.17-.18.48-.27.68-.49.49-.53.77-1.74,1.6-1.41-.59.85-1.57,1.79-2.11,2.61-.12.18-.45.57-.15.71l4.5-4.93c.36.23-.1.47-.22.64-1.02,1.46-2.26,2.73-3.54,3.97-.03.16.22.15.32.1.81-.36,3.54-3.76,4.61-4.61.26-.21.82-.75,1.07-.43-.98,1.11-2.27,2.1-3.21,3.22-.2.24-.52.35-.43.75l5.2-4.35.58-.04c-1.24,1.35-2.76,2.39-4.14,3.58-.19.16-.7.42-.04.39,2.74-1.54,4.88-3.93,7.94-4.92.63-.05.18.25-.04.39-.77.49-1.74.61-2.43,1.21l.94-.13.24.46,5.16-2.35,2.45.41-3.01.08-3.21,1.84c1.98-.51,3.59-1.36,5.68-1.5.29-.02,1.32-.18,1.39.21-.87.06-2.22.12-2.79.86l3.96-.87c.84,0,1.7.12,2.51.3.25.06.85.03.82.36h-4.72l1.63.4c1.15.05,2.43.1,3.56.29.81.14,2.24.42,2.73,1.02h-1.28c1.23.27,2.58.66,3.58,1.45.26.2.58.25.49.69l-5.25-1.93,1.39.97-.64.11.86.75c-.43.26-1.01-.42-1.5-.64-1.26-.56-3.97-1.71-5.25-1.82-.23-.02-.8-.16-.74.21,1.56.39,3.48.93,4.71,1.93-1.03-.07-2.21-.44-3.21-.75-1.25-.39-2.64-1.23-3.86-1.07l5.36,2.04c-.81-.36-1.68,0-2.37-.09-1.42-.18-3.08-1.25-4.49-1.52-1.29-.24-3.01.14-4.38-.08l-2.06.62c3.84-.93,7.58.39,11.26,1.49.29.09.67.02.74.44-3.48-.35-6.71-2.04-10.29-1.92l6.81,2.1,1.02-.17.1.42c-.73,0-1.47.05-2.2-.05-3.02-.4-5.47-1.91-8.57-1.39-.66.11-1.48.34-2.2.49-.21.04-.6-.02-.54.3l3.94-.4,6.77,1.9c-2.85-.08-5.48-1.57-8.36-1.5l4.71,1.5c-2.28.03-4.45-1.13-6.76-.86-.32.04-.66.04-.74.43.73.06,1.53-.08,2.25,0,.84.1,2.14.3,2.98.45.75.14,2.02.22,2.49.83l-5.71-.84-2.22.2,3.69.7,1.02.58c-2.28-.32-4.45-1.1-6.79-.46-.37.1-.6-.16-.5.46l2.47-.22,1.81.44h-6.32c-.18,0-1.69.52-1.82.86,1.14.32,2.39-.15,3.51-.19.29-.01.67.21,1.09.2.22,0,2.06-.6,1.41.1l-6.45.63-1.49.76,2.07-.61.28.39-3.64,1.29c2.44-.41,4.79-1.15,7.2-1.69,1.14-.26,2.31-.6,3.46-.83.22-.04.95-.24.91.16l-14.36,3.65c-.05.4.43.16.65.12.56-.11,1.4-.69,1.7.09-1.33.41-3.01.51-4.07,1.5.87-.51,1.78-.15,2.53-.35,1.06-.29,2.05-1.4,2.89-1.84.96-.5,1.81-.3,2.53-.5.5-.14,1.02-.95,1.48-.63-.14.48-1.36.64-.97,1.18,1.04-.62,1.71-1.84,3.11-1.71l-1.93,1.61c.9.5.9-.41,1.51-.85,1.8-1.3,4.66-2.11,6.85-2.26l-3.81,1.87.05.26c2.18-.85,4.17-1.99,6.45-2.56.61-.06.19.28-.03.4-1.42.77-3.29.96-4.58,2.07l4.39-1.61.11.32-3.86,1.82c2.4-.48,4.93-2.03,7.39-2.15.46-.02.59.1.06.27l-4.23,1.45c1.91-.29,3.78-.83,5.71-1.04.81-.09,2.21-.26,2.97-.25.22,0,.98.09.97.44l-7.93.86c-.05.37.49.2.75.21,2.4.1,4.44-.62,6.62-.62.19,0,1.35.14,1.42.41h-1.82s-1.82.43-1.82.43h3.11c.29,0,1.67.2,2.09.26.26.04,1.16.27,1.23.59-1.24.04-2.53-.36-3.74-.44-.25-.02-1.19-.15-1.19.22,2.75.17,5.46.94,7.93,2.15l-.1.42c-1.08-.66-2.28-1.21-3.53-1.4-.22-.04-.7-.29-.65.11,2.17.77,4.59,1.49,6.43,2.9l-1.93-.43c1.67,1.41,3.27,2.7,4.4,4.6.17.28.42.44.31.87-.67-.7-1.72-1.38-2.35-2.04-.63-.65-1.23-2.27-2.14-2.14.56.65,1.22,1.46,1.67,2.18.11.18.46.55.15.71-1.94-2.23-3.47-4.67-6.22-6-.66-.03-.15.23.04.39,2,1.72,3.81,2.98,5,5.51.03.66-.23.15-.39-.04-.55-.64-.99-1.44-1.65-2-.38-.33-1.54-.99-2.03-1.07l.43-.53-2.46-2.46c-1.14.92.93,1.25,1.18,1.82l-.43.21c.3.8,3,2.04,2.68,3.32-1.03-1.31-2.48-2.26-3.53-3.54-.87-1.06-1.07-2.68-2.58-2.57,1.48,1.49,2.68,3.29,3.86,5.04-.78.02-.89-.93-1.29-1.39-.32-.37-2.08-2.24-2.36-2.03l.32.85-3.01-2.57-.32.32c.96.94,1.92,1.86,2.91,2.77.04.04,1.12.9.41.77-2.21-.83-3.12-4.35-5.68-4.4.59.52,1.36.98,1.94,1.49.87.77,1.67,1.76,2.45,2.69.14.17.56.43.21.64-2.04-1.28-3.31-3.65-5.48-4.81-1.18-.63-2.54-.69-3.84-.76.51,1.02,1.52.4,2.31.57.94.2,3.98,2.63,4.58,3.39.21.27,0,.85.4,1.18-.39.37-2.73-2.26-3.11-2.57-.27-.22-2.21-1.7-2.36-1.71-.1,0-.4.22-.11.54,1.26,1.36,3.55,2.09,4.29,3.96l-5-3.9c-.59-.23-1.15-.68-1.77-.8-.21-.04-.58-.13-.52.2,2.23.94,4.37,2.49,6,4.29l-5.08-3.39c-.61-.27-1.25-.76-1.9-.89-.21-.04-.58-.13-.52.2,1.72.83,3.6,1.57,4.93,3-2-.68-3.7-2.26-5.63-3.05-.2-.08-.82-.4-.8.04,1.14.66,3.31,1.46,4.18,2.36.35.37-.44.05-.32.43l.65.32c-.06.42,1.38,1.12,1.07,1.4-.27.24-2.12-1.85-2.62-1.93-.35-.63-2.23-2-2.84-2.15-.51-.12-.22.23-.11.43l-1.07.21c1.49.29,3.21.81,4.07,2.14l-5.49-2.12-1.8.19,2.9.42,2.88,1.51c-.94.17-1.55-.55-2.3-.81-2.31-.81-5.2-1.23-7.56-.47,0,.53.63,0,.75,0h4.07c.88,0,3.44,1.27,4.18,1.93-1.59-.33-3-1.24-4.63-1.47-.22-.03-.98-.2-.94.19.83.08,1.59.45,2.35.76.15.06.67.09.32.32-1,.13-2.08-.74-2.79-.85-1.14-.18-2.76-.07-3.95-.22l2.47.76c.69.61,1.57.67,2.46.74-.11.54-1.27.25-1.77.16-2.09-.4-3.96-1.44-6.16-.37-.05.4.43.17.65.12.51-.11.65-.33,1.32-.29.91.05,1.86.55,2.69.76.51.13,1.53-.1,1.77.48-2.63.24-4.84-.98-7.5-.42-.04.31.56.39.77.41.96.1,1.94-.13,2.87.24-.47,1.18-1.43.27-2.21.43-.15.03-.15.36-.32.41-2.1.63-2.85.67-4.79,2.04-.25.18-.53,0-.4.55l2.35-.87-.21-.41,4.07-1.18-.43.75c.4.3,3.35-1.14,3.96-1.29.65-.16-.22.61.42.43,1.21-.34,2.07-.75,3.44-.85.29-.02,1.33-.18,1.39.21-1.29.22-2.66.52-3.9.92-.63.21-1.67.49-2.1,1.01,3.38-.84,6.78-1.71,10.29-1.71v.64s-1.39-.22-1.39-.22l-4.83.86h1.07c-.59.99,1.02.04,1.38,0,1.91-.25,4.36.21,6.33.01.02.14-.28.43-.32.43h-5.14l-1.61.43c1.39.05,2.79-.06,4.18,0,1.61.07,3.96.15,5.47.53.19.05,2.87.95,2.36,1.39-2.19-.29-4.42-.32-6.62-.56-.34-.04-.7-.28-.24.24,2.6.36,5.6.3,8.11,1.11.28.09.63.15.69.49-1.85-.24-3.81-.79-5.67-.86-.51-.02-1.4-.16-1.62.44,2.72.05,5.93.18,8.36,1.4-1.47-.17-2.92-.59-4.4-.75-.77-.08-1.59-.08-2.42-.16-.24-.02-.73-.25-.69.15,2.67.85,5.51.83,8.14,1.94v.43c-.97-.37-2.03-.74-3.07-.73-.29,0-.41-.41-.36.31,2.24.17,4.45,1.33,6.22,2.68-.99.02-1.83-.96-2.78-1.3-.2-.07-.7-.28-.65.11.93,0,.94.82,1.21,1.08.78.76,2.91,1.32,3.61,2.56.19.55-.28.11-.43,0-.75-.53-1.46-1.13-2.23-1.63-.18-.12-.48-.53-.67-.19.73,1.36,4.2,3.36,4.71,4.51.04.09.05.35-.1.32-.95-.99-2.05-1.81-3.11-2.68-.17-.14-.43-.57-.64-.21l4.29,4.5c-.22.35-.47-.07-.64-.21-.5-.42-.98-.89-1.5-1.28-.17-.13-.41-.58-.64-.22,1.57,1.83,3.86,3.98,3.97,6.54-.76-1.01-.89-2.49-2.04-3.21-.26,1,.38.79.75,1.29.7.93,1.01,3.54.97,4.72l-3.11-6.64,1.18,5.36c-.29.41-.87-2.94-.96-3.22-.47-1.51-1.39-3.07-1.61-4.71l-.42.1c.24,1.56,1.05,3.24,1.26,4.74.04.27.21,1.32-.19,1.37-1.02-2.88-1.16-6.03-2.47-8.79-.06.98.41,1.93.54,2.89.1.82.14,1.91.21,2.79.02.23.16.8-.21.74-.61-2.74-.51-5.55-1.72-8.14l-.42.1c.12,1.31.98,2.26,1.23,3.49.04.22.24.95-.16.91-.16-.54-.21-1.12-.38-1.66-.16-.52-.3-.4-.28.06.06,1.38.82,2.58.86,3.96-.61.11-.35-.16-.48-.47-.51-1.12-.7-2.79-.8-4.03-.85.3.19,2.55,0,2.78-.46.17-.85-.82-.93-1.11-.53-1.93-.46-4.27-1.43-6.18-.36-.01-.47-.11-.42.31.09.79.67,1.75.8,2.64.11.79.2,2.27.27,3.17.02.24.16.8-.21.74-.72-3.1-1.61-6.21-3.11-9l2.2,7.24-.16.69-3.01-8.36c-.4-.05-.17.44-.12.65.16.69.56,1.36.75,2.04.45,1.63.55,3.48,1.3,4.92-.74.31-.97-.8-.86-1.39l-.64.43-.86-2.25-.43.75c.24-.67-.35-1.16-.42-1.62-.19-1.26.13-2.47-.66-3.74-.4-.05-.17.43-.12.65.11.48.37.97.45,1.48.06.41-.15.77-.11,1.16.05.51.53.97.31,1.42-.93-1.12-.89-2.57-1.43-3.93-.34-.86-1.19-2.72-2.11-2.6.94,1.63,2.37,3.23,2.14,5.25-.53-.26-.37-1.15-.59-1.66-.18-.42-1.48-2.45-1.8-2.92-.27-.38-.6-.68-.93-1-.32.39.4.93.58,1.35.2.49.22,1.05.43,1.5.43.89,1.58,1.93,1.67,3.15-.41-.04-.5-.65-.69-.79-.06-.05-.29.06-.37,0-.75-.5-.97-2.4-1.72-3.34-.13-.16-2.13-1.81-2.26-1.87-.09-.04-.35-.05-.32.1,1.38,1.37,2.44,2.23,2.58,4.28.02.25.16,1.19-.22,1.19-.27-1.03-.82-2.79-1.36-3.68-.5-.81-2.02-1.66-2.61-2.53l-.42.43-.86-.65-.1.32c.28.44,1.48,1.92,1.59,2.24.1.28-.2,1.04.01,1.51-.77-.2-1.12-1.23-1.18-1.93-.95.41-1.02-.68-1.89-1.21-.51-.31-1.37-.6-1.96-.71l3.62,3.04-.1.61,1.19.84c-2.02-.07-2.98-3.55-4.83-3.85-.57-.09-.4,0-.05.27.87.65,1.64,1.45,2.31,2.3-.6-.17-1.64-.82-2.12-1.2-.46-.36-.93-1.61-1.74-1.27l1.28,1.39c-.78-.53-1.7-1-2.67-1.08-.22-.02-.82-.13-.76.22l2.57.86c-1.25-.49-2.37.03-3.52,0-.96-.01-2.71-.91-3.33,0,3.35.39,7.36-.04,10.51,1.39.27.12.36.38-.11.32-1.4-.18-2.89-1.07-4.39-.86-.73.65,2.6.87,2.83.92,2.31.46,5.1.8,6.82,2.51-1.3-.26-2.52-1.6-3.86-1.28-.25.28,3.32,1.45,3.64,1.61.99.48,1.84,1.4,3,1.61.03.42-.66.18-.86.11-.41-.14-2.21-.81-2.45-.96-.17-.11.13-.41-.1-.55-.7-.42-2.78-.89-3.66-1.18.2.39.86.48,1.27.76.33.23.55.63.89.83,1.43.83,3.14,1.24,4.66,2.21.41.27.51.28-.05.27l-6.55-2.67c1.23,1.11,3.04,1.4,4.55,2.1.64.3,3.26,1.52,3.61,1.81.12.1.2.48.42.6-.9.23-1.84-1.19-2.78-1.07.96.87,2.28,1.49,3.22,2.36.28.26.36.37-.11.32-1.27-.97-2.65-1.78-3.95-2.69-.45-.32-.75-.81-1.23-1.12-.33-.22-1.52-.92-1.36-.04,1.27-.11.99.73,1.48,1.19.69.65,2.45,1.5,3.34,2.25.75.62,1.48,1.24,2.03,2.04-1.12.46-1.86-1.05-2.57-1.51-.31-.2-.51-.19-.43.22l3.86,3.43c-.16.31-.53-.03-.71-.15-.6-.37-1.26-.93-1.86-1.35-.17-.12-.42-.58-.64-.22.67,1.14,1.62,2.14,2.35,3.22.26.39,1.02,2.18,1.29,2.24-.07-.24-.03-.6-.17-1.01-.44-1.32-1.69-2.04-1.97-3.28,1.04.62,2.7,3,2.57,4.17,0,.19-.3.14-.43.11.18.57.39,1.14.55,1.7.06.2.27.71-.12.65-.56-1.48-1.05-3.34-2.57-4.07-.11.65.64.67.87,1.01.11.16,1.49,3.3,1.55,3.52.11.41.4,1.64-.07,1.89.21-.59-1.86-5.08-2.36-4.5.68,1.88,2.26,4.08,2.36,6.1.02.45.16.89-.44.76.07-1.65-.68-3.69-1.71-4.93.63,2.51,1.32,4.98,1.07,7.61-.21.28-.4-.29-.42-.44-.1-.76.07-1.38-.16-2.21-.11-.38.07-.56-.49-.46l.43,3.54-.64,2.03-.22-4.93-.64,3c-.32.04-.38-.78-.38-.96.03-1.67.79-3.55.81-5.25l-.96,3.21-.53.65c.03-2.48,1.74-4.35,1.5-6.86-.61.48-1.08,1.79-1.39,2.58-.34.87-.7,1.84-.76,2.78-.3.06-.35-.61-.34-.78.01-2.35,2.5-4.18,2.06-6.5l-1.61,4.07c-.79.66.33-1.14-.32-1.07-.06.64-.2,1.43-.86,1.71l.48-4.55c-.09-.69.76-1.55.8-1.99.02-.18-.1-1.17-.42-1.17l-1.93,5.36c.22-1.11.19-2.86.52-3.87.23-.71,1.27-1.19,1.4-2.26.1-.82-.38-1.26-.43-2.01-.55.19.02,1.18,0,1.6-.03.42-.4.76-.42,1.19l-.42-2.14-.15,1.89-1.78,3.68c.85-2.98,2.58-5.33,1.28-8.57-.36-.06-.24.52-.22.75.08,1.27.27,1.93-.14,3.28-.12.39-.92,2.17-1.12,2.47-.28.42-.96.47-.78-.29.19-.78,1-1.82,1.14-2.51.1-.48.26-2.03.27-2.53.02-.87-.51-1.62-.65-2.45l-.22,1.6c.48,1.79-.05,4.1-1.27,5.47.26-1.44,1.02-3.19,1.05-4.64.02-.82-.46-1.59-.2-2.43-1.38,1.07-.07,4-1.5,5.36.14-2.2,1.27-5.25-.43-7.07l.64,3.64-.85-1.07c-.01.52.04,1.06-.03,1.58-.03.23-.08,1-.4.99-.28-2.31.92-4.96-.64-6.86l.23,1.83-.44,3.1c0-.67-.43-1.65-.4-2.26.02-.38.34-.68.39-1.07.16-1.11-.59-2.4-1.6-2.88-.83.09.18.27.24.53.14.58-.05,1.6.29,2.26.58-.23-.09-1.28,0-1.71,1.07.67.4,1.63.41,2.46.02,1.42.22,1.65-.19,3.23-.09.36.22.63-.43.52v-3.54c0-.14-.43-2.21-.51-2.68-.07-.41-.5-1.55-.88-1.71-.89-.03.33.93.33,1.18v3.43c0,.21.65.88-.21.75-.31-1.56-.38-3.44-1.4-4.72l.34,2.04-.34,1.39c-.49-.79.03-1.81-.32-2.68-.19-.48-.5-.46-.58-.59-.19-.33.01-.92-.49-1.01,0,.3-.04.61.05.91.17.57,1.05,1.22.91,1.87-.31-.4-2.71-3.14-3.11-2.78l1.5,2.14.32-.43.96,1.71-1.07-.54c.97,1.12,2.87,2.49,3.43,3.86.04.1.06.35-.1.32-.93-.97-1.85-2.29-2.78-3.22-.23-.23-.37-.5-.75-.42-.27.24,4.04,4.94,4.28,5.68.03.11.06.35-.1.32-.84-.87-1.63-2.06-2.46-2.9-.25-.25-.46-.6-.86-.53l3.86,5.46-.11.32c-.36-.32-.53-.71-.9-1.03-.15-.13-.61-.48-.5.07.77,1.25,2.03,2.45,1.92,3.97l-2.91-5.34-1.37-2.16c.7,2.49,2.4,4.44,2.95,7.02.07.31.31,1.91.27,2.08-.04.18-.37.45-.54.12-.23-1.71-.32-3.87-1.6-5.15.19,1.16.83,2.21,1.01,3.38.04.23.25.94-.16.91l-1.72-4.93c-.59,1.64,1.93,4.57,1.93,5.68v4.39l-.43-2.04c-.01-.84.19-1.94-.64-2.46l.43,1.18-.64-.32c.19,1.84.67,3.49.37,5.41-.03.19-.09.64-.37.59v-3.97c0-.2-.58-.96-.43-1.39-.07-.07-.36.19-.39.34-.06.33.21,2.04.17,2.76-.05,1.05-.2,3.69-.67,4.48-.09.15-.21.35-.4.35.23-.87.4-1.78.42-2.68,0-.25.18-.8-.2-.75-.42,1.72-.48,3.71-1.61,5.14l-.21-.43c-.23.09-1.51,2.85-2.04,2.36l3-6.11-.1-.32c-.9.72-1.37,2.75-2.14,3.44-1.24,1.11.39-1.91.57-2.22.67-1.14,1.77-2.08,1.89-3.47l-3,3.54,2.57-5.57c-.55-.13-.38.15-.55.4-.69.97-1,2.21-1.91,3.03-.16.03-.14-.21-.1-.32.53-1.68,2.39-3.4,2.57-5.26l-2.89,3.86c-.16.03-.14-.21-.1-.32.36-1.19,2.52-3.86,3.25-5.11.53-.9,1.16-2.01,1.25-3.04.01-.17.06-.78-.22-.43-.52,2.09-1.66,4.15-3.54,5.25-.11-1.2,2.5-2.25,1.29-3.64l-2.89,2.57c.29-1.17,1.58-1.85,2.36-2.67.27-.28.41-.59.64-.87.3-.37.85-.18.64-.96l-.43-.1c.68-.56.97-1.05,1.07-1.93.03-.22.15-.81-.21-.75.06,1.15-1.27,3-2.05,3.85-.18.2-1.63,1.46-1.81,1.3l1.29-1.5-1.29.32c.61-.54,1.37-.88,1.9-1.53.58-.72,1.83-3.35,1.97-4.25.03-.2.15-1.2-.22-1.18,0,2.02-1.35,3.93-2.68,5.36-.19.2-1.16,1.3-1.4,1.07.91-1.75,3.17-3.15,3.35-5.28.01-.17-.04-1.17-.35-1.15-.01,1.65-1.12,3.29-2.36,4.29l1.07-2.14-.64.43c0-.1-.03-.22,0-.32.51-1.64.75-3.59,1.26-5.39l-.19-1.79c-.19.64-.13,1.34-.27,1.98-.27,1.23-.88,3.8-1.34,4.88-.23.53-.69.99-1.18,1.28.08-.59.57-.83.81-1.44.3-.76.57-2.1.58-2.85l-1.07,1.28c-.01-1.02,1.22-2.07,1.6-3.12.35-.96.46-2.29.44-3.31-.32-.44-.65,2.7-.75,3-1.03,3.44-6.36,4.26-7.34,6.38-.62,1.33-.91,3.23-1.45,4.55-7.77,19.07-16.47,36.83-16.19,58.21l1.08,10.6.68-1.89.61-.04c.24.38-1.3,3.34,0,3.64-.05-.74,2.14-4.37,2.79-3.86-.72,1.43-1.77,2.7-2.14,4.28.5.15.49-.11.68-.24.51-.36,2.46-3.52,3.17-2.97l-2.36,3.64,4.29-2.14-3,2.78,2.57-.43-.86.64.77-.2.2.42c.74-.38,1.36-.78,2.25-.65l-1.5,1.07c.63-.39,1.45.34,1.61-.43.42,1.27,1.41-.38,1.72,1.29l.48-.11-.13-.28,1.9-.46.04.59.39.17,1.08-.32-.16.38.38.16c-.57.89.3.75.63,1.38l-.59.11.05.33-1.82-.43c-.69-.66,1.24-.15,1.29-.21v-.86h-.64s.22.43.22.43l-1.09.1.02.54c-.45.25-1.85-.31-1.72.43h-.42c.29-.52.11-.83-.42-1.07l-.57.84-1.04-.43c-.26.85-.77.54-.32-.2-1.24.6-1.78.76-3,0-.03.03.37.9-.11.85-.42-.04-.29-1.27-.96-1.07l.43,1.17-1.08.54.38-.96-.49-.53-.21,1.07-.54-.86-.75.39-.54-.82c-.34-.05-.12.36-.48.5-.31.12-.52-.03-.8-.08l.64-.64c-.41.17-.98.11-1.34.23-.4.13-1.65.57-2.19.61-.69.05-1.78-.85-2.59-.2l.11-.85c-.44-.14-.55.39-.85.51-.62.24-1.94.07-1.61,1.2l-.97-.43c.22-.79.87-.26,1.28-.75l-.32-.53c-.47.77-1.15-.27-.97.86l-.34-.45-.85.21-.2-.42h-.54s.21.65.21.65c-.4.12-.52-.34-.79-.39-.23-.04-1.08.44-1.52.31l-.8,1.15c-.87-.8.25-.39.1-1.07-.98.15-1.61-.22-2.35.64l-.11-.64-.63.23-.23-.45-.86.44-.32-.44c-.06.53-.31.74-.86.64l.64-.85-1.6-.65c-.36.73.66.66.96.97l-1.06.32-.33-.85-.53.32.43.53-2.68-.86.11.64-.53-.43c-.54.67-1.15.24-1.68.3-1.14.12-1.28.68-2.07-.5.68-.18.61-.86,1.47-.67l.03-.83.66.12.2-.54.96.64-.11-.64c1.26.35,2.43.96,3.64.11l-1.5-.96c1.24-.59,3.02,1.72,3.54.21l-2.04-2.57c.24-.22,2.41,1.87,2.76,2.11.16.11.14.41.67.24.46-.47-1.98-3.24-1.93-4.07l1.7,1.41c.42.88,1.11,1.88,2.16,2.02l-1.71-4.71c.2.1.58.53.71.7.34.48,1.09,1.62,1.31,2.1.08.18.57,2.91,1.19,2.34-.38-.52.15-1,.12-1.39-.01-.16-.28-.39-.31-.66-.09-.82-.32-1.61-.24-2.45.6-.1.36.13.48.47.14.39.18.82.32,1.2.12.34-.12.57.48.47.22-2.24.27-4.5.43-6.75,1.81-25.85-9.52-41.52-16.57-64.68-.66-2.17-.68-4.87-2.41-6.38-.49-.42-1.14-.63-1.59-.98-1.07-.85-2.13-2.32-2.8-3.52l-.21,1.5c-.89-1.56-.33-3.22-.97-4.71-.53,2.54.48,4.92,1.18,7.29-1.27-1.31-1.48-3.81-1.93-5.57-.35-.06-.24.53-.22.76.07.84.14,2,.23,2.76.09.74.94,1.85.64,2.91-.3-.1-.64-.8-.75-1.07-.35-.87-.55-2.06-.75-3-.37.11-.26,1.34-.22,1.61.33,2.25,1.96,3.67,2.79,5.67-.58.13-.37-.18-.53-.42-.57-.86-.97-1.84-1.72-2.57-.21.53.52.95.7,1.44.07.19.21.76-.16.7l-2.15-4.5c-.37-.04-.24.75-.22.97.11,1.45.62.99.92,1.65.18.38.1.84.28,1.22.63,1.27,1.79,2.28,2.23,3.66l-2.96-3.79-1.32-3.07c-.11,1.17.04,2.25.76,3.2.62.81.85,1.18,1.42,2.01.82,1.2,1.87,1.91,2.1,3.47.05.63-.24.16-.39-.04-1.24-1.66-2.18-3.52-3.36-5.22l.77,2.87,3.19,3.88-.1.32-2.77-2.59-2.69-4.06c.07,1.16,1.15,2.19,1.68,3.14.22.39.28.83.5,1.22.44.77,1.64,2.23,1.89,2.83.04.1.06.35-.1.32l-2.13-2.37-1.83-3.42c.19,2.76,2.6,4.38,3.22,6.96-.42.48-.34-.01-.45-.2-.78-1.27-.89-1.24-1.81-2.26-.1-.12-.93-1.81-.95-.98.98,1.89,2.47,3.55,3.26,5.53.08.21.34.66.06.79l-3.75-6.21c.8,2.94,2.54,5.62,4.07,8.25l-.72-.14-1.43-1.47,1.18,3.43-1.04-1.31-2.06-3.83c.2,2.75,2.6,4.8,3,7.5l-2.35-4.29,2.35,6.97c-.6.38-.8-.82-1.07-1.24-.09-.14-.34-.17-.42-.31-.81-1.47-1.16-3.11-1.29-4.78-.36-.06-.23.52-.22.76.06,1,.4,2.08.44,3.1-.91-.38-.72-3.91-.86-4.07-1.01,0-.45,1.09-.42,1.81,0,.24.13.81-.22.76-.79-2.26.29-4.35.21-6.64l-.66,2.87-.41.45c.6-2.37.27-4.79.64-7.18-.33.11-.42.99-.5,1.32-.37,1.65-.51,2.89-.57,4.58,0,.26.16.8-.21.75.15-.62-.22-1.28-.22-1.82.02-1.41.49-4.14.97-5.46.44-1.2,1.45-2.26,1.17-3.65l-.21,1.28-.42-.43-2.36,6.43c.19-2.93,1.69-5.58,2.35-8.36l-1.33,2.21-.82,2.93v-1.07s-.53.43-.53.43c-.16.03-.13-.2-.1-.32.55-2.19,2.78-4.38,3.43-6.54l-2.02,1.94-1.84,3.2c-.6-.22.13-1.34.32-1.72,1.09-2.21,2.79-4.07,4.61-5.68-.41-.17-1.07.51-1.39.76-.61.47-2.71,2.65-3.01,2.78-.25.11-.43-.06-.32-.32.24-.55,1.54-1.27,1.93-1.71,1.01-1.16,1.85-3.22,3.21-4.29-.19-.33-.49.05-.65.21-.93.9-1.41,1.69-2.57,2.58-.17.13-.41.58-.64.22.45-.71,1.34-1.24,1.83-1.82,1.44-1.7,1.12-1.86,3.22-3.21.27-.18.63-.17.53-.65l-2.04,1.07c-1.18-1.28.6-2.92,1.18-4.18l-.42-.1c.11.7-.66.91-.8,1.13-.28.45-.71,2.21-1.03,2.94-.34.74-.85,1.75-1.39,2.36-.52-1.58.12-2.91.68-4.35.08-.21.35-.65.07-.79-.47.52-1.11.72-.75,1.5l-.43-.22c-.49,1.94-1.2,3.68-.86,5.79l-.53-1.68c-.08-1.41.13-2.34.53-3.68-.33.14-1.07,1.9-1.07,2.04v3.11l-.43-1.71-.64,3.86c.3-.72-.41-.82-.45-1.16-.13-1.13.48-2.55.23-3.76-.48-.66-.44,3.05-.44,3.33.03,1.05.42,2.19.22,3.31-.26-.07-.86-1.31-.86-1.39v-3.22c0-.19.41-.77.21-1.18-.33,0-.36.74-.4.99-.19,1.12-.26,2.37-.25,3.51l-.42-2.57c-.12,2.09.13,4.15.42,6.21-.54-.23-.57-1.23-.7-1.6-.04-.11-.31-.09-.35-.27-.32-1.27-.22-2.61-.23-3.91-.23-.09-.43.71-.43.75v4.29c0,.36.57,1.5.65,2.15.05.48-.05.56-.27.05-.19-.44-.48-1.12-.58-1.57-.17-.76-.43-2.29-.43-3.02,0-1.05.46-2.05.52-3.07l-.94,1.16c.45,1.27.04,2.77.19,4.09.18,1.56,1.46,3.16,1.5,4.82-1.09-1.16-1.66-2.94-1.71-4.5h-.64c-.16,1.98,1.31,3.67,1.18,5.57-1.62-2.42-2.74-5.27-1.61-8.14-.53.28-.96.81-1.06,1.41-.51,3.23.9,4.87,2.02,7.61.06.16.58.99.01.85l-2.14-4.29-.54-3.21c.14.91-.29,2.16-.09,3.03.46,2,1.41,3.67,1.67,6.02.04.35.23.54-.19.81-.67-1.64-1.07-3.39-1.54-5.1-.09-.32-.38-.6-.43-.85-.06-.26.09-2.35-.48-1.76.13,3.32,1.62,6.49,1.93,9.86-.32,0-.4-.65-.48-.91-.4-1.24-.4-3.02-1.44-3.81.06.6.47,1.05.59,1.66.11.53,0,1.08.1,1.61.14.71.5,1.53.58,2.21.05.42-.04.32-.41.3-1.01-1.96-.79-4.47-2.14-6.22-.31.84.32,1.49.42,2.05.1.59-.05,1.17.1,1.83.13.56,1.77,3.89,1.62,4.05l-.53-.42-1.18-2.79c-.27,1.71.63,3.18.86,4.82l-.33-.31-.74-1.94.11,4.71c-.78-1.23-1-2.85-.97-4.28l-.21,2.14c-.31.04-.38-.56-.41-.77-.21-1.84.49-3.61.41-5.45l-.79,1.67-.28,2.4c-.32.06-.29-.61-.3-.83-.07-1.97,1.09-4.34,1.58-6.24-1.21.34-1.25,1.9-1.55,2.84-.09.27-.38.69-.37.06.37-1.57,1.27-3.87,2.13-5.16.37-.56,1.63-.81,1.3-1.81l-1.93,2.04c-.51.75-.82,1.61-1.23,2.41-.25.49-.33.41-.27-.06.29-2.25,3.14-4.28,3.86-6.43.03-.65-.23-.15-.39.04-1.13,1.35-2.05,3.1-3.04,4.57-.41.04-.19-.43-.1-.63.36-.74,1.24-2.04,1.73-2.78.36-.54,1.65-1.94,1.8-2.27.04-.09.05-.35-.1-.32l-2.79,2.78c-.32-.32.29-.89.53-1.18.82-1,1.97-1.68,2.79-2.67-1.71.72-3,2.36-3.91,3.91-.15.26-.35.71-.38.05,1.13-2.93,4.11-4.22,6-6.43-.22-.36-.47.09-.64.22-1.02.72-2.06,1.43-3,2.25-.24-.25,1.3-1.77,1.71-1.72l-.43-.32,3.43-3c-.3-.18-.98.3-1.26.46-.47.28-.82.62-1.25.89-.31.2-1,.74-1.35.58,1.89-2.17,4.36-3.26,6.64-4.93-.17-.32-.52.05-.7.15-.43.24-2.53,1.61-2.72,1.45l.43-.64c-.1,0-.22-.03-.32,0-.64.18-1.7,1.08-2.38,1.26-.4.11-.32-.1-.3-.41,1.08-.39,2.02-1.07,3.07-1.54.85-.38,3.89-1.72,4.59-1.85.47-.09,1.1.5,1.34-.26-.61-.44-5.05.99-5.9,1.5l-.1-.42,7.29-2.57c-2.25.1-4.61.79-6.54,1.93-.15.05-.16-.22-.1-.32.65-1.24,7.23-2.51,8.79-2.68-.12-.38-1.32-.25-1.61-.21-.74.1-1.3.45-1.98.59-.22.05-.75.22-.7-.16l5.36-2.79-3.71,1.11-2.19,2.1c-1.06-.23.88-1.23.93-1.32.04-.07-.19-.38-.08-.6.16-.34.96-.57,1.19-.97-.48-.2-1.51.68-1.93,1.07-.79.72-1.21,1.91-2.36,2.04,1.36-1.62,2.84-3.65,4.93-4.29l-.92-.21c-1.6,1.57-3.28,2.34-4.63,4.21-.24.33-.16,1.04-.67.61.42-.89.92-1.75,1.59-2.48.33-.36,1.08-.39.66-.84-1.8.88-2.85,2.72-3.7,4.46-.06.12-.07.87-.48.47-.5-.48.55-1.93.89-2.43.8-1.16,1.9-2.13,2.96-3.04.03-.16-.21-.14-.32-.1-1.04.34-3.12,2.72-3.85,3.65-.62.79-1.24,2.96-2.48,2.67,1.02-1.28,2.16-2.62,2.04-4.39l-3,5.14,1.66-4.34.59-.7c-.56-.22-1.47,1.28-1.81,1.84-.96,1.57-1.48,3.34-1.84,5.13-.37.05-.23-.51-.21-.74.1-1.22.64-2.66,1.17-3.77.11-.23,1.5-1.93.66-1.7-.63.17-1.65,2.51-1.93,3.22-.59,1.48-.94,3.21-1.5,4.71-.55.48-.25.05-.23-.25.03-.7.1-1.41.12-2.11l-.85,1.29c-.12-.45.82-1.42.22-1.71-.62,1.44-1.06,3.1-1.89,4.43-.83,1.34-.62.29-.79.28l-.11.65c-.06.08-.28.17-.36-.2-.12-.55.09-2.24.2-2.85.04-.2.09-.64.37-.59l.21.86c.51-1.67.48-3.56,1.5-5.04l-.42-.1c-.43,1.64-1.54,3.39-2.03,4.94-.38,1.21-.13,2.66-1.18,3.42-.11-.15.75-2.98.83-3.56.04-.27.21-1.32-.19-1.37-1.01,2.36-.91,4.82-1.51,7.29-.37.05-.23-.51-.21-.75.12-1.51.42-3.03.56-4.54.03-.31-.15-.64-.12-1,.04-.41.24-.8.32-1.2.04-.22.28-.7-.12-.65-.15.64-.51,1.18-.63,1.84-.24,1.37.05,3.14-.29,4.42-.13.48-1.21,3.84-1.33,4.03-.07.1-.27.28-.32.21.08-2.2,1.58-4.1,1.28-6.32l-.22.53-.42-.43-.06,1.55-.8,3.16c-.35-1.66.36-2.99.59-4.45.04-.23.23-.74-.16-.69-.83,2.89-.77,5.95-1.93,8.79l-.19-.73c.74-2.34,1.17-4.77,1.38-7.2-1.25,2.96-2.08,6.2-2.25,9.43-.39-.07-.34-.33-.37-.62-.1-1.07.51-3.33.7-4.51.04-.22.29-.7-.11-.65-.6.86-.35,1.83-.53,2.57-.31,1.34-1.55,2.99-1.62,4.51-.19.2-.41.17-.37-.27.07-.77.05-1.6.21-2.35.2-.93.67-1.67,1.01-2.52-.49-.52-1.57,2.61-1.5,3-.47-.03-.14-.99-.07-1.25.61-2.16,2.3-3.51,3.29-5.4l.42.43.43-1.6-3.32,3.75-.32-.11c.56-.8,1.12-1.59,1.72-2.36.53-.68,2.56-2.7,2.78-3.22.15-.36-.29-.43-.42-.32-.03.03-.03.34-.23.51-.85.73-1.71,1.42-2.45,2.27-.3-.15.03-.53.15-.71.84-1.29,2.78-2.34,3.39-3.57l-2.57,1.5c.61-.68,1.91-2.21,2.68-2.57.09-.04.35-.05.32.1-.32.23-.3.7-.43.97M324.86,7.29c.17-.17-1.21-2.21-1.93-1.71.16.3,1.67,1.97,1.93,1.71M298.28,9.65c-1.49.14-2.8.62-3.64,1.93.71-.29,1.28-.76,2-1.11.53-.26,1.38-.16,1.65-.81M327.86,13.72c.03-.78-2.67-3.72-3.1-3.64-.16.03-.46.36-.11.53l3.22,3.11ZM294.63,12.65c-.52-.07-.85.07-1.28.33-.36.21-1.54,1.49-1.94,1.91-.22.23-.52.36-.43.76l3.64-3ZM281.77,19.08c1.12-1.53,2.47-2.91,3.64-4.4.3-.39.79-.9.86-1.39-1.6,1.7-3.95,3.45-4.5,5.79M261.19,21.22l-2.18-3.72-.61-.57c.57,1.53,1.47,3.28,2.78,4.29M310.07,24.01c-1.2-.98-2.26-2.08-3.76-2.57l-.96.75c.8.73,1.78.46,2.63.79.78.31,1.18,1.11,2.08,1.03M327.22,28.72v-3.86c.67.32.34,1.67.45,2.44.25,1.62.92,3.19.83,4.85l.64-.64.24,1.8,1.48,1.09c-.34-1.89-2.11-3.2-2.36-5.03l1.74,2.43.39.04-2.78-5.04c.16.04.56.49.63.59.7,1.05,1.33,2.22,2.05,3.26.22.32.42.3.32-.11-.21-.89-1.43-2.19-1.87-3.06-.49-.95-.55-1.81-.89-2.57-.1-.22-.39-.78-.13-.9l1.5,1.5c.23-.39-.46-1.22-.76-1.6-.57-.74-1.45-1.47-2.03-2.25-.33.95.25,1.94.32,2.9.08,1.13-.04,2.29,0,3.43.01.26-.16.8.21.75M311.44,22.86c-.23-.25-1.09-1.7-1.37-.67l3.64,4.18-1.75-3.08c-.11-.21-.39-.28-.52-.43M318.21,23.58l-2.94-1.45-3.92-.26c.81,1.27,2.97.86,4.38,1.08.71.11,1.66.64,2.48.63M304.86,22.79c-.56-.31-1.35-.31-1.97-.3l-1.6.44,6.86,1.29c-.57-.89-2.03-.5-2.85-.9-.28-.14-.33-.46-.43-.52M323.36,25.94l-1.74-1.37-3.19-1.41.71.68,4.22,2.1ZM315.43,25.94c-.35-1.24-1.1-2.64-2.57-2.57l2.57,2.57ZM323.36,27.01c-.82-1.96-3.56-1.99-5.13-3.12l-3.65-.21c1.15.97,2.05,1.09,2.68,2.68l.53-.43.1,1.51,2.15,3.85c-.11-1.5-1.24-2.71-1.56-4.23-.05-.22-.24-.95.16-.91l2.15,5.79c.42.03.17-.65.12-.87-.22-.99-.81-1.95-1.19-2.89-.05-.63.25-.18.39.04.85,1.32,1.21,3.06,1.54,4.58.39.05.19-.47.16-.69-.1-.61-.38-1.25-.49-1.87-.04-.22-.28-.7.12-.65.32.81.55,1.66.85,2.47.13.34.66.73.33.95l-.54-.43c-.06.62.3,1.11.75,1.5.17-.42.17-1.15.09-1.59-.09-.56-1.15-1.75-.2-1.62.71,2.14.62,4.81,2.36,6.43-.81-1.81-1.33-3.68-1.71-5.57.87.74,1.17,1.93,1.29,3l.72-.62,1.96,1.69.1-.32-4.28-4.61c1.48.43,2.32,2.1,3.75,2.78.15.05.15-.2.1-.32-.5-1.11-4.58-3.74-5.73-4.78-.23-.21-.6-.23-.49-.69,1.96,1.16,3.54,2.44,5.57,3.54.33.18.58.15.43-.21-.07-.18-2.6-2.21-2.93-2.43-1.1-.73-2.72-1.18-3.93-1.75l.1-.42c1.23.47,2.87,1.61,4.08,1.92.41.1.31.06.21-.21-.44-1.17-4.06-1.92-5.04-2.89,1.36.08,2.9.89,4.07,1.61M309.64,24.87c-1.39-.49-2.7-.11-4.15-.24-1.36-.12-2.78-.51-4.09-.84l-1.83.22c1.68.15,3.55.38,5.19.7.38.08,1.3.19,1.45.58-2.49-.11-5.04-1.19-7.5-.85l7.59,1.29c.29-.76,1.5-.37,2.35-.46.22-.02,1.01-.09.99-.4M301.92,25.3c-1.42.66-4.17-1.29-4.72.64l5.14.22-.43.42c.52.04,1.6-.09,1.93.43-1.66.22-3.43-.4-5.03-.44-.73-.02-1.28.22-1.93.25-1.09.04-2.51-.59-3.32.84.74.03,1.01-.58,1.82-.65,1.38-.12,4.97.56,6.43.88.36.08.64-.24.54.42-.65-.07-1.08-.27-1.77-.17-.2.03-.68.46-.07.37l.98.23c-1.05.17-2.03.27-3.11.21-.58-.03-1.25-.43-1.79-.29-.61.16-.57.58-.85.71-.42.2-1.3.12-1.76.54-.45.43-.14.38.23.23,1.29-.54,2.63-1.06,4.06-.66l-3.48.8-3.16,1.77c-.03.16.21.14.32.1.76-.24,1.79-.9,2.69-1.17.68-.21,1.64-.41,2.35-.43-2.11,1.16-4.83,1.38-6.64,3.11.57-.07,1.13-.26,1.69-.35.35-.05.7-.26.24.24-1.1.69-4.66,1.67-5.14,2.79-.11.26.05.4.32.32l3.22-1.71.1.42c-1.55.59-3.6,2.08-4.83,3.21-.22.2-.94.73-.64,1.08.84-1.2,2.26-1.64,3.3-2.48.33-.27.61-1.23,1.09-.84l-.86,1.18.64.11c-.36.59-.96.29-1.42.49-1.12.47-2.41,2.03-3.08,3.05.92-.03,1.4-1,2.04-1.5.36-.28,1.37-1.18,1.45-1.23.71-.43,1.79-.51,1.5-1.95.86-.35,1.16-2.09,2.08-1.86-.29.32-1.04.89-.75,1.39,1.29-1.57,2.86-2.99,4.72-3.86l.21.64c.48-.42,1.23-1.38,1.82-1.18-1.35,1.73-3.67,2.75-4.5,4.82l5.04-4.71c.27-.09.43.05.32.32-.2.47-2.35,2.25-2.89,2.9-.14.17-.56.43-.21.64,1.51-1.5,3.05-3.05,4.93-4.07.45.35-.02.36-.17.49-.65.56-1.49.91-2.08,1.55-.03.16.22.14.32.1.61-.25,1.67-1.25,2.47-1.61.62-.28,1.87-.67,2.56-.87.2-.06.71-.27.65.12-2.25,1.08-4.82,2.35-6.93,3.68-.22.14-.66.44-.04.39l8.8-4.49c1.01.16-1.08.61-.65.86,1.71-.62,3.39-1.2,5.25-.75-.84.65-1.97.16-3.01.42-.91.24-2.18,1.23-3.21,1.4.06.48,1.49.29,1.77.2.21-.06.17-.39.42-.49.64-.25,1.84-.59,2.1.28-.61-.2-1.55.07-1.93.64,1.91.03,3.49-1.19,5.36-.64-.77-1.25-2.64.29-3.22-.64.69.07,1.34-.26,2.03-.23,1.05.05,1.76.96,2.63,1.03.47.04.94-.22,1.45-.19,1.75.11,3.2.51,4.82,1.09.11-.61-.14-.35-.47-.48-2.27-.9-4.46-1.14-6.82-1.66l.1-.42c1.26.46,2.7.46,3.98.74,1.01.21,1.99.92,2.99.65l-1.27-.87-6.66-.74,1.82-.21,4.29.64c.27-.23-.4-.49-.54-.54-1.78-.67-4.3-.8-6.22-.97l-.13-.63c-.95.03-2.49.68-3.09-.22,2.78-.2,5.5-1.15,8.14.21.12-.57-.14-.37-.42-.53-.37-.22-1.36-.78-1.71-.87-1.21-.31-4.8.19-6.07.55-.18.05-.15.4-.3.43-.44.08-1.07-.31-1.57-.22-.05-.31.38-.3.6-.36,1.55-.45,3.64-.97,5.19-.71l-.22-.43,1.29-.21c-2.25-.74-4.78.67-6.93.56-.36-.02-1.09-.14-1.21-.56,1.79-.03,3.72-.55,5.47-.65.46-.03,1.16.26,1.78.16.33-.05.65-.01.26-.38-1.9-.5-3.91-.43-5.87-.19-.31.04-.51.33-.83.35-1.11.07-2.81-.69-4.02-.58l.22-.43ZM316.93,28.72c-1.04-1.25-1.85-2.7-3.21-3.64.37.93,1.33,2.05,2.03,2.79.18.19.95,1.08,1.18.85M318.43,30.01c-.79-1.7-1.46-3.55-2.78-4.93l1.84,4.05.94.88ZM346.3,27.65c.24.28,2.1-2.03,1.93-2.57-.32.36-2.23,2.21-1.93,2.57M290.13,26.58l-3.84,2.26-1.51,1.81c.38.35,3.45-2.42,3.97-2.78.74-.07-.47,1.04.53.86l.86-2.14ZM295.17,28.08c1.46-.08,2.94.06,4.39,0l-2.47-.45-2.89.23c-.13.89.7.23.96.21M288.42,31.73c.64-.44.64-1.44.98-2.13.22-.45,1.08-.95.95-1.73-1.11,1.11-1.65,2.33-1.92,3.86M269.12,30.44c.46-.41-1.49-1.3-1.72-1.39-1.22-.49-2.77-.76-4.07-.97l3.86,1.81,1.92.54ZM295.92,28.51c-1.45.03-2.62-.5-3.64.85l1.08-.1,2.56-.76ZM285.42,31.73c1.24-.76,2.75-1.31,2.78-3-.63.89-1.65,1.47-2.36,2.25-.22.24-.5.37-.42.76M316.93,30.01c-1.85-.69-3.62-.89-5.57-1.07.34.72,1.35.34,2.01.45,1.01.17,1.95.55,2.91.74.22.04.7.28.65-.12M276.84,35.16c.14.02.43-.28.43-.32v-4.82c-.09-.19-.43.4-.43.54v4.61ZM367.95,30.01h-4.18s-.39.35-.32.43c.81.14,1.55-.2,2.46,0l2.04-.43ZM285.41,37.51c-.34-.96.41-1.34.59-1.88.46-1.34.61-2.67,1.39-3.97.29-.48.99-.47.81-1.23-.67.93-2.17,1.31-2.88,2.16-.52.62-.87,1.86-1.62,2.45l.42.32c-.13-.55,2.11-3.05,2.36-2.79-.28,1.09-1.65,1.84-1.88,2.94-.07.34-.25,1.61.16,1.77-.1-1.11-.02-2.51,1.29-2.78-.16.5-.7.94-.81,1.44-.06.28-.24,1.45.17,1.56M268.05,31.94l-3.43-1.07c1.06.79,2.42,3.78,3.54,4.28.09.04.35.05.32-.1l-1.29-1.61c1.31-.52,2.37.38,3.64.32-.88-.83-2.26-1.16-3.43-1.18l.64-.64ZM341.15,32.37c-.39-.37-2.01,2.05-2.27,2.33-.47.51-1.51.91-1.58,1.74l1.39-1.28.32.32,2.14-3.11ZM277.7,33.01v3.97c0,.47-.67,1.16.43,1.61-.6-1.09-.01-1.76.02-2.89.02-.47-.17-.87-.19-1.29-.02-.44.61-1.55-.26-1.39M309.53,33.87c1.43.02,2.86,0,4.29,0,.19,0,1.19.52,1.39.75-.26.37-.93-.32-1.18-.32h-3.86s-.54.23-.54.32l.54.32.1-.42c.1,0,.21,0,.32,0,4.86.57,7.57.94,11.91,3.31.45.25.95.92,1.28.65-1.36-1.56-3.5-2.03-5.14-3.22.64-.02,1.71.43,2.29.71.71.34,1.64,1.13,2.11,1.32.1.04.35.06.32-.1-2.26-2.29-5.71-2.32-8.57-3.43,1.8-.02,3.87.44,5.57,1.08.56.21,1.24.84,1.72.64-1.93-1.46-4.61-2.01-7-2.24-.43-.04-1.75-.17-2.06-.16-1.38.04-2.83.55-4.22.57.03.52.58.21.75.21M295.06,33.23c-.29-.27-2.53,2.21-2.79,2.57l2.05-1.49.74-1.08ZM334.72,36.87c-.14-1.24-.25-2.49-.75-3.64l-.32.94,1.07,2.7ZM273.84,37.3c-.14-1.05-1.45-.92-2.25-1.5-.65-.47-.57-1.01-.75-1.17-.18-.17-2.04-1.06-2.15-.97l1.18,1.5.21-.43c.94,1.29,2.21,2.15,3.75,2.57M330.86,36.65l-1.5-2.57.43,4.29c.29-.02.38-1.22.36-1.37-.04-.35-.5-.74-.36-1.2l1.07.85ZM304.28,35.15c-.56-.88-1.96-1.24-2.79-.53l2.79.53ZM313.92,39.87c.09-.4-.22-.51-.43-.75-1.17-1.4-3.24-2.88-4.88-3.69-.74-.36-1.57-.8-2.4-.7l4.01,2.09c.6.21,3.4,3.37,3.7,3.05M334.5,40.73c.32-1.77-.16-3.49-.7-5.19-.07-.22-.05-.65-.36-.6l1.07,5.79ZM282.2,37.51c.62-.57,1.35-1.48,1.28-2.36-.5.24-.89.71-.86,1.29l-.42-.22v1.29ZM327.59,38.11c.25-.47-1.23-2.36-1.66-2.64-1.14-.72.27.91.3.98.64,1.23.92,3.37,1.52,4.7l2.25,4.5-1.71-4.83c.03-.85.81.86.96.76.09-.9-1.16-1.6-1.65-2.42-.72-1.21-.13-.84-.01-1.05M325.5,40.73c.29-.29-1.71-1.65-1.94-1.8-2.81-1.8-6.25-3.23-9.63-3.12l3.22.98,1.5.1-.43.21c.2.67.75.17,1.29.3,1.72.41,4.28,2.6,6,3.34M309.21,39.01c-.9-.6-2.02-1.91-2.94-2.33-.62-.28-1.38-.11-1.99-.67-.14.56.18.38.4.55,1.26,1,3.01,1.27,3.7,2.65l.83-.2ZM305.35,38.59c.41-.42-2.22-2.29-2.78-2.14l2.78,2.14ZM312.85,40.09c-.07-.55-.88-1.05-1.3-1.37-.4-.31-3.21-2.43-3.41-2.27,1.14,1.48,3.01,2.8,4.71,3.64M300.21,38.16c-1.34-.38-2.67-1.29-4.07-1.29l1.76.92c.6.01,1.16.34,1.67.47.22.06.68.31.64-.11M269.34,37.94c-1.41.08-2.87-.45-4.2-.62-.23-.03-.78-.18-.73.19,1.14.12,1.98,1.73,2.9,2.14.09.04.35.05.32-.1l-1.39-1.4,2.57,1.93.42-.43c.89.36,1.58,1.96,2.19,2.37.23.15.64.14.9.33.6.42,1.02,1.21,1.95,1.16l-3.64-3c.49.23,1.08-.02,1.55.05,1.09.16,2.28.85,3.37.91-1.62-1.4-4.16-.81-5.57-2.04.16-.12,2.89.49,3.4.56.35.05.69.26.24-.24l-6.65-1.39,2.36-.42ZM299.99,39.44c-.57-.59-2.82-1.72-3.59-1.88-.73-.15-1.29.06-1.99.17l2.74.58,2.83,1.13ZM322.29,42.87c-.63-1.13-2.45-4.53-3.55-4.91-.44-.15-1.12-.19-1.59-.23.4.63,1.62,1.2,2.03,1.72.77.98,1.44,1.99,2.39,2.97.22.23.31.54.73.45M319.07,40.51c.33-.33-2.2-2.52-2.78-2.36.25.32,2.63,2.5,2.78,2.36M324.86,41.16c-.52-.6-4.84-3.23-5.14-3,.83,1.12,2.37,3.22,3.65,3.74.32.13,1.26.33,1.71.44.22.05.68.31.64-.11l-3.86-2.14,3,1.07ZM295.92,38.37h-2.46l-2.04.42c.85.19,1.71-.18,2.47-.22.55-.03,1.61.5,2.03-.2M334.72,42.01c.93-.81,1.74-2.05,2.14-3.22l-1.07,1.71-.64-.43-.43,1.93ZM298.71,40.94c-.43-.52-1.83-.89-2.52-1.02-1.96-.36-4.87-.68-6.27,1.02,1.57-.35,2.94-.81,4.59-.62.91.1,1.58.7,2.7.2,0,.28-.58.47-.81.58-.98.44-1.66.61-2.62,1.25-.25.16-.56-.05-.42.53l5.36-1.93ZM303.21,40.09l-3.97,1.06-2.89,1.29c.38.02.75.02,1.13-.05.86-.17,2.77-.65,3.59-.91.67-.21,1.68-.84,2.14-1.39M310.07,40.51c-.11-.42-.31-.36-.64-.34-1.53.1-2.85,1.39-4.25,1.79-1.34.39-3.25.46-4.6.75-.74.16-1.63.41-2.35.65-.23.08-.65.05-.6.36.95.06,1.81-.47,2.7-.62.58-.1,1.23.04,1.86-.07,1.2-.21,2.16-1.04,3.59-.38v-.75s4.29-1.4,4.29-1.4ZM295.06,40.73l-1.29-.21.22.43c-1.05.24-2.01,0-3.05.28-.36.09-1.24.46-1.45.79,1.3.19,2.22-.63,3.55-.44.43.06.27.48.41.45.08-.02,1.15-.69,1.33-.81.19-.13.4.04.28-.48M274.91,43.3c-.54-1.3-1.55-2.21-3-2.35l3,2.35ZM307.28,42.01c.38.21,3.13-.51,2.57-1.07-.5.23-1.04.29-1.56.48-.28.1-.97.28-1.01.59M248.54,41.16c-.59-.49-2.87,2.82-3,3.43.57.13.47-.05.71-.26.85-.78,1.43-2.31,2.29-3.16M286.49,41.16c-.93.44-2,.89-2.36,1.93.6.18.4-.38.63-.53.24-.16,1.94,0,1.73-1.4M319.07,46.09c0-.15-.09-.46.13-.43h2.66c-.23-.6-1.23-.45-1.83-.43-.56.02-2.35.7-2.24-.21l3.86-.22c-.26-.63-1.39-.46-2.03-.42-1.03.05-2.36.55-3.28.6-.34.02-.59,0-.69-.38,1.76-.51,3.28-1.16,5.14-.65,0-.19-.19-.33-.37-.38-.61-.17-3.28-.12-4.02-.04-1.53.15-3.4.91-5.04.96-.03-.39.38-.52.68-.61,1-.31,2.39-.3,3.48-.59.56-.15,1.29-.73,1.79-.79.75-.09,2.02.44,2.85.38-1.81-1.51-4.5-.14-6.58.2-.83.13-1.75.32-2.55.43-1.03.15-2.26.18-3.31.22l2.93-.61,3.93-1.96c-.97-.14-2.01.41-2.86.89-.13.07-1.25,1.15-1,.29.05-.17,1.15-.5.33-.53-1.64.33-3.09.93-4.62,1.5l2.21.9,1.22,1.02-.64.21c3.1-.51,5.81,1.57,8.79,1.5l-5.87-1.93-.03-.43c2.38.37,4.57,1.4,6.96,1.5,0,.17-.1.42.14.43,1.05.36,1.65.03,2.64-.22.05-.37-.49-.2-.75-.21-.68-.03-1.36.03-2.04,0M367.09,42.01c.21-.26-1.65-.87-1.93-.85.39.51,1.52,1.69,2.04,1.93.09.04.35.05.32-.1l-.75-.75.32-.22ZM303.85,41.37c-.78.33-1.58.22-2.31.35-.31.05-1.23.18-1.33.5,1.13-.28,2.93.17,3.64-.85M324.65,44.16c-.6-.35-1.97-3.03-2.57-2.57.73,1.04,1.02,2.51,2.57,2.57M327.65,44.37c-.93-1.25-2.54-1.52-3.86-2.14l2.89,3.86c.02-.3-.07-1.56-.14-1.68-.1-.16-1.22-.21-1.04-.89l2.14.85ZM277.91,44.59c.27-.28-2-2.46-2.36-2.14.35,1.16,1.58,1.34,2.36,2.14M267.84,42.87c-1.25.16-2.76.12-3.96.43-.3.08-.67,0-.75.43.5.22,1.43,0,1.79.07.45.09,1.38.89,1.98.99.98.17,1.86-.37,2.94-.15.68.14,1.73.93,2.41,1.24l.21-.43,2.68,1.5c-.39-.23-.87-1.42-1.01-1.5-.65-.38-2.85-.31-3.71-.64-.02-.32.77-.38.99-.4.57-.06,1.13,0,1.69-.02.26,0,.8.16.75-.21-2.2-.62-4.22.14-6.43,0l2.07-.79c.42-.06,1.1.49,1.36-.28-1.81-.05-3.36.38-5.04,1.05l-.32-.4,2.36-.86ZM340.51,43.3c-1.67.59-3.33,1.43-4.5,2.78,1.04-.5,2.13-1.1,3.11-1.71.46-.29,1.09-.62,1.39-1.07M308.78,44.59c-1.36-.57-2.85-.78-4.29-.43-.04.31.58.33.81.37.99.16,2.2.36,3.18.47.42.05.31-.04.3-.41M300.21,49.3c.27.3.74.4.64.86-1.01-.38-2.03-.68-3.11-.85-.45-.07-2.31-.24-2.69-.15-.38.08-.38.22-.21.36,2.22.34,4.73.94,6.97,1.07,1.21.07,2.59.09,3.75-.22l-.75-.64c-.2.58-.81.61-1.38.63l-.23-.53.43-.21c-1.45-2.03-3.25-5.14-6-5.25l2.69,1.7c.43.4,2.26,3.01,1.81,3.44-.54.53-.89-.82-1.11-1.14-.85-1.23-2.21-3.2-3.82-3.14l2.02,1.73c.38.7.89,1.54.98,2.34-1.24-1.41-2.26-3.84-4.41-4.28-.21-.04-.58-.13-.52.2.91,0,4,2.68,3,3.43l-3.96-1.5.32.64c-.73.17-1.57-.58-2.14.11.5.32,1.52.04,1.98.16.56.14,1.02.58,1.82.75,1.22.27,2.89-.07,3.8.91.18.01.12-.29.11-.43M298.06,48.02c-1.3-1.45-2.86-2.91-4.93-3,.38.76,1.34.89,2,1.32.94.62,1.71,1.59,2.93,1.67M304.92,49.52c-.36-1.97-2.22-3.67-4.07-4.28,1.5,1.29,2.72,2.43,3,4.5l1.07-.22ZM306.42,49.52c.18-.17-1.76-2.5-2.03-2.79-.19-.21-1.16-1.3-1.4-1.07l2.78,3.98.65-.13ZM277.27,47.59c.44-.43-2.05-1.92-2.57-1.71.11.4,2.46,1.82,2.57,1.71M314.36,46.94c0-.21-.19-.32-.37-.37-1.36-.41-3.35-.64-4.77-.69l2.36.97,3.11.75c.48-.77-.94-.18-1.18-.75l.86.11ZM293.78,46.95c-1.59.31-2.76-.85-4.29-.86.11,1.23,2.06.18,2.45,1.26l1.83-.4ZM307.77,48.81c-.21-.19-1.74-2.72-2.2-2.29,1.08.84.63,2,1.38,3.02l1.62-.24c0-.37-.53-.24-.8-.49M323.57,46.73c-.78-.3-1.6-.29-2.36.1.65.67,1.78.65,2.36-.1M259.77,49.17c.22-.2,1.97-1.43,1.64-1.79-.75.79-2.35,1.05-2.14,2.36.3-.02.33-.41.5-.57M312,48.66c-1.46-.05-3.02-.36-4.28-1.07l1.27,1.39,3.02-.32ZM291.12,48.53c-.31-.22-1.58-1.27-1.42-.3,1.29.13,1.6,1.55,2.57,2.15l-.43-.75.43-.21c-.53-.17-.87-.68-1.15-.88M295.92,57.02c-.35,1-.88,1.26-1.71,1.93.81-2.11,1.07-4.04.85-6.32-.07-.76-.16-1.41-1.07-1.39-.24.77.59,1.74.64,2.26.05.55-.43,1.54-.21,2.24l-.35-2.31-.72-1.76c-.22,1.24.37,2.56.21,3.75-.05.38.08.35-.43.32.07-2.34-.82-4.64-2.57-6.22.17.98,1.12,1.63,1.51,2.45.5,1.05.45,2.2.42,3.33-1.09-1.2-1.26-2.44-2.89-3.21l.75,2.25-.42.1c-.02-.59-.32-1.16-.6-1.66-.2-.35-.56-.4-.68-.66-.33-.69.12-1.58-.21-2.52-.17-.48-.67-.86-.65-1.45l-.65-.14c-.11.08,1.18,1.97,1.22,2.49.13,1.86.11,4.95-.2,6.78-.1.59-.5,1.19-.57,1.79-.25,2.19.91,3.84,1.59,5.66,4.59,12.29,10.38,23.85,14.48,36.33.64,1.96,1.09,4.21,1.83,6.11.15.37.23,1.02.74.86,2.12-6.38,4-12.85,6.55-19.07,2.7-6.59,5.81-13.05,8.78-19.51,1.02-2.22,3.33-5.65,3.34-8.04.01-2.26-1.74-4.98-.43-7.49l-.46-.23.65-1.39c-.62-.06-.54.63-.96,1.08-.12.12-.36.17-.52.22l.2.51-.43-.11c-.17.67.58.88.65,1.41.09.64-.42,1.89-.76,2.46-.16.28.04.54-.53.42.18-.93.15-2.24,1.08-2.68l-.65-.75c-.65,1.76-1.92,3.08-1.72,5.14-.6.14-.46-.3-.44-.76.1-1.9.78-2.64,1.56-4.01.3-.52.56-1.3.8-1.88-.81.41-1.12,1.31-1.29,2.14l-.42-.43c-.76,1.83-.6,3.91-1.83,5.57l1.09-5.13-.22-.22c-1.01,2.05-1.21,4.38-1.4,6.64l-.41-1.8.73-3.77c-.68.97-.75,2.44-1.07,3.64-.16.58-.35,1.26-.53,1.83-.09.28,0,.67-.43.74.08-1.79.71-3.74.85-5.47.02-.23.16-.8-.21-.74-.1.68-.64,1.26-.78,1.92-.11.54-.37,2.07-.42,2.57-.11,1.29.43,2.92-.1,4.3-.37.05-.2-.49-.21-.75-.08-2.01-.42-3.92.1-5.91.23-.89.85-1.81,1.11-2.75.1-.37.22-.69-.24-.24-2.07,3.68-1.78,7.73-2.25,11.79l-.75-.64-.11.64-.32-.21-.74-6.65c-.5,2.67.33,5.43.21,8.14-.3.06-.28-.41-.32-.63-.1-.52-.1-1.04-.15-1.56l-1.02-3.16.21,2.68c.65-.22.64.29,0,.43,1.11.41.4,1.3.41,2.36.01.91.42,1.81.07,2.63-.13.3-.05.33-.48.26l-.22-3.64c-1.08,1.12-.01,3.37-.21,4.83-.04.29-.16.67-.43.32v-3s-.43.22-.43.22l-.43-4.72c-.32,1.71-.36,3.82.2,5.48l.23,3.95-1.04-3.99c-.18-.62.07-1.19.13-1.75.02-.24.25-.73-.15-.69-.95,2.02-.06,3.57.19,5.49.08.6.3,2.24-.19,2.44l-.86-4.5.21,6.86c-2.17-1.98-1.06-4.73-.86-7.29l-1.18,3.21.12-1.59-.44-.23,2.14-3.87c.04-.64-.24-.16-.39.04-.4.53-.65,1.17-1.21,1.57-.16.03-.14-.21-.1-.32.31-.97,1.7-2.24,1.92-3.33-.8.6-1.63,1.36-1.93,2.36h-.42s.66-1.39.66-1.39l-.42-.39c.59-1.71,1.86-2.97,3.19-4.12-.28-.58-2.59,2.04-2.36,1.29l3.43-3.43c-.31-.25-.95.36-1.17.54-.61.51-1.12,1.18-1.72,1.71-.16.03-.15-.22-.1-.32.09-.2,2.02-2.08,2.35-2.36,1.03-.88,2.37-1.41,3.22-2.57-.35-.17-1.05.38-1.35.58-1.1.72-1.96,1.6-2.93,2.43-.17.14-.43.56-.64.21,1.78-1.85,3.74-3.51,6-4.72-.98-.05-2.48,1.03-3.29,1.64-.52.39-1.65,1.75-1.97,1.89-.25.11-.43-.06-.32-.32.07-.17,2.29-2.36,2.58-2.56,1.01-.72,2.48-1.02,3.42-1.94l-3.59,1.11-.59.71c-.33-.23-.04-.52.13-.73.6-.75,1.44-1.66,2.41-2.1,1.26-.58,3.06-.39,4.01-1.46l-4.5,1.07c.37-.77-.28-.41-.54-.62-.27-.22-.43-.97-.85-.87-.8.18.19,1.88.1,2.36l-.75-1.29-.75,1.29.4-2.01-.61-.34c.56.9-.28,1.24-.61,1.85-.26.47-.26,1.47-.89,1.36-.24-.29,1.66-3.76.43-4.29l-.75,3.43.11-2.36c-.47-.08-.43.03-.54.42-.21.77-.14,1.77-.32,2.58-.97-.38.29-1.72-.64-2.14l-.43,3.21c-.36.06-.23-.52-.22-.76.04-.61.29-1.19.22-1.81l-1.04,1.66.18,1.13h-.64s.21-1.93.21-1.93c-.77-.13-.46.71-.54,1.07l-2.25-1.07,1.5,1.39.86,1.18-3.64-2.57c1.77,1.72,4,2.9,4.72,5.46-.03.66-.23.21-.38-.05-.66-1.1-1.27-2.59-2.62-3.05,1.03,1.23,2.66,3.41,2.8,5.03.02.22.13.82-.22.76-.2-2.11-1.92-4-3.22-5.57l3.43,6.11-.43.32-1.5-2.36c.3,2.25,1.82,6.78.86,8.86-.12.26-.5.07-.6.17-.12.11-.12.98-.26,1.25l-.43-.32.43-5.46c-.31-.05-.3.38-.36.6-.28,1-.46,2.21-.5,3.26-.79-.43-.23-1.46-.21-2.04.02-.99-.06-1.99.02-2.98.09-1.15.71-2.45.4-3.77l-.43.32c-.19,2.14-.39,4.3-.64,6.44-.04.32-.17.66-.43.32-.06-1.77-.01-3.57.65-5.25l-.65.21.43-2.68.43.22-.43-1.72-1.39,6.86c-.47-1.02.36-2.33.26-3.3-.05-.45-.64-1.11-.83-1.7-.25-.8-.31-1.87-.39-2.72l-.53,2.79-.75,1.29c.58-2.3.44-4.71.64-7.07l-.51,3.01c-.76,1.27-.51,2.84-.56,4.28l-.43-1.71-1.07,1.5c.22-1.03.78-1.94.98-2.99.04-.22.28-.7-.12-.65l-1.08,3.64c-.36.01-.47.11-.42-.31.09-.7.61-1.52.63-2.26l-.53.43-1.19,4.28c-.43.04-.08-.52-.26-.81-.08-.12-.51-.14-.55-.35-.18-1.03,1.4-2.95,1.88-3.88-.91-.17-1.14,1.42-1.82,1.82-.15-.7,1.05-2.48,1.52-2.98.42-.46,1.47-.77,1.69-1.1.2-.3.1-.91.54-1.17-.78-.17-.87.89-1.71.97.07-.19.57-1.76.57-1.86.03-.67-.33-1.05-.8-.41-.42.57-.13,1.57-.2,2.26.14,0,.29.01.43,0M288.41,48.02l-.42.1c.91.79.7,2.93,2.14,2.89l-1.72-3ZM323.36,48.44c-.09-.38-.38-.42-.72-.42-1.46.03-3.68.13-4.85.96-.53.38-.16.86-1.07.62l-.43.98,1.18-.63c.31-.62,1.31-1.37,1.98-1.48.49-.08.85.21,1.23.18.85-.05,1.76-.39,2.68-.22M284.13,49.52c-.44-.11-.63-.98-1.07-.32l.64,1.28-.43.11-1.07-1.5c.23.76.78,2.04,1.61,2.14.07,0,.58-1.11.54-1.28l.64.64c.14-.72-.25-1.08-.75-1.5l-.11.43ZM320.14,48.88c-.71-.06-1.4.55-1.9,1-.1.09-.88.76-.67.93,1.19.17,1.72-.83,2.78-1.07h-1.07s.85-.85.85-.85ZM282.84,51.66c-.09-1.4-.65-2-1.93-2.36l.21,1.28h-.86s.67,1.48.67,1.48c.69-.18,1.06-.13,1.37-.84l.53.43ZM351.55,49.95c.93.24,2.71-.17,3.75,0,.02-.31-.8-.4-1-.41-.94-.07-2.1.1-3.07-.01,0,.14.25.41.32.43M360.77,50.16c-1.07-.12-2.52,0-3.64,0-.17,0-.62-.37-.96-.21.04.29.29.37.55.42,1.37.23,3.38.08,4.81.22.08-.23-.66-.42-.75-.43M273.84,50.16c-.96-.15-2.57,3.41-2.36,3.64,1.99-.37.7-2.54,2.36-3.64M251.76,54.45c.18-1.29.71-2.7,1.5-3.75l-.1-.32c-1.45,1.41-2.37,4-3.06,5.94-.37,1.06-.7,2.17-.91,3.27l1.94-4.17.21-1.4.42.43ZM252.19,54.45c.92-.33.85-1.39,1.25-2.08.42-.72,1.06-1.25,1.32-2-1.31.99-2.51,2.33-2.57,4.07M303.64,51.02l-6.64-.64c-.05.31.38.3.6.36.89.25,1.82.17,2.62.38.55.15,1.4.93,1.8.95.42.02,1.09-.35,1.62-.19v-.85ZM314.79,52.09l.42-1.5-1.39,1.5-.43-1.07c-.17.4-.26.51-.75.43l1.19,2.36c1-.27,2.32-1.02,3.25-1.25,1.01-.25,2.3-.04,3.28-.58-2.22-.15-4.33.53-6.32,1.4-.26-.15.36-.56.46-.61,1.63-.93,3.83-1.08,5.65-1.32l-3.88-.53-.56.17-.92,1.01ZM274.48,51.02s-.67-.27-.74,0l-.76,1.93c.66.18,1.66-1.74,1.5-1.93M331.93,51.02l-.43.64-.93-.23c-.45.58-.56,1.24-1.43.87v.65s.43-.22.43-.22l-.21,1.29,1.28-.85-.43,1.71c.41-.04.28-.75.64-.97.3-.19,1.32,0,1.52.26l-.02,1.14h.73c.55-.99.98-2.04.98-3.21-.57.12-.28,1.68-.75,1.71-.63.04.25-1.53.11-1.71l-.85.43v-1.28c0,.4-.43.81-.43,1.18,0,.39.52.53.42.96l-.4-.19-.23.4c-.38-.9-.17-1.66,0-2.57M306.57,53.31l.82-1.64-3.97,1.93,3-1.07-1.43,1.25-.93.47c.1,1.05,2.26-.65,2.5-.93M270.62,51.88c-.54-.58-1.64,3.01-1.5,3.43.29,0,.48-.59.57-.82.34-.84.54-1.78.93-2.61M297.04,55.06c.38-.88.43-2.57-.47-3.18.36,1.4.39,2.64.21,4.07l.64-.75-.39-.14ZM298.86,52.37c-.13-.13-.67-.45-.8-.17.82.76,1.3,1.58.86,2.68,1.12-.98.56.05,1.5.21-.05-.58-.76-.79-.95-1.08-.25-.39-.22-1.26-.61-1.64M302.56,53.38c-1.21-.39-1.75-1.63-3.21-1.29l1.31.94c.55-.1,2.01,1.41,1.91.35M250.04,52.74c-1.11-.15-1.23,1.74-1.5,2.42-.05.11-.82.26-.42.58.27.22.49.05.66-.3.32-.67.46-1.6.77-2.22.17-.35.54-.13.5-.48M334.08,55.3c.28-.47.66-.89.81-1.44.05-.21.25-1.14-.16-1.13l-.21.64-.33-.22c.02,2.44-1.25,3.93-3.75,3.65-.06.29.44.31.64.33,1.36.16,2.26-.38,3.11-1.41l-.11.86.64-.64c.18.83-.52.95-.76,1.49-.21.48-.13,1.09-.23,1.3-.34.72-1.21.35-1.15,1.07l1.46-.46c.06-.04.04-1.24.07-1.33.09-.28.46-.24.6-.52.39-.76.72-2.81.65-3.69-.37.09-.26.68-.54,1.06-.18.25-.38.5-.74.43M360.66,59.81c-.28-2-.79-4.44-2.14-6l.76,2.78,1.38,3.22ZM342.37,55.8c-.11-.12-1.76-1.23-1.86-1.14.35.23,1,1.61,1.12,1.68.07.05.75-.2,1.03.24.04-.3-.09-.58-.28-.79M365.8,55.52l-2.57-.64,1.22,1.03,1.57.47-.64-.53.43-.32ZM274.7,60.02c-.28-.85-.62-1.68-.77-2.57-.09-.54.37-1.46-.3-1.71.04,1.46-.05,2.43.58,3.82.14.31-.12.58.49.47M300,56.16c.05.45-.21,2.77.32,2.78l.22-.86-.54-1.92ZM365.37,60.88c0-1.1.12-2.7-.85-3.43l.85,3.43ZM272.55,63.45c.16-.81-.52-1.35-.63-2.05-.12-.76.02-1.75-.01-2.56-.01-.26.16-.8-.21-.75-.16,1-.26,1.84-.19,2.87.02.22.46,3.17,1.04,2.49M301.06,62.17c-.11-.93.26-1.76.22-2.67,0-.23-.08-.97-.43-.97.07,1.09-.77,2.82.21,3.64M337.51,62.38c.33-1.36.59-2.45.21-3.86l-.37,1.67.15,2.19ZM348.87,61.09c.96-.64-.68-2.19-1.29-2.57l1.29,2.57ZM314.78,66.45v-2.89l-.64-4.82c-.34,1.95-.24,4.1.06,6.05.07.44.16,1.48.58,1.67M311.57,67.31l.2-.94-.41-2.92-.23,2.04.44,1.81ZM287.99,64.1l-.86.21.21.62-.63.35,1.28-.11c-.14.71-.18,1.63-1.07,1.72l.4.23-.19.4c.89-.03.62-1.19,1.72-.86.25-.23-.57-2.08-1.02-2.19l.16-.38ZM288.42,69.67c.93-.7,1.59-2.44-.22-2.03l.43.53h-1.28s1.28.22,1.28.22l-.21,1.28ZM289.92,68.6l-1.07,1.61.38.14-.17.39,1.5-.43c-.02-.59-.23-.99-.86-.86l.21-.85ZM326.57,68.81c-.75-.28-1.13.61-1.62.65-.5.05-.84-.57-1.38-.44l.43.64-1.07.43,1.07-.21-.32.86,2.25-.65-.43-.64h.71s.37-.64.37-.64ZM353.8,73.1c.7-.74,1.25-1.99,1.28-3-.37.02-.24.61-.45.94-.46.71-1.13.87-.83,2.06M290.56,70.74c-.12-.12-1.11.57-1.22.69-.05.05.09.31.03.38-.25.3-.86.16-.96.64l1.71-.42-.86,1.28,1.28-.64.19.72-.83.77.86.11-.86.75c.83,0,1.31-.79,2.04,0l.1.65-.64-.43c.23.96-.42.38-.64.86l.64.64,1.07-.21-1.07,1.28c.8-.36,1.12.32,1.46.97l-.82.54h.85s-.64,1.07-.64,1.07l1.5-.64-.11.85c.93-.82.16-.86,0-1.39-.23-.75.51-2.28-1.17-1.61-.23-.6.65-.94.61-1.36-.01-.12-.86-1.73-1.04-2.14-.06-.13-.37-.15-.39-.18-.05-.12.27-.83-.25-1.56-.13-.18-.47.15-.65-.23l.21-.75h-.65s.22-.64.22-.64ZM325.29,71.17c-.93-.08-1.64.72-2.47,0l-.1.42.77.2-.13.87h.65s.1.43.1.43l.54-.34-.21-.73.53.02.33-.87ZM323.86,73.91c-.14-.25.29-.78-.93-.6l.64.85-2.14,1.07,1.71.12c.52-.27.18-1.24,1.07-.98.23-.52-.3-.38-.35-.47M323.14,75.89c-.46-.1-.92-.29-1.4-.24-.48.04-.14.77-.95.24l.31.58.76-.15-1.07,1.07c.91.12,1.07-.76,2.14-.43.31-.55-.82-.36-.43-.86.11-.13.8.63.64-.21M322.29,78.45c-.41-.78-1.4-.65-2.14-.64l.72.21.14.65c-.07.1-1.96-1.05-2.35-.32,1.21-.04,1.3.39,2.14,1.07l-1.28.11c.09.75,1.87.11,2.16-.11.33-.26-.26-.98.63-.97M294.63,80.17c-.68-.17-.25.39-.56.66l-1.79.62,1.48.03c.14.53.2,1.45.88,1.48l-.64.21.32.42.75-.42-.59.85-1.55.65,2.14.02v.92s-.42.34-.42.34c1.16.36,2.5-.1,1.93-1.5l-1.07.21.64-.53c-.41-.67-.55-1.8-1.49-2.04l.64-.53c-.28-.7-1.07-.56-.64-1.39M321.21,80.6l-1.5.22.43.32c-.69.84-1.4-.11-2.14,0,1.12,1.01,2.83,1.24,3.21-.53M320.14,82.53l-1.07-.22v.62s-1.29.03-1.29.03l1.28.42-2.57-.21c.28,1.04,1.96,0,1.93,1.07-.37,0-.76.05-1.13-.04-.4-.1-1.25-1.06-1.22-.28l1.71.76-.64.64,1.9.18.68-.71-.43-.74.64-.33-.64-.64.85-.53ZM319.07,85.75h-2.57c.29.48,1.28.57.21.96l.65.11-.86.75.64.21c-.38.57-1.17-.2-1.61-.32-.44.58.41.44.8.66.56.32.89.86,1.88.62l-.86-.64,1.07-.32-.64-.53c.93-.03,1.07-.75,1.28-1.5M297.21,85.96l-1.71.43c.45,1.04.87,1.77,1.93.75l-.64-.32.43-.85ZM298.28,88.53c-1.18-.21-.69.31-.91.57-.39.46-.81.3-.8,1.36.11.09,1.57-.6,1.28.11l-1.71,1.18,2.35-1.07c.05.79-.87.75-1.28,1.18l.85.21-1.5.75,1.27.23.02.62,1.28-.21-.86.75.43.43-1.28.96,1.39-.43-.32.64c.8-.19,1.28-.51,2.14-.21l-.21-.76-.86.12.63-.85-.43-.13.23-.95h-1.28s.84-.55.84-.55l-.2-.95-.86.43c.85-.85.85-1.44-.21-2.03l.43-.53-.55-.2.12-.66ZM316.03,89.22c-.21-.12-1.46-.11-1.46.06l1.06.12v1.05s.66,0,.66,0c.42.35-2.32.55-2.57.21.33.65,1.3.64,1.93.64v.21l-1.71.21h3.21s-.64-.75-.64-.75l1.07-.64-.42-.53.86-.64h-1.71s.32.64.32.64c-.43.09-.41-.51-.58-.6M316.5,92.61l-2.36-.21,1.07.75c-.36.5-.97.3-1.5.32l.1.42.97-.21-.64.43.43.32-.43.32h1.91c.2-.32-.02-.96.03-1.14.04-.13.7-.27.41-1M314.09,95.01c-.22-.12-.88.27-1.24.17l1.5.43-1.5.96.64.11-.41.22.2.63-2.14.43h2.14s-1.07.64-1.07.64l2.57-.21c.18-.84-.93-.18-1.29-.53l1.71-.65-.42-.32v-.43c.76.15.85-.42.85-1.07-.43-.06-.96.09-1.36,0-.16-.04-.15-.36-.19-.38M301.06,96.04c-1.2.18-1.93.94-3.21.43l1.93.86-.64.42c.63-.05.81.26,1.07.75l-.64.32.64.21c-.2.6-.96.41-1.5.43l1.07.21-.64.64,1.6-.22.11.65,1.26-.55c-.26-.56-.3-1.42-.43-1.88-.05-.17-.33-.11-.42-.46-.15-.59-.22-1.22-.2-1.83M312.43,100.97c.64-.11,1.27-.27,1.93-.22l-.19-.98c.43-.17.47-.21.41-.73h-2.14c-.03.51,1.03-.13.86.53-.1.38-1.14-.22-1.29-.1l.43.85-1.5-.21,1.49.44c.07.13-.03.34,0,.41-1.07.19-1.89.34-3,.32l3.43.32-.37.59-2.41.48,1.68.67.16.59,1.23.04c.51-.27.12-.92.15-1.16.02-.15.35-.13.4-.3.07-.23.29-1.28.23-1.33h-1.5s.03-.16,0-.22M302.78,101.39c-.73-.79-2.71-.05-3.86-.21-.05.37.49.2.75.21.54.02,1.08-.02,1.61,0l-1.5.64,1.3.1-.02,1.19,1.07-.21-1.06.92-.65.15c-.18.8,1.05.3,1.5.43l-.86.53.86.32-1.71.43,2.14-.21c.15.68-.34.3-.58.47-.13.1-.36.7-.27.81.79-.57,1.83-.64,2.78-.65-.95-.99-.5-2.85-1.69-3.74.62-.88-.38-.63-.24-1.08l.43-.11ZM312.21,104.82l.86-.43c-1.14-.08-2.3-.45-3.41-.78-.28-.08-.26-.53-.66.03.62.47,1.46.41,2.15.64.34.11.6.38,1.07.54l-1.07.75.43.32-1.71.22,1.28.43-1.07.32.61.35-.18.39h1.07c-.44.87-1.31.85-2.15.65l.22.43c-.6.42-2.07-1.03-1.93,0l1.94.33.78,1.18,1.55-.24.23-1.05h-.49c-.62-.57,1.01-.24.69-1.37-.19-.67-1.31-.05-1.49-.56l1.71-.22c.28-.55-.49-.37-.43-.53l.64-1.39c-.2-.04-.49.05-.64,0M303.64,106.76c-.97-.17-2.61.71-1.58,1.7l1.15-.2-.43.42.86.21-2.36,1.07,2.14-.43-.86.75.86.54-1.29-.11c.32.37,1.46,0,1.29.75l-1.29.64h1.71s-1.29.86-1.29.86c.13.14,1.84-.53,1.5.11l-2.14.97,2.57-.43c.4.6-1.14.39-.64.85.15.14,1.31-.07,1.07.64l-1.29.43,1.07.21-1.28.43c.67-.42,1.88.17,2.16.12.73-.14.98-1.35.2-1.51l.43-.64c-.38-.59-.93-.01-1.5-.11.27-.48.72-.78,1.29-.64-.37-.63-.28-1.35-.44-1.99-.04-.16-.36-.14-.4-.31-.17-.62-.11-1.44-.46-2.08l.43-.13v-.42s-.53.01-.53.01l-.1-1.51-1.07.21.22-.43ZM311.78,110.61l-2.57.22,1.07.21-1.5.43.64.64-1.93-.21v.64c1.4-.39,2.67-.14,4.07,0l-.64-.64.65-.11-.21-.66c.34-.17.51,0,.41-.52M311.35,112.97l-3,.42c1.06.11,2.55,1,3-.42M310.93,115.33c-.53-.01-1.05-.02-1.58.03-.27.02-1.32.12-1.42.4h2.14s-.64.43-.64.43c.11.52,1.13-.04,1.47-.03l.03-.83ZM306.85,117.47c-1.37-.29-2.35.55-3.64.64.32.59,1.41-.16,1.93,0,.2.75-1.58.5-1.71.64v.64s.64,0,.64,0l-.43-.42,1.07.21-.22-.43h1.29s-.43.85-.43.85l.86-.11c-.34.15-.36.83-.48.92-.2.16-.66-.14-.59.25,1,.18.75-.73,1.81-.22l.23-.21c0-.8.34-1.02-.54-1.4l.43-.53-1.28.21,1.07-1.07ZM310.71,119.4c-.7.05-1.25.43-1.93,0l1.28.43-1.07.64,1.51.11.2-1.18ZM307.55,122.14c-.12-.24.33-1.04.16-1.45l-1.39.85.11-.64h-1.07s.43.64.43.64h-1.07s.21-.64.21-.64l-1.29.43v.85s2.15-.43,2.15-.43c.15.94-2.07.09-1.93,1.07.95.1,1.63-.02,2.35-.64.07.52-.44.8-.85.86l.02.41c.55.32.71.62,1.48.44l-.43-.42c.61-.2,1.11-.36,1.71,0,.04-.05-.18-.96-.23-1.12-.06-.18-.34-.18-.36-.22M310.5,121.12l-.81.75.39,1.29-.44.54h.85s0-2.57,0-2.57ZM308.14,125.83l.21-2.14-3.43.65c.07.41.8.14,1.23.28.06.02.59.78.7.9-.87-.03-1.48-.05-2.14.64l2.14.11-1.07.75,1.5.11-1.07.43c-.03.96,2.23,1.43,2.69.87.21-.26-.65-2.26-.33-2.8l-.43.22ZM308.76,129.22l-2.12-.6-.21.85.86.21-1.71.97-1.72.53h1.72s-.22.43-.22.43l1.93-.21-.43.85c3.27.31,2.21-1.22,2.14-3.43l-.24.39ZM309.42,132.48l-1.73.32c-.13,1.01-.58,2.05-1.69,2.26v.42c.06.07,1.13-.92,1.73-.13.41.55.58,1.88.19,2.48l.84-.03.02-.61,1.28.21c-.12-.89-1.2-.89-.64-1.93-1.02.31-1.02-.63-1.93-.43l.33-.86,1.39.43-.64.64,1.29-.21c.21-1.13-1.1-.78-1.27-1.62.22-1.03.51.51,1.06.33l-.22-1.29ZM311.35,140.41c-1.13-.34-2.27-.55-3.43-.21l1.5.21-.43.64,1.18-.43.22.45.96-.65Z"/>
      <path class="cls-2" d="M285.7,142.06c.27.17.69-.12.58.38l-.86.33.12.86-.55.21.11-.43h-.75l-.14.87-.93.2.22-.64-.84-.03c.18-.89-.71-.37-.67-1.04l-1.07.64.41-.31-.19-.54,1.07-.22v.62s.85.04.85.04v.63s.53-.23.53-.23l.23.44.54-1.28-1.71.21c-.36-.28,2.18-.98,2.25.22.46-.33.59-.72.54-1.28.34-.09.13.27.28.36"/>
      <path class="cls-2" d="M351.87,55.95l-.59-.59-1.98-3.7c.29-.29,1.97,1.8,2.12,2.08.28.51.19,1.6.45,2.21"/>
      <path class="cls-2" d="M338.15,16.08l-1.5-6.86c.29.12.48.93.58,1.24.5,1.64.77,3.38,1.17,5.05.08.32.28.39-.25.56"/>
      <path class="cls-2" d="M330,142.34c-.19.55-.43.92-1.07.86l.43.64h-.86s.21-.86.21-.86l-.85.21.13-.66c.53-.42,1,.17,1.27.16.23-.01.36-.49.75-.35"/>
      <path class="cls-2" d="M305.78,67.95l-.59-2.08c-.52-.81-.95-1.63-.9-2.63,1,1.32,1.65,3.04,1.5,4.71"/>
    </g>
  </g>
</svg>