<?xml version="1.0" encoding="UTF-8"?>
<svg id="Capa_2" data-name="Capa 2" xmlns="http://www.w3.org/2000/svg" xmlns:xlink="http://www.w3.org/1999/xlink" viewBox="0 0 610.52 327.84">
  <defs>
    <style>
      .cls-1 {
        fill: none;
      }

      .cls-2 {
        fill: #1d1e1b;
      }

      .cls-3 {
        clip-path: url(#clippath);
      }
    </style>
    <clipPath id="clippath">
      <rect class="cls-1" width="610.52" height="327.84"/>
    </clipPath>
  </defs>
  <g id="Capa_1-2" data-name="Capa 1">
    <g class="cls-3">
      <path d="M20.84,174.53l44.33,87.49,39.21-87.49h17.84c.31,3.05-5.32,3.23-5.44,6.18l.15,88.76c1.62,1.39,5.51,2.64,5.29,4.97h-23.25c.41-2.64,3.9-3.21,5.41-5.13v-89.38l-43.08,94.53-3.61-.11L12.46,184.79v83.17c3.04,1.29,7.35,2.95,9.91,4.95.6.47,1.12.53.9,1.53H.02c-.18-1.1.7-1.54,1.44-2.07,2.52-1.81,8.97-3.06,9.4-6.27l-.02-84.7c-.2-.81-7.31-4.13-8.31-5.21-.55-.6-.37-.92-.36-1.65h18.65Z"/>
      <path d="M186.02,174.53l43.53,87.47,39.2-87.47h17.84c.41,2.57-3.88,3.4-4.91,5.09l-.53,88.09c.13,3.3,5.58,3.51,5.43,6.72h-23.25c.65-2.63,4.4-3.48,5.95-5.67v-88.84l-42.76,93.65c-.95,1.4-3.02.87-4.47.77l-45.23-89.56v82.36l10.48,5.63.34,1.66h-23.25c-.2-.97.28-1.07.9-1.53,2.33-1.77,6.87-3.47,9.58-4.89l.34-86.62-8.32-5.2-.34-1.66h19.46Z"/>
      <path d="M354.09,172.5c40.03-.52,74.14,39.3,51.15,77.05-22.11,36.29-80.76,35.51-101.62-1.57-20.87-37.09,11.91-74.98,50.47-75.48M350.84,174.67c-63.42,1.64-47.74,108.19,13.29,99.17,55.77-8.24,41.98-100.6-13.29-99.17"/>
      <path d="M494.76,190.73c-1.32,1.27-5.01-4.28-5.93-5.14-9.72-9.07-21.63-12.42-34.91-11.62-12.19.74-25.58,7.85-21.06,22.16,6.73,21.3,63.96,22.16,67.25,50.02,2.01,16.94-11.16,25.41-25.89,28.57-16.69,3.58-35.8,1.57-51.79-4.18l-4.45-14.99c1.02-.24,1.28.57,1.89,1.08,5.02,4.13,7.92,8.78,14.16,12.32,10.84,6.14,29.21,7.88,41,3.89,16.87-5.7,19.86-24.58,5.3-35.01-15.23-10.91-56.81-17.6-58.58-39.77-1.22-15.25,11.94-21.86,24.88-24.33,14.1-2.69,29.19.07,43.26,2.18l4.87,14.84Z"/>
      <path d="M558.56,174.53l42.54,93.28c1.31,2.01,6.37,3.29,8.46,5.1.56.48,1.13.51.9,1.53h-28.12c-.95-2.09,5.91-4.45,5.98-5.18l-15.96-34.28-43.47.11-14.64,32.62,8.28,5.07.34,1.66h-22.17l.33-1.66,11.49-5.7,37.13-82.32-4.61-10.22h13.52ZM529.91,233.39h42.17l-20.82-45.37-21.35,45.37Z"/>
      <path d="M155.74,174.53c1.59,1.56-5.41,4.26-5.45,5.65l.16,89.28c1.66,1.45,5.49,2.47,5.29,4.97h-23.25c.09-2.56,5.03-3.66,5.41-5.67l-.28-89.38c-1.6-1.51-4.75-2.49-5.13-4.86h23.25Z"/>
      <path class="cls-2" d="M112.14,326.55h-3.97v-23.15h3.97v23.15ZM110.59,326.55v-3.67h4.96c1.15,0,2.2-.17,3.17-.5.97-.33,1.81-.83,2.53-1.49.72-.66,1.28-1.49,1.69-2.48.41-.99.61-2.14.61-3.44s-.2-2.45-.61-3.44c-.41-.99-.97-1.82-1.69-2.48-.72-.66-1.56-1.16-2.53-1.49-.97-.33-2.03-.5-3.17-.5h-4.96v-3.67h5.06c2.36,0,4.43.48,6.22,1.44,1.79.96,3.18,2.3,4.18,4.03,1,1.73,1.5,3.76,1.5,6.1s-.5,4.37-1.5,6.1c-1,1.73-2.4,3.08-4.18,4.03-1.79.96-3.86,1.44-6.22,1.44h-5.06Z"/>
      <path class="cls-2" d="M148.41,326.55h-3.84v-23.15h3.84v23.15ZM146.99,303.4h11.67v3.44h-11.67v-3.44ZM146.99,312.46h11.01v3.37h-11.01v-3.37ZM146.99,323.11h11.67v3.44h-11.67v-3.44Z"/>
      <polygon class="cls-2" points="192.32 303.4 196.82 303.4 185.51 327.84 174.2 303.4 178.7 303.4 185.51 319.67 192.32 303.4"/>
      <path class="cls-2" d="M216.56,326.55h-3.84v-23.15h3.84v23.15ZM215.14,303.4h11.67v3.44h-11.67v-3.44ZM215.14,312.46h11.01v3.37h-11.01v-3.37ZM215.14,323.11h11.67v3.44h-11.67v-3.44Z"/>
      <polygon class="cls-2" points="248.73 303.4 248.73 323.04 257.93 323.04 257.93 326.55 244.83 326.55 244.83 303.4 248.73 303.4"/>
      <path class="cls-2" d="M272.54,310.18c.6-1.45,1.44-2.72,2.53-3.79,1.09-1.07,2.37-1.9,3.84-2.5,1.47-.6,3.05-.89,4.75-.89s3.34.3,4.79.89c1.45.6,2.73,1.43,3.82,2.5,1.09,1.07,1.93,2.33,2.53,3.79.6,1.45.89,3.05.89,4.79s-.3,3.32-.89,4.79c-.6,1.48-1.43,2.76-2.51,3.84-1.08,1.08-2.35,1.92-3.82,2.53-1.47.61-3.07.91-4.81.91s-3.32-.3-4.79-.91c-1.48-.61-2.75-1.45-3.82-2.53-1.07-1.08-1.9-2.36-2.5-3.84-.6-1.48-.89-3.08-.89-4.79s.3-3.34.89-4.79M276.79,319.22c.67,1.25,1.6,2.22,2.79,2.93,1.19.71,2.55,1.06,4.07,1.06s2.9-.35,4.08-1.06c1.18-.71,2.1-1.68,2.78-2.93.67-1.25,1.01-2.66,1.01-4.25s-.33-3-.99-4.25c-.66-1.25-1.58-2.22-2.76-2.93-1.18-.71-2.55-1.06-4.12-1.06s-2.88.35-4.07,1.06c-1.19.71-2.12,1.68-2.79,2.93-.67,1.25-1.01,2.66-1.01,4.25s.34,3,1.01,4.25"/>
      <path class="cls-2" d="M316.62,326.55h-3.9v-23.15h3.9v23.15ZM315.03,303.4h4.66c1.68,0,3.14.29,4.38.88,1.25.58,2.21,1.41,2.89,2.48.68,1.07,1.03,2.34,1.03,3.82s-.34,2.76-1.03,3.84c-.68,1.08-1.65,1.91-2.89,2.5-1.25.58-2.71.88-4.38.88h-4.66v-3.44h4.66c1.34,0,2.42-.32,3.24-.96.82-.64,1.22-1.58,1.22-2.81s-.41-2.17-1.22-2.79c-.82-.63-1.9-.94-3.24-.94h-4.66v-3.44Z"/>
      <polygon class="cls-2" points="347.77 326.55 343.73 326.55 346.91 302.24 356.4 317.95 365.92 302.24 369.09 326.55 365.06 326.55 363.44 312.46 356.4 324.4 349.35 312.46 347.77 326.55"/>
      <path class="cls-2" d="M389.96,326.55h-3.84v-23.15h3.84v23.15ZM388.54,303.4h11.67v3.44h-11.67v-3.44ZM388.54,312.46h11.01v3.37h-11.01v-3.37ZM388.54,323.11h11.67v3.44h-11.67v-3.44Z"/>
      <polygon class="cls-2" points="438.96 303.4 438.96 327.7 422.07 311 422.07 326.55 418.23 326.55 418.23 302.24 435.13 318.94 435.13 303.4 438.96 303.4"/>
      <polygon class="cls-2" points="455 303.4 471.13 303.4 471.13 307 465.02 307 465.02 326.55 461.08 326.55 461.08 307 455 307 455 303.4"/>
      <path class="cls-2" d="M490.36,321.44c.58.67,1.23,1.19,1.93,1.55.71.36,1.5.55,2.38.55,1.06,0,1.92-.29,2.58-.86.66-.57.99-1.31.99-2.22s-.21-1.55-.63-2.07c-.42-.52-1-.96-1.74-1.32-.74-.36-1.59-.72-2.56-1.07-.57-.2-1.21-.47-1.92-.81-.71-.34-1.38-.77-2.02-1.29-.64-.52-1.17-1.16-1.59-1.92-.42-.76-.63-1.68-.63-2.76,0-1.23.32-2.32.96-3.26.64-.94,1.5-1.66,2.6-2.18,1.09-.52,2.33-.78,3.72-.78s2.56.24,3.57.73c1.01.49,1.87,1.1,2.56,1.85.69.75,1.24,1.53,1.64,2.35l-3.17,1.79c-.29-.57-.65-1.11-1.09-1.6-.44-.5-.95-.89-1.54-1.19-.58-.3-1.26-.45-2.03-.45-1.08,0-1.87.25-2.38.74-.51.5-.76,1.07-.76,1.74,0,.6.18,1.13.55,1.6.36.47.93.92,1.7,1.34.77.42,1.77.85,3.01,1.29.68.24,1.37.55,2.07.93.69.37,1.33.84,1.9,1.41.57.56,1.03,1.22,1.37,1.97.34.75.51,1.63.51,2.65,0,1.08-.21,2.05-.63,2.91-.42.86-.99,1.58-1.72,2.17-.73.58-1.55,1.04-2.46,1.36-.91.32-1.87.48-2.86.48-1.37,0-2.63-.27-3.79-.81-1.16-.54-2.17-1.26-3.03-2.17-.86-.9-1.54-1.88-2.05-2.94l2.91-2.02c.51.88,1.05,1.66,1.64,2.33"/>
      <path d="M243.28,56.84c.71-.55,1.49-1.55,2.25-2.13.92-.7,1.88-1.06,2.66-1.82l-3.47,1.45-2.2,1.44c-.65.03-.15-.23.04-.39,1.59-1.32,3.71-2.17,5.41-3.35-1.44.11-2.86.99-4.13,1.64-.16.09-.68.44-.47-.04,1.49-1.35,3.46-1.6,5.17-2.31.86-.35,1.56-1.17,2.63-1.11.01-.39.11-.45-.32-.43-1.16.06-1.13.6-1.98,1.01-1.32.62-2.91.86-4.21,1.56-.3-.15.28-.41.38-.47,1.25-.74,2.8-1.17,4.21-1.46.05-.38-.48-.21-.72-.19-.44.04-1.57.52-1.84-.02l8.76-1.93c.05-.39-.46-.18-.69-.15-1,.13-1.95.52-3.03.4-1.46.11-2.79.83-4.18,1.16-.22.05-.7.28-.65-.12,2.97-1.36,6.17-1.66,9.4-1.93l-2.03-.21c-1.23,0-2.71.59-3.84.65-.45.02-.89.16-.75-.43l6.41-.64-.64-.42,3.63.21c.05-.32-.4-.26-.64-.32-2.34-.54-4.58-.48-6.84.32,2.54-2.18,6.41-.5,9.4-.64-.05-.37-.8-.42-1.1-.49-.99-.25-1.98-.38-3-.42l-2.3-.58c1.43.23,2.95.07,4.38.21.93.1,1.82.51,2.58.63.87.13,1.95-.03,2.87.22-.07-.41-.45-.35-.74-.44-1.91-.54-4.14-1.05-6.1-1.27l.93-.35,9.54,2.06c0-.31-.66-.42-.9-.49-.63-.18-1.29-.23-1.92-.43-.99-.31-2.24-.92-3.32-1.17-.5-.12-1.04-.03-1.55-.05l1.88-.79,5.28-.71c.34-.19-.16-.3-.29-.31-1.19-.05-2.19.48-3.34.52l.96-.64c-2.52-.04-4.84,1.2-7.26,1.71l2.57-1.38,3.62-1.18c-1.76-.02-4.14.49-5.76,1.18-1.13.48-1.72,1.57-3,1.6,1.88-2,4.19-2.62,6.84-2.99l-.31-.37c-1.12.41-2.42.51-3.53.91-1.41.51-2.45,1.58-3.85,2.02.67-.59,1.7-1.96,2.36-2.44.65-.47,1.46-.57,1.91-1.19-.66.06-1.66.5-2.19.86-.2.13-2.13,2.2-2.2,2.35-.1.22.02.42.1.62-2.02.75.27-1.11.12-1.91-1.13.7-1.93,2.27-3.31,2.35,1.75-1.98,4.22-3.07,6.2-4.7-3,.85-5.09,2.69-6.95,5.13l.11-1.07c-.6.66-.9,1.18-1.7.32,1.68-1.34,2.89-3.52,5.12-3.96.02-.35.1-.48-.32-.43-.35.05-2.79,1.51-3.11,1.81-.69.64-1.49,2.11-2.23,2.91-.42.45-1.13.89-1.51,1.48l-.32-.1c1.67-1.95,2.72-4.59,5.34-5.45.05-.39-.45-.19-.65-.11-.78.28-2.04,1.05-2.66,1.62-1.03.94-1.69,2.58-2.59,3.39-1.13,1.02-1.18.03-1.25.04l-.54.09c.72-.73,1.05-2.15,1.62-2.86.33-.42,1.43-.93,1.58-1.09.12-.14.04-.57-.32-.42-.15.06-1.33,1.08-1.52,1.28-.19.19-.77.94-1.06,1.28-.66.77-2.23,3.32-2.98,3.64-1.13.48.88-1.51.96-1.61,1-1.26,1.8-2.73,3-3.84-.54-.35-.95.71-1.28,1.07-.4.44-1.08.55-1.07,1.39l-.63-.42-2.25,3.2c-.32-.17.05-.51.15-.7.45-.81.88-1.66,1.45-2.4-.71-.43-1,1.42-1.39,1.6l-.32-.42-1.28,2.46c-.41.3-.17-.39-.11-.54.24-.65.89-1.26.86-1.92-.87,1.13-1.71,2.28-2.57,3.42-.16.21.07.57-.53.43.51-.85.97-2.07,1.53-2.85.5-.7,1.24-1.2,1.78-1.85.14-.17.56-.43.21-.64-2.45,1.66-3.53,4.26-5.34,6.41l.78-2.21,2.1-2.71c-1.89,1.19-2.81,2.86-4.17,4.49-.33-.55.96-.9.43-1.5l-2.24,1.5,2.21-2.92,2.06-1.46-1.07.32c-.03-.19-.03-.28.1-.43.13-.16,2.29-1.4,2.67-1.6,1.4-.74,2.89-1.18,4.28-1.92l-4.26,1.3-.22-.22,3.37-1.33,4.75-.92h-3.74c-.19,0-.78.4-1.18.21-.29-.21,1.43-.64,1.6-.64h5.66v-.21c-.43.02-1.3-.43-1.6-.43h-4.38l2.25-.42c2.64-.06,5.17.71,7.8.85-.63-.7-2.13-.5-3.04-.7-1.07-.23-2.05-.74-3.16-.8.11-.45.28-.32.59-.29,2.13.17,4.67,1.27,6.88,1.36l-4.49-1.5c-.05-.39.46-.19.69-.15.63.08,1.23.35,1.87.37l-.32-.64,6.94,1.71c.05-.31-.38-.3-.6-.36-1.46-.42-3.13-.65-4.49-1.29-.3-.14-.59.13-.47-.48,1.73.52,3.52.83,5.29,1.23.45.1.95,0,1.39.1.69.17,1.28.88,2.08.8l-2.17-1.13-3.81-.79c-.06-.36.52-.23.75-.22,1.36.07,3.61.58,4.84,1.14,1.28.58,2.21,1.81,3.59,2.07.32-.25-2.65-2.03-2.85-2.17-.22-.15-.67-.43-.04-.39l4.39,2.35-2.21-1.74-2.92-1.03c1.32-.58,2.5.04,3.76.19.41.05,2.01.31,1.79-.4-1.29.11-2.9-.44-4.14-.41-.86.02-2.28.49-3.25.6-.42.05-.31-.05-.3-.41h1.07s-.22-.43-.22-.43c1.71-.39,3.16-.13,4.81,0,.26.02.56-.18.83-.15.35.04,1.52.93,1.42-.06-1.79-.27-3.6-.58-5.42-.4-1.49.15-2.8.83-4.41.4-.04-.32.62-.29.87-.32,1.69-.24,3.41-.51,5.12-.53l-1.56-.34-4.63.56,3.42-.96c.21-.04.47-.32.53-.32h3.1c-.43-.87-2.42-.52-3.29-.4-1.83.24-3.6,1-5.47,1.04.08-.41.45-.35.74-.44,2.04-.61,4.17-1.38,6.31-1.06,0-.22-.91-.56-1.02-.58-2-.39-5.48,1.75-7.74,1.65.07-.39.44-.36.72-.45,1.37-.46,2.86-.63,4.19-1.27l-.2-.41,1.5-.22c.06-.35-.54-.24-.76-.22-2.29.2-5.13,2.13-7.57,2.36-.12-.61.16-.35.46-.48,1.45-.65,3.39-1.1,4.93-1.71.23-.09.64-.06.59-.37-2.75.01-5.15,1.93-7.9,1.92l5.34-2.03,2.56-.33-1.93-.54c-2.32.25-4.27,2.16-6.62,2.04,1.69-1.42,4.18-2.35,6.41-2.35,0-.29-1.04-.4-1.2-.4-2.78.03-5.47,2.15-8.2,2.54l3.42-1.81,4.06-1.18c-.89.03-2.21.03-3.05.26-.56.15-1.69.69-2.46.96-1.34.46-2.67,1.35-4.1,1.35l6.57-2.72,1.98-.26c-2.33-.22-4.55.51-6.52,1.71v-.64s-4.28,1.92-4.28,1.92c-.83,0,.63-.76.7-.79l6.25-2.62c-1.8-.36-3.22.94-4.77,1.54-1.35.52-2.8.81-4.1,1.45-.39-.3-.1-.34.17-.47,1.24-.61,2.55-1.11,3.75-1.8l2.81-.71c-3.08-.23-5.77,1.93-8.66,2.77l.17-.49,5.07-2.29c-1.26.03-2.58.39-3.74.85-.81.32-1.8,1.11-2.35,1.28-.11.04-.35.06-.32-.1l1.49-1.5c-.54-.29-.85.45-1.4.72-.9.44-2.08.91-3.08.88.73-.89,2.45-.72,2.7-1.93l5.2-1.06h-2.99c.1-.47,1.01-.42,1.38-.44,2.19-.11,4.17.16,6.31.43l-3.36-1.02-2.41-.05c-.06-.29.37-.33.57-.35,2.7-.23,5.53,1.22,8.19,1.63l-3.15-1.66-2.41-.48c-.01-.37.96-.24,1.18-.21,2.36.31,4.93,2.41,7.37,2.78l-2.59-1.58-2.54-.99c0-.45.84-.17,1.07-.11,1.65.47,3.1,1.66,4.7,2.24-.66-.87-1.8-1.31-2.57-2.03-.26-.24-.34-.42.1-.32,1.53.34,4.57,3.89,6.52,4.05-.59-.66-1.34-1.61-2.03-2.13-.61-.47-2.16-1.03-2.57-1.49-.24-.27-.12-.56.21-.43.52.2,2.49,1.51,2.99,1.93.93.76,1.53,1.85,2.35,2.56.24.21.35.51.75.42.25-.23-4.02-4.66-4.91-4.49.18-.57,1.26.07,1.57.25,2.01,1.18,3.09,3.5,5.06,4.67l-1.81-2.35c-.44-.75-1.85-1.44-2.25-2.02-.22-.32-.07-.55.11-.53.46.03,3.1,3.12,3.63,3.63.33-.46-.56-.85-.75-1.18-.1-.51.41-.38.65-.22.1.07.97,1.57,1.28,1.92.56.65,1.23,1.2,1.81,1.82.22-.33-.46-1.01-.66-1.26-.52-.62-1.18-1.1-1.58-1.84-.04-.14.19-.16.32-.1,1.67.72,2.58,3.16,4.28,4.06.35-.21-.07-.47-.21-.64-.44-.53-1.05-.96-1.5-1.49-.14-.17-.56-.43-.21-.64.99,1.15,2.59,1.01,4.01,1.54,1.36.51,2.6,1.44,4,1.87-2.41-2.2-5.89-2.64-8.76-4.06l.1-.42c.54.2,1.06.56,1.6.75.2.07.7.28.65-.11l-3.83-1.3c.57-.14-.67-.71.09-.63,1.77.19,3.3.75,4.97,1.02.23.04.74.23.69-.16-1.52-1.07-3.21-1.08-4.92-1.6-1.02-.31-2.97-.88-3.85-1.28-.27-.12-.37-.38.11-.32.89.1,5.62,1.7,5.88,1.49.1-.54-.1-.38-.41-.54-.51-.26-1.05-.33-1.58-.53-.47-.17-.21-.12-.99-.3-1.17-.27-2.27-.67-3.42-.99-.06-.37.51-.23.73-.19.77.13,1.46.62,2.26.62.19-.3-1.94-.6-.96-.86l3.42,1.28c.78.02-.35-.61-.43-.64-2.5-1.23-5.55-1.04-8.23-1.49-.04-.31.55-.39.74-.39.9.01,2.28.11,3.19.2.62.06,1.2.43,1.84.4-.03-.27-1.1-.85-1.18-.85h-4.27c-.16,0-.63-.35-.96-.22v-.21s5.02,0,5.02,0c.67,0,3.48,2.28,3.95,1.92-3.07-2.91-7.12-2.87-11.11-2.56l.85-.21-.75-.21c-.33-.22.15-.27.3-.29,1.37-.25,2.49.1,3.86.08l-1.6-.85h-4.17c-.03-.5-.07-.38.32-.43,1.64-.21,3.97.05,5.61.38.22.04.75.22.7-.16-.88-.45-1.79-.3-2.64-.46-1.62-.29-2.97-.79-4.62-.4l.43-.42h-2.67s-.53-.64-.53-.64c2.15.25,4.35.29,6.52.21.26,0,.79.16.74-.21l-8.76-.65,1.6-.42c.81-.15,1.56.17,2.34.22.23.01.81.14.75-.22-1.76-.51-3.66-.44-5.4-.69-.16-.02-1.69-.43-1.23-.8.74-.06,1.53.07,2.26,0,.39-.03.66-.32.84-.33,1.6-.09,2.71.56,4.17.96l-1.92-1.07c-.06-.35.27-.21.48-.16,1.6.36,2.62,1.54,3.9,2.09.56.24-.14-.8.42-.42.34.23.42.67.69.86l1.98,1.06c-.93-1.17-2.05-2.14-3.15-3.14-.14-.13-.63-.14-.17-.49l5.34,4.92-1.82-2.67-1.7-1.72.53-.11,2.78,3.21c.34-.46-1.04-2.05-.96-2.13l.96.85.21-.43c2.04,1.58,2.77,4.13,4.49,5.98.16-.68-.7-1.34-1.05-1.94-.39-.66-.72-1.54-1.1-2.11-.3-.46-1.28-.91-1.06-1.5,1.38,1.06,1.95,2.39,2.78,3.84l-.53-2.03c.04-.22.3-.14.43,0,.66.62,1.06,3.66,1.7,4.6.4.04.21-.7.16-.91-.14-.55-1.27-3.03-1.02-3.36.67.27.6,1.24.9,1.77.33.57.91,1.05,1.27,1.72.59,1.07.82,2.36,1.56,3.35l-1.08-3.41.11-.64c1,1.71,1.35,3.67,1.93,5.55.4.05.16-.43.12-.65-.3-1.32-.77-2.65-1.18-3.95l.42-.1,1.29,4.49.42-.85,1.28,2.56-.96-2.78c1.05,1.12,1.67,3.29,2.67,4.38.36.39.99.6,1.39.96.68.63,1.27,1.38,2.03,1.92-.32-1.62-3.52-3.18-4.06-4.38-.04-.09-.05-.35.1-.32.78.45,1.51,1.61,2.46,1.6-1.09-1.21-2.81-1.78-3.63-3.21l.36.04,2.63,1.78c-.49-1.34-1.97-1.73-2.92-2.64-.29-.28-1.26-1.37-1.04-1.63.4.38.76.8,1.2,1.15.27.21.91.88,1.26.66-.58-.43-.87-1.13-1.38-1.61-.96-.91-3.03-1.69-3-2.98.72.78,1.78,1.58,2.88,1.6-2.51-1.46-4.09-4.12-6.84-5.13,1.52-.43,2.51.99,3.53,1.81.68.04-.25-.4.53-.53-1.88-1.26-4.2-1.93-5.77-3.64l5.34,2.46c-1.41-1.59-4.06-1.97-5.55-3.52l.32-.1c.94.62,2.26,1.44,3.31,1.82.2.07.7.28.65-.11-2.05-.81-3.9-2.09-5.55-3.53.19-.33.48.07.66.19,1.16.76,2.14,1.74,3.51,2.26.62.05.18-.26-.04-.39-.4-.25-.86-.35-1.25-.67-.52-.42-.99-1.03-1.5-1.49-.5-.45-1.23-.53-1.38-1.29l4.38,2.56.1-.32-5.72-4.21.06-.6c.43.63,1.59.68,1.97.91.29.18,1.04,1.85,1.77,1.55l-3.95-3.95c-1.08-.56-1.71-1.32-2.46-2.25.43-.3,1.06.31,1.07.75l.4-.03.34-.4.75,1.07.32-.42c2.52,1.28,3.36,3.36,4.49,5.77l-.95-3.32-.86-1.7c.47-.35.85.54,1.04.88.86,1.59,1.26,3.81,2.48,5.21l-1.5-4.27.11-.54c1,2.05,1.92,4.23,2.14,6.52.28.07.32-.36.32-.53-.01-.95-.43-2.25-.45-3.32,0-.32-.11-.53.34-.64-.04,2.83,1.29,5.26,1.93,7.91.38.05.21-.48.19-.72-.18-1.81-1.17-3.78-1.04-5.69.35-.49.92,3.53.99,3.81.28,1.15.82,2.09,1.1,2.96.22.69.08,1.86.48,2.62.37.06.22-.5.19-.72-.11-.75-.36-1.32-.41-2.15-.02-.28-.15-1.34.22-1.4l.65,4.06c.38.05.21-.48.19-.72-.04-.44-.52-1.57.02-1.84-.16,2.36,1.14,3.97,2.67,5.55.05-1.69-2.53-2.94-2.35-4.7l1.82,2.35c-.73-2.53-2.31-4.83-3.84-6.95-.06-.6.26-.18.43,0,.78.82,1.28,1.86,1.95,2.75.15.2.43.67.39.04-.75-1.35-1.71-2.59-2.52-3.89-.15-.24-.62-.87-.36-1.13l3.52,5.13c-.39-2.54-2.28-4.51-3.41-6.73l.1-.32,1.6,2.13c-.09-1.23-1.14-2.18-1.45-3.36-.05-.21-.22-.75.16-.7.31,1.27,1.13,2.23,1.92,3.2-.09-1.76-1.6-3.12-2.13-4.81-.04-.64.24-.16.39.04.62.82.91,1.87,1.64,2.64.22-.54-.54-1.59-.54-2.03V2.99l.64,2.35L270.63,0l.62.36-.19,7.33,1.07-5.98c.54.26.02,1.36,0,1.82-.04.82.02,1.64,0,2.45l1.06-2.56-.85,7.69,1.71-5.13c.03,2.53-1.46,4.77-1.49,7.26.35-.25.64-1.01.82-1.42.33-.72.55-1.63.91-2.29.12-.22.45-.64.4-.03-.78,2.33-2.19,4.39-1.92,6.95l.54-1.92c.11-.34,1.82-4.27,2.45-3.64-.35,1.06-1.33,1.92-1.57,3.04-.1.44.1.84.03,1.07-.26.9-.95,1.82-.95,2.8,0,.16.08.63.36.56-.1-1.17.58-2.16.97-3.2.25-.69.05-1.55.85-2.14.24,1.38-.67,2.56-1.07,3.85-.21.69-.95,2.45.1,2.35.23-1.37,1.1-3.05,1.82-4.28.16-.28-.04-.54.53-.42-.67,2.21-2.45,4.86-2.57,7.16-.02.43.04.33.43.32-.07-.82.26-1.59.54-2.35.42-1.14,1.02-2.83,1.81-3.64-.09,1.85-1.24,3.23-1.81,4.91.05,1.05-.63,1.96-.75,2.88-.06.44.06.57.27.06.38-.92.67-2.28,1.19-3.09.18-.29.25-.58.69-.49l-2.14,5.45c0,.5.03.58.26.05.31-.7.53-1.43.82-2.13.06-.15.35-.16.37-.21.11-.24-.4-.72.15-1.02.1.49.24,1.01.32,1.49-.64-.15-.77,1.36-.83,1.84-.03.24-.04.48-.02.72l.53-.64c.85.03-.17.66-.28,1.01-.39,1.23-.19,3.23-.68,4.55.73-.61.65-2,.86-2.89.08-.33-.14-.37.42-.32.37,1.78.82,4.16,1.56,5.81.1.23.29.8.58.81.19-.87-.43-1.09-.54-1.69-.11-.53-.02-1.14-.14-1.57-.47-1.59-1.29-3.12-1.66-4.75.76-.45.43,1.51,1.06,1.61-.35-1.5-.62-2.99-.85-4.49.45.09,1.25,3.54,1.47,4.2.11.33-.19.61.45.5l-1.71-7.58.37.06,1.55,5.18c.05-2.78-1.39-5.32-1.06-8.12l1.28,5.34c.38.04.23-.72.21-.96-.19-2.39-1.35-4.88-1.28-7.38l1.49,5.45c.28.35.24-.26.22-.43-.22-2.45-1.82-5.1-1.29-7.79l1.07,5.34c.05.06.28-.12.32-.21.1-.24-.64-4.22-.63-5.16,0-.45.1-1.03.19-1.48.05-.23,0-.69.32-.63-.31,1.79-.03,3.6.28,5.39.04.23.05.85.36.81-.27-3.06-.33-5.94.22-8.97.38.06.24,1.11.22,1.4-.04.73-.27,1.4-.24,2.13l.44,2.88c.09-2.64.06-5.34.65-7.9.36-.06.23.52.22.75-.06,1.08-.48,2.21-.12,3.3l1.82-6.19.12.65-.87,3.41c.82-1.17.96-2.69,1.64-3.91.26-.47,1.95-2.1,2.45-2.46.64-.46,1.67-.79,2.32-1.32l.11.53-3.85,4.17,3.53-2.35c.14-.05.15.2.1.32-.3.66-3.38,2.18-3.85,2.77-.31.38-.25.92-.46,1.26-.25.4-1.35.96-1.13,1.64,1.11-.83,2.16-2.18,3.21-2.99.2-.16.71-.63.96-.33-.84.54-1.13,1.48-1.7,2.15-1.48,1.73-3.3,2.35-4.18,5.01-.03.09-.34,1.26.11.97l1.83-3.51,3.3-2.58c-.35,1.07-1.22,1.75-2.01,2.48-1.1,1.03-1.37,1.15-2.17,2.64-.24.45-.76,1.2-.64,1.71.23-.33.8-.65.98-.96.16-.27-.01-.57.1-.74.6-.95,2.21-2.59,3.09-3.33.17-.14.43-.56.64-.21-.7,1.07-1.74,1.84-2.36,2.98-.95,1.74-.64,1.16-1.9,2.58-.63.71-1.1,1.8-1.71,2.56-.03.65.23.15.39-.04,1.24-1.5,2.52-2.98,3.71-4.51l.81-.05c-.32,3.31-3.98,5.09-5.13,8.23.19.33.49-.04.64-.21.94-1.08,1.92-2.81,2.88-3.96.31-.37.75-.69,1.08-1.06.16-.03.14.21.1.32-.41,1.32-2.84,3.12-3.41,4.49-.04.1-.06.35.1.32.89-.84,1.7-1.7,2.5-2.63.16-.19.42-.69.39-.04l-4.26,6.43.41.3c.38-.84,1.68-1.24,2.25-2.13l.1.32-3.84,6.42.1.32,2.24-2.56c-.19,1.58-2.17,2.84-2.03,4.49,3.07-4.13-.48,1.76-.52,2.47-.01.2.08,1.16.42,1.16.02-.7.2-1.38.42-2.04.1-.31.32-1.07.65-1.17l.64,3.42c.47-1.02-.36-1.78-.23-2.89.05-.39.4-.28.44-.46.05-.2-.12-4.45.43-3.7l.21,1.28v-4.06c.9-.21-.1,1.27.22,1.71.65-.34.48-1.51.65-2.19.04-.18.37-.16.41-.31.28-1.22.25-3.11.49-4.4.07-.37.09-.71.58-.58-.52,2.02-.72,4.42-.64,6.52,0,.26-.16.8.21.74l.86-8.97c.83-.1.21.35.21.54v3.21c0,.14-.59,1.08,0,1.17.65-1.97.46-4.09.65-6.09.02-.24.35-2.41.64-2.03.16.35-.21.8-.21.96v3.63c0,.25-.63,1.55,0,1.82.18-2.85.58-5.62,1.5-8.33.39-.05.19.46.16.69-.21,1.33-.86,2.76-1.01,4.12-.03.26-.17,1.34.21,1.39.4-2.32,1.12-4.31,2.14-6.41.3-.02.51-.1.41.3-.19.68-.83,1.63-1.1,2.53-.1.32-.6,1.51-.16,1.66l2.17-6.06.39-.35.21.64c.04-.81.33-1.93,1.07-2.35-.22.89-.74,1.75-.85,2.67-.14,1.1.62-.96.66-1.05.52-1.06,1.34-1.8,1.69-2.91l.11.64-1.07,2.56c.57-.51,1.03-1.11,1.48-1.73.19-.26.18-.68.34-.89.53-.69,1.58-1.46,2.24-2.07.22.59-.81,1.04-.96,1.6-.2.65,1.3-.89,1.39-.96.49-.36,1.27-1,1.89-.87.15.03.14.44.25.45.28.01,1.75-.57,2.37-.64.5-.05,1.01.26,1.57-.02.11.5-.06.34-.27.48-.31.2-.92.47-1.29.63-1.57.69-3.28,1.17-4.85,1.89,0,.37-.12.46.3.41.89-.1,1.76-.68,2.69-.63l-.64.42,1.71-.21c.34.26-3.86,1.66-4.27,1.5l.64.42-4.27,1.29c-.05.38.48.21.7.16,2.06-.45,4.39-1.1,6.25-2.09.36.28-.19.64-.48.8-1.66.93-4.52,1.35-6.26,2.51-.46.5-.11.29.24.24,1.39-.19,2.73-.69,3.93-1.41l-.1.54c-1.38.47-2.64,1.24-3.95,1.82-.74.33-1.72.2-2.25.95l4.7-1.28c-1.5,1.1-3.5,1.23-5.1,2.16-.57.33-1.83,1.18-1.63,1.79,1.7-1.93,4.15-1.47,6.2-2.56.64-.04.16.24-.04.39-1.49,1.13-3.36,1.1-4.99,1.96l.1.42c.92-.58,2.14-.63,3.1-.96.58-.2,1.12-.92,1.71-.64-1.04,1.3-2.35,1.22-3.75,1.81-1.55.66-2.36,1.37-3.63,2.36-.34.26-1.43.42-1.07,1.07,1.66-1.31,3.42-1.98,5.32-2.8.43-.19.79-.57,1.19-.73.19-.07.9-.3.86.11-2.24,1.4-5.08,1.86-6.84,3.96.41.31.89-.54,1.3-.84,1.29-.92,3.1-1.69,4.68-1.73-1.18.77-2.55,1.09-3.77,1.78-.72.4-2.69,1.5-2.53,2.39,1.34-.54,2.48-2.09,3.95-2.03-2.63,1.84-5.59,3.07-6.84,6.3.64-.61,1.27-1.21,1.94-1.81.73-.65,1.8-1.77,2.56-2.35.85-.65,2.09-.81,2.98-1.4l-1.82,1.92-3.73,2.68,2.12-.87,1.73-1.16c.16.16-1.6,2.18-.43,2.14l.75-2.56c.81,1.41-.95,3.41-.85,4.91,1.18-1.54,1.16-3.65,1.92-5.34.12-.27.38-.36.32.11-.09.69-.51,1.46-.62,2.16-.04.21-.19.99.19.94-.18-1.16,1.83-5.1,2.68-5.55.08-.04.35-.05.32.1l-.89,1.25-1.35,2.92,3.21-4.91-.43,1.71c.55-.61.87-1.4,1.39-2.02.13-.16,1.68-1.7,1.49-1.07-.54,1.06-2.03,1.79-2.03,3.1.86-1.04,1.7-2.39,2.67-3.32.27-.26.88-.93,1.29-.64-.96.79-1.91,1.89-2.65,2.91-.14.19-.99,1.12-.24,1.05,1.13-1.33,2.3-2.94,3.63-4.06.24-.2.35-.52.75-.42-.96,1.39-2.23,2.55-3.31,3.84-.14.17-.56.43-.21.64,2.14-2.12,4.23-4.36,7.27-5.12.61-.06.19.28-.03.4-.72.39-1.61.6-2.36,1.06-1.2.72-2.57,1.96-3.48,3.03l5.35-3.3c1.58-.88,3.28-.53,4.99-.93l.34.38c-2.78.32-5.91.98-8.12,2.78.37.06.67-.05,1.01-.17,3.06-1.05,5.9-2.49,9.32-2.16.52.05,2.1.28,2.06,1.05-.77.07-1.47-.18-2.23-.22-.29-.02-1.34-.15-1.4.22l2.35.43c-1.26.11-2.34-.05-3.53-.44l-1.81.44c1.29.15,2.87.04,4.15.23,2.62.41,6.36,1.63,8.75,2.79.8.39,1.46.96,2.27,1.25.07-.41-.68-.86-.97-1.06-.98-.69-2.47-1.3-3.62-1.72-.87-.32-3.52-.79-3.96-1.28-.12-.13-.05-.56.32-.42.28.11.7.66,1.17.76.4.08.76-.14,1.29-.04,1.24.23,2.74,1.39,4.05,1.63-1.19-1.62-3.28-2.03-5.13-2.35l-.11.64-1.82-1.82c-.03-.16.2-.13.31-.1,1.19.31,3.1.88,4.23,1.33.78.31,1.5.75,2.19,1.23.14.05.15-.2.1-.32-.75-1.67-6.28-2.66-7.9-3.75-.04-.4.43-.18.64-.11,1.63.54,3.22,1.24,4.91,1.61-.47-.73-1.52-.76-2.22-1.09-.51-.24-2.5-1.21-2.7-1.58-.04-.09-.05-.35.1-.32l.88.58,2-.15-3.84-1.61,4.91,1.5c-1.76-1.57-4.27-2.07-6.41-2.99-.45-.47-.12-.32.24-.24,1.35.3,2.7.67,4.03.99l-.64.42,1.6.43c-.19-.7-1.34-1.39-1.98-1.66-.54-.22-1.09-.19-1.55-.38-1.63-.65-3.12-1.43-4.91-1.61-.06-.36.51-.23.75-.22,1.24.04,2.93.59,4.11,1.02.71.25,1.49.92,2.18.81-2.45-1.48-5.28-2.51-7.99-3.51l-.02-.45c2.55.19,4.87-.16,6.62,2.14.19-.55-.73-1.15-.96-1.6.38-.3,1.07.63,1.37.98.62.74,1.13,1.77,1.73,2.55l-1.07-3.2,2.35,4.06-.93-3.13.39-.28,1.93,5.55c.4.05.16-.43.12-.65-.14-.75-.47-1.47-.54-2.24-.02-.23-.15-.8.21-.74.76,1.88,1.63,3.73,1.93,5.77.38.04.23-.72.21-.96-.06-.76-.33-1.59-.43-2.35l.33.1c.49,1.31,1.01,4.27,1.71,5.35.07.1.27.28.32.21l-1.28-4.7c1.53,1.35,1.31,3.83,2.24,5.55.04-.97-.15-1.89-.11-2.89.01-.26-.16-.79.21-.74.31.88.11,1.81.23,2.66.04.32.36.59.43,1.07.2,1.44-.32,3.17.21,4.6l.42-3.1-.21-1.07v-2.67c.26.92.56,1.93.64,2.89.11,1.36-.34,2.99-.23,4.06.03.32.28,1.08.65,1.17-.03-1.67.05-3.36.01-5.03,0-.35-.48-1.78.2-1.49l2.24,2.03c.16.03.15-.22.1-.32-.18-.4-2.44-2.49-2.98-3.21-.35-.47-.9-.97-.86-1.6l2.36,2.66,1.69.66c-1.88-1.88-3.84-3.67-5.34-5.88.23-.21.79.46.97.63,1.24,1.24,2.36,2.8,3.73,3.96.17.14.43.56.64.21l-5.34-5.88c2.03,1.24,3.65,2.98,5.16,4.77.16.19.42.69.39.04-.81-1.86-2.31-2.63-3.63-3.85-.59-.55-1.69-1.53-1.6-2.25.24.3.82.42,1.04.63.15.14-.06.35.13.53.82.76,1.87,1.47,2.68,2.26l.1-.32-5.77-5.99c.21-.35.47.07.64.21.74.62,1.39,1.52,2.13,2.14.17.14.43.56.64.21l-1.49-1.5.43-.21c-.19-.52-1.91-1.37-1.6-2.03l1.07.85c.81.32-.28-1.14-.42-1.29-.44-.46-1.8-1.27-2.04-1.81-.11-.26.06-.41.31-.31,1.48.56,3.33,2.93,4.33,4.23.27.36.38.45.27-.06-.33-1.58-4.54-4.91-5.55-6.42.85-.13,1.56.94,2.35,1.18.23-.25-2.42-3.08-2.13-3.85.39,0,.57.75.67.81.07.04.36-.18.6-.07.42.19.69.89,1.03,1.18.4.34,1.09.55,1.34.79.71.69,1.06,2.55,1.49,3.48.41.05.14-.42.11-.64-.09-.71-.31-1.41-.32-2.13l.32.21,1.82,7.27c.37.04.23-.74.22-.97-.07-1.09-.6-2.22-.33-3.3.77,1.81.71,3.85.96,5.77.23.09.43-.7.43-.75v-3.74l.44,1.81c-.14,1.79-.03,3.51-.22,5.24.6.09.39-.11.42-.53.07-.98.13-1.84.42-2.79.09-.29.02-.66.43-.74l-.42,7.05.85-5.77c.55,2.72-.71,5.4-.21,8.12l.82-4.42.46-.49c-.74,2.86-.67,5.83-.64,8.76.31-.03.37-.94.4-1.2.17-1.34.2-2.7.46-4.03.06-.31,0-.66.42-.75.17,1.98-.45,3.92-.6,5.88-.02.26.18.57.17.85-.04.83-.39,1.76-.21,2.67.29-.13.35-1.09.4-1.41.18-1.29.16-2.64.46-3.93.37-.05.22.51.22.76.02,2.66-.69,5.22-1.07,7.79l1.23-3.58c.16-.51.31-.44.26.05-.17,1.88-1.24,3.98-1.47,6.01-.03.25-.22,1.15.19,1.15.2-.9.5-2.94.96-3.64.44-.67.85,1.18.75,1.5.93-.71-.18-2.16-.23-3.1-.04-.81.44-1.84.37-2.53-.07-.69-.87-1.78-.57-2.7l.96,1.28c.37-2.08-.55-3.99-.96-5.98l.86,1.59.42,1.61c.37,0,.24-.94.22-1.18-.1-1.49-.76-2.55-1.07-3.95l.89,1.35.82,2.28-1.06-7.05.96,1.49c.34.51.46,1.11.69,1.67.13.32-.13.58.48.47-.34-1.68-.69-3.18-1.71-4.59l.42-.1c.16.66.74,1.04,1.02,1.66.38.84.29,2.08,1.12,2.62-.45-2.32-1.79-4.41-1.92-6.84l1.93,5.02.42.53c-.18-.59.26-1.33.21-1.81-.05-.44-.63-1.22-.58-1.98.06-.98.25-.36,0-1.72-.28-1.5-.51-3.02-.69-4.54.48.17.48.83.57,1.24.28,1.2.63,3.22.71,4.43.05.65-.44,1.29,0,2.02.37.05.2-.49.21-.74.1-2.79-.35-5.19-.86-7.91l.86,1.39v-3.42c.42.09.38.43.43.75.23,1.45.6,2.84.43,4.38l.42-2.13-.21,4.27,1.28-1.28c-.01,1.13-1.12,2.2-1.39,3.2-.07.26-.08,2.09.32,1.71.27-.96.74-2.07,1.24-2.93.06-.1.32-.68.47-.38-.22,1.45-1.71,3.4-1.93,4.7-.02.12-.06.35.11.32l1.71-2.14c.18.74-.83,1.52-1.22,2.2-.67,1.19-1.19,2.51-1.67,3.78l3.41-4.49c.44.59-3.45,5.52-3.84,6.52.25.36.46-.07.61-.25.57-.68.81-1.67,1.64-2.21.33.61-1.27,1.19-.86,1.92l.75-.64c.14.72-.58.84-.85,1.17-.9,1.12-1.4,2.22-2.14,3.43-.13.34.16.46.43.22.39-.35,1.09-1.88,1.28-2.46.34-.06.23.29.2.51-.22,1.37-1.62,2.69-2.12,3.87-.04.1-.06.35.1.32l.86-.85c.31.37-.44.86-.62,1.3-.34.82-.13,1.83-.77,2.55.6.59,1.18-2.22,1.07-2.56l.64.22.43-2.99.53,1.71c.05-.23.32-.86.32-.96v-3.63s.21-.62.43-.53c.02.67-.02,1.36,0,2.03,0,.26-.16.79.21.74.82-2.36.55-4.87,1.29-7.26.38.05.24,1.13.21,1.39-.12,1.04-.58,1.86-.43,3,.04.29.14.66.43.32l1.07-7.7c.37.01.45-.14.38.27-.1.6-.26,1.19-.36,1.79-.04.25.17.49.17.62,0,.06-.67.17-.4.73l.64-.42c-.2,1.11-.55,2.42-.64,3.53-.02.24-.16.8.21.74.6-2.81,1.26-5.65,1.29-8.55l.85-.21-.96,6.2c1.41-2.19,1.29-5.68,2.56-7.91.06-.1.32-.35.33-.1l-1.39,5.45,2.88-6.09c.44-.29.12.35.07.5-.39,1.07-.99,2.1-1.35,3.14-.07.21-.4.61-.11.75,1.5-2.15,1.93-4.79,4.27-6.22.3-.18.59-.01.86-.17.24-.14,2.15-2.02,2.45-1.72-.43,1.25-1.43,2.2-2.35,3.1l1.71-.22c-1.03.94-2.47,1.4-3.52,2.25-.56.46-1.62,1.49-1.5,2.13,1.18-1.26,2.68-2.21,4.15-3.12.18-.11.46-.54.66-.19-1.73,1.64-4.01,2.93-5.77,4.49-.45.4-1.58,1.49-1.39,2.03,1.12-1.13,2.87-2.77,4.37-3.32.2-.07.7-.28.65.11l-2.55,1.62c-.04.2-1.13.94-.86,1.16.24.2,2.94-1.76,3.4-2.05.18-.11.46-.54.66-.19l-7.26,5.56c.38.17.99-.38,1.34-.58,1.37-.79,2.68-1.66,4-2.52l-1.51,1.59c-.77.49-3.48,1.62-3.81,2.39-.53,1.25,1.77-.39,2-.56.67-.52.88-1.55,2.03-1.17-.57.35-1.01,1.26-1.44,1.61-.62.5-2.61,1.15-2.94,1.49-.28.3-.36,1.12-.75,1.49.12.11,2.56-1.33,2.85-1.53.53-.36,1.01-1.29,1.64-1.14-1.15,1.77-3.11,2.28-4.69,3.43-.43.32-2.03,1.73-2.15,2.13-.31,1.07,1.27-.69,1.38-.77.7-.49,2.04-1.1,2.89-1.48-.91,2.12-3.54,2.33-5,3.87-.13.13-.99,1.37-.24,1.04.59-.25,1.84-2.18,2.89-1.82l-4.49,4.17c.45-.21,1.89-.91,2.14-1.18.2-.21.22-.47.21-.74l.32.64,2.35-3.2c.35.21-.1.48-.2.66-.38.74-.9,1.4-1.3,2.12-.2.35-.21.64.22.22.41-.4.99-1.39,1.28-1.92.32-.58.43-1.37.64-1.73.12-.19.46,0,.63-.19.11-.12,1.6-2.2.54-1.93.16-.07.42-.59.85-.43l.21.64,1.5-2.13.32.42c1.48-1.29,2.02-3.29,3.85-4.27.35.21-.07.47-.21.64-.69.82-1.41,1.59-1.99,2.49l-1.21,2.42c1.89-2.31,3.23-5.11,5.77-6.84.35.21-.07.47-.21.64-.5.6-1.21,1.1-1.71,1.71-.14.17-.56.43-.21.64l1.5-1.49.21.43c.81-.52,2.3-2.68,3-2.99.09-.04.35-.05.32.1l-2.99,2.99.32.1,5.56-4.06.32.1-2.24,2.03c.95-.41,1.77-1.16,2.73-1.54,1.22-.48,3.43-.57,4.84-.72.3-.03.51-.3.44.23-.25.51-3.52,1.21-4.27,1.39-.05.37.49.2.74.21.68.03,1.36-.02,2.03,0,.06.04-.11.28-.21.32-1.44.68-4.58.23-6.2.96-.05.37.51.23.74.21.9-.07,1.56-.28,2.57-.21.25.02,1.14.08,1.18.42-2.15-.24-4.29.81-6.41.22-.74.69,2.82.86,3.1.87.37,0,.76.02,1.06-.22l.1.42c-3.21.13-5.84.93-8.76,2.14.17.51.24.33.57.25,1.9-.48,3.8-1.99,6.06-1.53-.53,1.05-.77,1.21-1.92.85l.13-.41-4.19,1.27v.64c1.18-.21,2.33-.73,3.53-.85.42-.04,1.13-.21.96.42-2.34.68-5.11.7-7.26,1.82l4.38-.75,1.81.21c-2.9.5-6.56.62-8.97,2.35,2.56-1.08,5.24-1.52,8.02-1.49l.31.43c-2.47-.13-4.92.32-7.26,1.07-.05.37.51.23.74.21,1.54-.12,3.06-.66,4.6-.75-2.04,1.03-4.44,1.02-6.62,1.61l1.82.22c.9.01,1.74-.49,2.58-.63.22-.04.79-.17.73.19-1.56.33-2.9,1.09-4.55.86l-3.35,2.13c2.02-.26,3.98-1.46,5.93-1.87.21-.04.95-.24.91.16l-7.26,2.78c-.05.4.43.16.65.12,1.28-.24,2.54-.73,3.77-1.15l.28.39c-1.71.53-3.46,1.1-5.06,1.89-.4.2-1.12.51-1.35.89,1.65-.27,3.13-1.09,4.7-1.61.21-.07.69-.29.64.11l-7.04,2.69c-.47.57-1.63,1.15-2.04,1.59-.24.25-.03.26.22.22.7-.13,1.41-1.01,2.25-1.39.98-.44,2.34-.76,3.41-.86-.63.79-1.73.48-2.56,1.07-.57.4.15.25.21.42-.29.54-2.6,1.34-3.35,1.78-.34.21-1.04.39-.92.89l2.91-1.27.4.41c.57-.47.83-1.11,1.41-1.59.71-.58,1.25-.28,1.8-.76.63-.56,1.36-2.38,2.24-2.04-.39.45-1.26,1.15-.96,1.82.94-1.01,1.81-2.12,2.75-3.13.17-.18.47-.27.68-.49.49-.53.76-1.74,1.6-1.4-.58.85-1.57,1.78-2.1,2.6-.12.18-.45.56-.15.71l4.49-4.91c.36.22-.1.47-.22.64-1.01,1.46-2.25,2.72-3.52,3.95-.03.16.22.15.32.1.81-.36,3.53-3.75,4.59-4.6.26-.21.81-.74,1.07-.42-.97,1.11-2.27,2.09-3.2,3.21-.2.24-.52.35-.42.75l5.18-4.34.58-.04c-1.24,1.35-2.75,2.38-4.13,3.56-.19.16-.7.42-.04.39,2.74-1.53,4.86-3.91,7.92-4.91.62-.05.18.25-.04.39-.77.49-1.73.61-2.42,1.21l.94-.13.24.46,5.14-2.34,2.44.41-3,.08-3.2,1.84c1.97-.5,3.58-1.35,5.66-1.49.29-.02,1.32-.18,1.39.21-.86.06-2.21.12-2.78.85l3.94-.87c.84,0,1.69.12,2.51.3.25.05.85.03.82.36h-4.7l1.63.4c1.15.05,2.42.1,3.55.29.8.14,2.23.42,2.73,1.01h-1.28c1.23.27,2.57.66,3.57,1.45.26.2.58.25.48.69l-5.23-1.93,1.38.97-.64.11.85.75c-.43.26-1-.42-1.5-.64-1.26-.56-3.96-1.71-5.24-1.82-.23-.02-.8-.16-.74.21,1.56.38,3.47.93,4.7,1.92-1.02-.07-2.2-.43-3.2-.75-1.25-.39-2.63-1.22-3.85-1.07l5.34,2.03c-.8-.36-1.68,0-2.36-.09-1.42-.18-3.07-1.25-4.47-1.51-1.28-.24-3,.14-4.36-.08l-2.05.62c3.83-.92,7.55.39,11.23,1.49.29.09.66.02.74.43-3.47-.35-6.69-2.04-10.26-1.92l6.79,2.1,1.02-.17.1.42c-.73,0-1.46.05-2.19-.05-3.01-.4-5.45-1.91-8.54-1.39-.66.11-1.48.34-2.19.49-.21.04-.59-.02-.54.3l3.93-.4,6.75,1.9c-2.84-.08-5.47-1.56-8.33-1.49l4.7,1.49c-2.27.03-4.43-1.13-6.74-.86-.32.04-.66.04-.74.43.73.06,1.53-.08,2.24,0,.84.1,2.13.3,2.97.45.75.14,2.01.22,2.48.83l-5.7-.84-2.21.2,3.68.7,1.02.58c-2.27-.31-4.44-1.1-6.77-.45-.36.1-.6-.16-.49.46l2.47-.22,1.81.43h-6.3c-.18,0-1.69.52-1.82.85,1.14.31,2.38-.15,3.5-.19.29-.01.67.21,1.08.2.22,0,2.05-.6,1.4.1l-6.43.62-1.48.76,2.07-.61.28.39-3.63,1.28c2.43-.41,4.78-1.15,7.18-1.69,1.13-.25,2.31-.59,3.45-.82.22-.04.95-.24.91.16l-14.31,3.64c-.05.4.43.16.65.12.55-.11,1.39-.69,1.7.09-1.33.41-3,.51-4.06,1.5.86-.51,1.78-.14,2.52-.35,1.06-.29,2.04-1.39,2.89-1.83.96-.5,1.81-.3,2.52-.5.5-.14,1.02-.94,1.47-.63-.14.48-1.36.64-.96,1.17,1.03-.62,1.71-1.84,3.1-1.71l-1.92,1.6c.89.5.9-.4,1.51-.84,1.79-1.3,4.65-2.11,6.82-2.25l-3.8,1.87.05.26c2.17-.84,4.15-1.98,6.43-2.55.61-.06.19.28-.03.4-1.41.76-3.28.96-4.57,2.06l4.38-1.61.11.32-3.84,1.82c2.39-.48,4.92-2.02,7.37-2.14.46-.02.59.1.06.27l-4.22,1.44c1.9-.29,3.77-.83,5.69-1.04.8-.09,2.21-.26,2.96-.25.22,0,.98.09.97.44l-7.9.86c-.05.37.49.2.74.21,2.4.1,4.43-.62,6.6-.62.19,0,1.35.14,1.41.4h-1.81s-1.82.43-1.82.43h3.1c.29,0,1.67.2,2.09.26.26.04,1.16.27,1.22.59-1.23.04-2.52-.36-3.73-.43-.25-.02-1.18-.15-1.18.22,2.75.17,5.44.93,7.9,2.14l-.1.42c-1.07-.66-2.28-1.2-3.52-1.4-.22-.04-.7-.29-.65.11,2.16.77,4.58,1.48,6.41,2.89l-1.92-.43c1.66,1.4,3.26,2.69,4.39,4.59.17.28.42.44.31.86-.67-.7-1.71-1.37-2.35-2.03-.62-.64-1.23-2.26-2.14-2.14.56.65,1.22,1.46,1.67,2.18.11.18.46.55.15.71-1.94-2.22-3.46-4.65-6.2-5.98-.66-.03-.15.23.04.39,2,1.72,3.79,2.97,4.98,5.49.03.66-.23.15-.39-.04-.55-.64-.99-1.44-1.64-1.99-.38-.33-1.54-.99-2.03-1.07l.42-.53-2.46-2.46c-1.13.92.93,1.25,1.17,1.81l-.43.21c.3.8,2.99,2.03,2.67,3.31-1.03-1.3-2.48-2.25-3.52-3.53-.87-1.06-1.07-2.67-2.57-2.56,1.47,1.48,2.67,3.28,3.85,5.02-.78.02-.89-.93-1.28-1.39-.32-.37-2.08-2.23-2.35-2.03l.32.85-3-2.56-.32.32c.95.94,1.91,1.85,2.9,2.76.04.04,1.12.89.41.77-2.21-.83-3.11-4.34-5.66-4.38.59.52,1.36.98,1.94,1.49.86.77,1.66,1.75,2.45,2.68.14.17.56.43.21.64-2.04-1.28-3.3-3.64-5.46-4.79-1.17-.62-2.53-.69-3.83-.76.51,1.02,1.52.4,2.3.56.94.19,3.97,2.63,4.56,3.38.21.27,0,.84.4,1.18-.39.37-2.72-2.26-3.1-2.56-.27-.22-2.21-1.7-2.35-1.71-.1,0-.4.22-.11.53,1.26,1.36,3.54,2.08,4.28,3.95l-4.98-3.89c-.59-.23-1.14-.68-1.77-.8-.21-.04-.58-.13-.52.2,2.22.93,4.35,2.49,5.98,4.27l-5.06-3.38c-.61-.26-1.24-.76-1.9-.89-.21-.04-.58-.13-.52.2,1.71.83,3.59,1.56,4.91,2.99-2-.68-3.69-2.26-5.62-3.04-.2-.08-.82-.4-.79.04,1.14.66,3.3,1.46,4.17,2.35.35.36-.44.05-.32.43l.65.32c-.06.42,1.38,1.11,1.06,1.39-.27.24-2.11-1.85-2.61-1.92-.35-.63-2.22-2-2.83-2.14-.51-.12-.22.23-.11.43l-1.07.21c1.48.29,3.2.81,4.06,2.14l-5.47-2.11-1.79.19,2.89.42,2.87,1.5c-.93.17-1.55-.55-2.29-.81-2.3-.81-5.19-1.22-7.54-.47,0,.53.63,0,.75,0h4.06c.88,0,3.43,1.26,4.17,1.92-1.59-.32-2.99-1.24-4.62-1.47-.22-.03-.98-.2-.94.19.83.08,1.59.45,2.35.76.15.06.66.09.32.32-1,.13-2.07-.73-2.79-.85-1.13-.18-2.75-.07-3.94-.22l2.46.76c.69.61,1.56.67,2.46.74-.11.54-1.26.25-1.76.16-2.08-.39-3.95-1.43-6.14-.37-.05.4.43.17.65.12.51-.11.64-.33,1.31-.29.91.05,1.85.55,2.68.75.51.13,1.53-.1,1.76.48-2.63.24-4.83-.97-7.48-.42-.04.31.56.38.77.41.96.1,1.93-.13,2.87.24-.47,1.17-1.42.27-2.2.42-.15.03-.15.36-.32.41-2.1.63-2.84.67-4.77,2.03-.25.18-.52,0-.4.55l2.34-.87-.2-.41,4.06-1.18-.43.75c.4.3,3.34-1.13,3.95-1.28.65-.16-.22.61.42.42,1.21-.34,2.06-.75,3.43-.85.29-.02,1.32-.18,1.39.21-1.29.22-2.65.52-3.89.92-.63.21-1.66.49-2.09,1.01,3.36-.84,6.76-1.7,10.26-1.71v.64s-1.38-.22-1.38-.22l-4.82.85h1.07c-.59.99,1.02.04,1.38,0,1.9-.25,4.35.21,6.32.01.02.14-.28.43-.32.43h-5.13l-1.6.43c1.38.05,2.78-.06,4.16,0,1.6.07,3.94.15,5.45.53.18.05,2.86.95,2.35,1.39-2.19-.29-4.41-.32-6.6-.56-.34-.04-.69-.28-.24.24,2.59.36,5.58.29,8.08,1.11.28.09.63.15.68.49-1.84-.24-3.79-.79-5.65-.86-.51-.02-1.39-.16-1.61.43,2.71.05,5.92.18,8.33,1.39-1.46-.17-2.91-.59-4.38-.75-.77-.08-1.58-.08-2.41-.16-.24-.02-.73-.25-.68.15,2.66.84,5.49.83,8.12,1.93v.42c-.96-.37-2.03-.74-3.06-.73-.29,0-.41-.4-.36.3,2.23.17,4.43,1.33,6.2,2.67-.99.02-1.82-.95-2.77-1.29-.2-.07-.69-.28-.65.11.92,0,.94.81,1.21,1.08.78.76,2.9,1.31,3.6,2.56.19.55-.28.11-.43,0-.75-.52-1.46-1.13-2.22-1.63-.18-.12-.47-.53-.66-.19.73,1.35,4.19,3.35,4.7,4.49.04.09.05.35-.1.32-.94-.99-2.05-1.81-3.1-2.67-.17-.14-.42-.56-.64-.21l4.27,4.49c-.22.35-.47-.07-.64-.21-.5-.41-.98-.88-1.5-1.28-.17-.13-.41-.58-.64-.22,1.57,1.82,3.84,3.97,3.95,6.52-.76-1-.89-2.49-2.03-3.2-.26.99.37.79.74,1.28.7.93,1.01,3.53.96,4.7l-3.1-6.62,1.17,5.34c-.29.41-.87-2.93-.96-3.21-.47-1.51-1.38-3.06-1.61-4.7l-.42.1c.24,1.55,1.04,3.23,1.26,4.73.04.27.21,1.31-.19,1.36-1.02-2.87-1.16-6.01-2.46-8.76-.06.98.41,1.93.53,2.89.1.81.14,1.9.21,2.78.02.23.16.8-.21.74-.61-2.73-.51-5.53-1.72-8.12l-.42.1c.12,1.31.97,2.26,1.23,3.48.04.22.24.95-.16.91-.16-.54-.21-1.12-.38-1.66-.16-.52-.3-.4-.27.06.06,1.38.82,2.58.86,3.95-.61.11-.34-.16-.48-.47-.5-1.11-.7-2.78-.8-4.02-.85.3.19,2.54,0,2.78-.46.17-.85-.82-.93-1.1-.53-1.93-.45-4.25-1.43-6.16-.36-.01-.47-.11-.42.31.09.79.67,1.75.79,2.63.11.79.2,2.26.26,3.16.02.24.16.8-.21.74-.72-3.09-1.61-6.19-3.1-8.97l2.19,7.21-.16.69-3-8.33c-.4-.05-.17.43-.12.65.16.69.56,1.35.75,2.03.44,1.62.55,3.47,1.29,4.9-.73.31-.97-.8-.86-1.39l-.64.43-.86-2.25-.43.75c.24-.67-.35-1.16-.42-1.61-.19-1.26.13-2.47-.65-3.73-.4-.05-.17.43-.12.65.11.48.37.96.45,1.48.06.4-.15.77-.11,1.16.05.51.53.97.31,1.41-.92-1.12-.89-2.56-1.42-3.92-.34-.86-1.19-2.71-2.1-2.6.93,1.62,2.36,3.22,2.13,5.24-.52-.26-.37-1.15-.59-1.65-.18-.42-1.47-2.45-1.79-2.91-.27-.38-.6-.68-.93-1-.32.39.4.93.58,1.35.2.48.22,1.05.43,1.49.43.89,1.58,1.93,1.66,3.14-.4-.04-.5-.64-.69-.79-.06-.05-.29.06-.37,0-.75-.5-.96-2.39-1.71-3.33-.13-.16-2.12-1.81-2.25-1.87-.09-.04-.35-.05-.32.1,1.38,1.37,2.44,2.22,2.57,4.27.02.25.16,1.18-.22,1.18-.27-1.02-.82-2.78-1.35-3.67-.49-.81-2.01-1.66-2.6-2.53l-.42.43-.86-.65-.1.32c.28.44,1.48,1.92,1.59,2.24.1.28-.2,1.04.01,1.51-.76-.2-1.11-1.22-1.18-1.93-.95.41-1.01-.68-1.88-1.21-.51-.31-1.36-.6-1.96-.71l3.61,3.03-.1.61,1.19.84c-2.01-.07-2.97-3.54-4.82-3.84-.57-.09-.39,0-.05.27.86.65,1.63,1.45,2.31,2.29-.6-.17-1.64-.82-2.12-1.19-.46-.36-.93-1.61-1.73-1.26l1.28,1.39c-.78-.53-1.69-1-2.66-1.08-.22-.02-.82-.13-.76.22l2.56.86c-1.24-.49-2.36.03-3.51,0-.95-.01-2.7-.91-3.32,0,3.34.39,7.34-.04,10.47,1.39.27.12.36.38-.11.32-1.39-.18-2.88-1.07-4.38-.85-.73.65,2.59.87,2.82.92,2.3.46,5.08.79,6.79,2.5-1.29-.26-2.52-1.59-3.85-1.28-.25.27,3.31,1.44,3.63,1.6.99.48,1.84,1.39,2.99,1.61.03.42-.66.18-.86.11-.41-.14-2.21-.81-2.44-.96-.17-.11.13-.41-.1-.55-.7-.42-2.77-.89-3.65-1.17.2.39.86.48,1.27.76.33.23.55.63.89.82,1.43.82,3.13,1.23,4.64,2.2.41.26.5.28-.05.27l-6.53-2.67c1.22,1.11,3.03,1.39,4.53,2.09.64.3,3.25,1.52,3.6,1.8.12.1.2.48.42.59-.9.23-1.83-1.19-2.78-1.07.96.86,2.27,1.48,3.21,2.35.28.25.36.37-.11.32-1.26-.97-2.64-1.77-3.94-2.69-.45-.32-.75-.81-1.23-1.12-.33-.22-1.52-.92-1.35-.04,1.27-.11.99.73,1.47,1.18.69.65,2.44,1.5,3.33,2.24.74.62,1.48,1.24,2.03,2.03-1.12.45-1.85-1.05-2.56-1.5-.31-.2-.51-.19-.43.21l3.84,3.42c-.16.31-.52-.03-.71-.15-.6-.37-1.25-.93-1.86-1.35-.17-.12-.41-.57-.64-.22.67,1.14,1.62,2.13,2.34,3.21.26.39,1.02,2.18,1.29,2.24-.07-.24-.03-.6-.17-1-.44-1.31-1.68-2.04-1.97-3.27,1.03.62,2.69,2.99,2.57,4.16,0,.19-.3.14-.43.11.18.57.39,1.13.55,1.7.06.2.27.71-.12.65-.56-1.48-1.05-3.33-2.56-4.06-.11.65.64.66.87,1.01.11.16,1.48,3.29,1.55,3.51.11.41.4,1.64-.07,1.88.21-.59-1.85-5.07-2.35-4.49.68,1.87,2.25,4.07,2.36,6.08.02.45.16.89-.43.75.07-1.64-.68-3.68-1.71-4.91.63,2.5,1.32,4.96,1.07,7.59-.21.28-.4-.29-.42-.43-.1-.75.07-1.37-.16-2.2-.1-.38.07-.56-.49-.46l.43,3.53-.64,2.03-.22-4.91-.64,2.99c-.32.04-.38-.77-.38-.96.03-1.66.79-3.54.81-5.24l-.96,3.2-.53.64c.03-2.47,1.73-4.34,1.49-6.84-.61.48-1.08,1.78-1.38,2.57-.34.87-.7,1.84-.75,2.77-.3.06-.34-.61-.34-.78.01-2.34,2.49-4.16,2.05-6.48l-1.6,4.06c-.78.66.33-1.14-.32-1.07-.06.64-.19,1.42-.86,1.71l.48-4.54c-.09-.69.75-1.54.8-1.99.02-.18-.1-1.17-.42-1.17l-1.92,5.34c.22-1.1.19-2.85.52-3.86.23-.71,1.26-1.19,1.4-2.25.1-.82-.37-1.26-.42-2.01-.54.19.02,1.18,0,1.59-.03.42-.4.76-.42,1.18l-.42-2.13-.15,1.88-1.78,3.67c.84-2.97,2.57-5.32,1.28-8.55-.35-.06-.24.52-.22.75.08,1.27.27,1.92-.14,3.27-.12.39-.92,2.16-1.12,2.46-.28.42-.96.47-.78-.29.19-.77,1-1.82,1.14-2.5.1-.47.26-2.03.27-2.53.01-.87-.51-1.62-.65-2.45l-.22,1.6c.48,1.79-.05,4.08-1.27,5.45.26-1.43,1.01-3.18,1.05-4.63.02-.82-.46-1.59-.2-2.42-1.37,1.07-.07,3.99-1.49,5.34.14-2.19,1.27-5.23-.43-7.05l.64,3.63-.85-1.07c-.01.52.04,1.05-.03,1.58-.03.23-.08,1-.4.99-.28-2.3.92-4.95-.64-6.84l.23,1.82-.44,3.09c0-.67-.43-1.65-.4-2.26.02-.38.33-.68.39-1.07.16-1.11-.59-2.4-1.6-2.87-.82.09.18.27.24.53.14.58-.05,1.6.29,2.25.57-.23-.09-1.28,0-1.71,1.07.67.4,1.63.41,2.46.01,1.41.22,1.65-.19,3.22-.09.35.22.62-.43.52v-3.53c0-.14-.43-2.21-.51-2.67-.07-.41-.5-1.55-.88-1.7-.89-.03.32.92.32,1.17v3.42c0,.21.65.88-.21.75-.31-1.55-.38-3.43-1.39-4.7l.34,2.03-.33,1.38c-.49-.79.03-1.81-.32-2.68-.19-.48-.5-.46-.58-.59-.19-.33.01-.92-.49-1.01,0,.3-.04.61.05.91.17.57,1.04,1.22.91,1.87-.31-.4-2.71-3.13-3.1-2.77l1.5,2.13.32-.42.96,1.71-1.07-.54c.97,1.12,2.86,2.49,3.42,3.85.04.1.06.35-.1.32-.92-.97-1.85-2.28-2.78-3.21-.23-.23-.37-.5-.75-.42-.26.24,4.03,4.92,4.27,5.66.03.11.06.35-.1.32-.83-.86-1.62-2.06-2.45-2.89-.25-.25-.46-.6-.86-.53l3.85,5.44-.11.32c-.35-.32-.52-.71-.89-1.03-.15-.13-.61-.48-.5.07.77,1.24,2.02,2.44,1.92,3.96l-2.91-5.32-1.37-2.16c.7,2.48,2.39,4.42,2.94,7,.06.31.3,1.91.27,2.08-.04.18-.36.45-.54.12-.23-1.71-.32-3.86-1.6-5.13.19,1.16.83,2.2,1.01,3.37.04.23.25.94-.16.9l-1.71-4.91c-.59,1.63,1.92,4.56,1.92,5.66v4.38l-.43-2.03c-.01-.84.19-1.93-.64-2.46l.43,1.17-.64-.32c.19,1.84.67,3.48.37,5.4-.03.19-.09.64-.37.59v-3.95c0-.2-.58-.96-.43-1.39-.07-.07-.36.19-.38.34-.06.33.21,2.03.17,2.75-.05,1.04-.2,3.68-.67,4.46-.09.15-.21.35-.4.35.23-.87.39-1.77.41-2.67,0-.25.18-.79-.2-.75-.42,1.71-.48,3.7-1.61,5.13l-.21-.43c-.23.09-1.5,2.84-2.03,2.35l2.99-6.09-.1-.32c-.9.71-1.37,2.74-2.13,3.42-1.24,1.11.39-1.91.57-2.21.67-1.14,1.76-2.07,1.88-3.46l-2.99,3.52,2.56-5.55c-.55-.12-.37.15-.55.4-.69.97-1,2.2-1.91,3.02-.16.03-.14-.21-.1-.32.53-1.68,2.38-3.39,2.56-5.24l-2.88,3.85c-.16.03-.14-.2-.1-.32.36-1.19,2.51-3.85,3.24-5.09.53-.9,1.16-2,1.25-3.03.01-.17.06-.78-.22-.43-.52,2.08-1.66,4.14-3.53,5.23-.11-1.2,2.5-2.24,1.28-3.63l-2.88,2.56c.29-1.16,1.57-1.85,2.35-2.66.27-.28.41-.59.64-.87.3-.37.84-.18.64-.96l-.42-.1c.68-.56.97-1.04,1.07-1.93.03-.22.15-.8-.21-.75.06,1.15-1.26,2.99-2.04,3.83-.18.2-1.63,1.45-1.8,1.29l1.28-1.49-1.28.32c.61-.54,1.37-.88,1.89-1.53.58-.72,1.83-3.34,1.96-4.23.03-.2.15-1.2-.22-1.18,0,2.01-1.35,3.92-2.67,5.34-.19.2-1.16,1.29-1.39,1.06.91-1.74,3.16-3.14,3.34-5.26.01-.17-.04-1.17-.35-1.14-.01,1.64-1.12,3.28-2.35,4.27l1.06-2.14-.64.43c0-.1-.03-.22,0-.32.51-1.64.74-3.58,1.25-5.37l-.19-1.79c-.19.63-.13,1.34-.27,1.98-.27,1.23-.87,3.79-1.33,4.86-.23.53-.69.99-1.17,1.28.08-.59.57-.83.81-1.43.3-.75.56-2.09.58-2.84l-1.07,1.28c-.01-1.02,1.22-2.06,1.59-3.11.35-.96.45-2.29.44-3.3-.32-.44-.65,2.69-.74,3-1.03,3.42-6.34,4.25-7.32,6.36-.61,1.32-.91,3.22-1.45,4.54-7.75,19.01-16.42,36.72-16.14,58.03l1.08,10.57.67-1.88.6-.04c.24.38-1.29,3.33,0,3.63-.05-.73,2.14-4.36,2.78-3.84-.72,1.42-1.77,2.69-2.14,4.27.49.15.49-.1.68-.24.51-.36,2.46-3.51,3.16-2.96l-2.35,3.63,4.27-2.13-2.99,2.77,2.56-.42-.85.64.76-.2.2.42c.73-.38,1.36-.78,2.24-.65l-1.49,1.06c.63-.39,1.45.34,1.6-.42.42,1.26,1.4-.38,1.71,1.29l.48-.11-.13-.28,1.89-.46.04.59.39.17,1.08-.32-.16.38.38.16c-.57.88.29.75.63,1.37l-.59.11.05.33-1.81-.43c-.69-.66,1.24-.15,1.28-.21v-.85h-.64s.22.42.22.42l-1.09.1.02.54c-.45.25-1.85-.31-1.71.43h-.42c.29-.52.11-.83-.42-1.06l-.56.84-1.04-.42c-.26.85-.77.54-.32-.2-1.24.6-1.77.76-2.99,0-.03.03.37.9-.11.85-.42-.04-.29-1.26-.96-1.06l.43,1.17-1.07.54.37-.96-.49-.53-.21,1.07-.54-.85-.74.39-.54-.82c-.34-.05-.12.36-.48.5-.3.11-.52-.03-.8-.08l.64-.64c-.4.17-.98.11-1.33.23-.4.13-1.64.57-2.18.61-.69.05-1.78-.85-2.58-.2l.11-.85c-.44-.14-.55.39-.85.51-.61.24-1.93.07-1.61,1.2l-.96-.43c.22-.78.87-.26,1.28-.75l-.31-.53c-.47.77-1.15-.27-.97.85l-.34-.44-.85.21-.2-.41h-.54s.21.64.21.64c-.4.12-.52-.34-.78-.39-.23-.04-1.08.44-1.51.31l-.8,1.14c-.86-.8.25-.39.1-1.07-.98.15-1.61-.22-2.35.64l-.1-.64-.63.23-.23-.45-.85.44-.32-.44c-.06.53-.3.74-.86.64l.64-.85-1.6-.65c-.36.73.66.66.96.97l-1.06.31-.33-.85-.53.32.43.53-2.67-.86.1.64-.53-.43c-.54.67-1.14.24-1.68.3-1.14.11-1.27.67-2.07-.5.67-.18.6-.86,1.47-.67l.03-.83.66.12.2-.54.96.64-.11-.64c1.26.35,2.42.95,3.63.11l-1.49-.96c1.24-.59,3.01,1.72,3.53.21l-2.04-2.56c.24-.22,2.4,1.87,2.75,2.11.16.11.14.4.67.24.46-.46-1.97-3.23-1.92-4.06l1.7,1.4c.42.87,1.11,1.87,2.15,2.01l-1.71-4.7c.2.1.58.52.7.7.34.48,1.09,1.61,1.31,2.1.08.18.57,2.9,1.19,2.33-.38-.52.15-1,.12-1.38-.01-.16-.28-.39-.31-.66-.09-.81-.32-1.61-.24-2.44.6-.1.36.13.48.47.14.38.18.81.32,1.2.12.34-.11.57.48.47.22-2.23.27-4.49.43-6.73,1.8-25.77-9.49-41.38-16.52-64.48-.66-2.17-.68-4.86-2.4-6.36-.48-.42-1.14-.63-1.58-.98-1.06-.85-2.13-2.32-2.79-3.51l-.21,1.49c-.89-1.55-.33-3.21-.97-4.7-.53,2.53.48,4.9,1.17,7.26-1.26-1.31-1.48-3.8-1.92-5.55-.35-.06-.24.53-.22.75.07.83.14,2,.22,2.75.09.73.93,1.85.64,2.9-.3-.1-.63-.79-.74-1.07-.35-.87-.55-2.06-.75-2.99-.37.11-.26,1.33-.22,1.61.33,2.24,1.95,3.66,2.78,5.65-.58.13-.36-.18-.53-.42-.57-.86-.97-1.83-1.72-2.56-.21.53.52.95.7,1.44.07.19.21.75-.16.7l-2.14-4.48c-.36-.04-.24.75-.22.97.11,1.45.62.99.92,1.64.18.38.1.84.28,1.22.62,1.27,1.78,2.27,2.22,3.65l-2.95-3.77-1.31-3.06c-.11,1.16.04,2.25.76,3.19.62.81.85,1.18,1.41,2.01.82,1.2,1.86,1.9,2.09,3.46.05.63-.24.16-.39-.04-1.24-1.65-2.17-3.51-3.34-5.2l.77,2.86,3.18,3.87-.1.32-2.76-2.58-2.68-4.04c.07,1.16,1.15,2.19,1.68,3.13.22.38.28.83.5,1.21.44.76,1.64,2.22,1.88,2.82.04.1.06.35-.1.32l-2.12-2.36-1.83-3.4c.19,2.75,2.59,4.37,3.21,6.94-.41.48-.34-.01-.45-.2-.78-1.26-.89-1.24-1.8-2.25-.1-.12-.92-1.8-.95-.97.98,1.89,2.46,3.54,3.25,5.52.08.21.34.65.06.79l-3.74-6.19c.8,2.93,2.53,5.61,4.06,8.23l-.71-.14-1.42-1.46,1.18,3.42-1.04-1.31-2.06-3.82c.2,2.74,2.59,4.78,2.99,7.48l-2.35-4.27,2.35,6.95c-.6.38-.8-.81-1.07-1.23-.09-.14-.34-.17-.42-.31-.81-1.46-1.16-3.1-1.29-4.76-.36-.06-.23.52-.22.75.05,1,.4,2.08.43,3.09-.91-.38-.72-3.9-.85-4.06-1.01,0-.44,1.09-.42,1.81,0,.23.13.81-.22.75-.78-2.26.29-4.34.21-6.62l-.66,2.86-.41.45c.6-2.37.27-4.77.64-7.16-.33.11-.42.98-.5,1.32-.37,1.65-.51,2.88-.57,4.56,0,.26.16.79-.21.74.15-.62-.22-1.27-.22-1.82.02-1.41.49-4.12.97-5.45.44-1.2,1.44-2.26,1.17-3.63l-.21,1.28-.42-.42-2.35,6.41c.19-2.92,1.68-5.56,2.35-8.33l-1.32,2.2-.82,2.92v-1.07s-.53.43-.53.43c-.16.03-.13-.2-.1-.31.55-2.19,2.78-4.36,3.41-6.52l-2.02,1.94-1.83,3.19c-.59-.22.13-1.33.32-1.71,1.09-2.2,2.78-4.06,4.6-5.66-.41-.17-1.07.51-1.38.75-.61.47-2.7,2.64-3,2.77-.25.11-.42-.06-.32-.32.24-.55,1.54-1.27,1.93-1.71,1.01-1.15,1.84-3.21,3.2-4.28-.19-.33-.48.05-.65.21-.93.89-1.4,1.68-2.56,2.57-.17.13-.41.58-.64.22.45-.7,1.34-1.24,1.82-1.81,1.43-1.69,1.12-1.86,3.21-3.2.27-.18.63-.17.53-.65l-2.03,1.07c-1.18-1.27.6-2.91,1.17-4.17l-.42-.1c.11.7-.66.9-.8,1.13-.28.45-.7,2.21-1.03,2.93-.33.74-.85,1.74-1.38,2.35-.52-1.57.12-2.9.68-4.34.08-.21.35-.65.06-.79-.47.52-1.1.72-.75,1.5l-.42-.22c-.49,1.94-1.2,3.67-.86,5.77l-.52-1.68c-.08-1.4.13-2.34.52-3.66-.33.14-1.07,1.89-1.07,2.03v3.1l-.42-1.71-.64,3.84c.3-.72-.41-.82-.45-1.16-.13-1.12.48-2.54.23-3.75-.48-.66-.44,3.04-.43,3.32.03,1.04.41,2.19.22,3.3-.26-.07-.85-1.31-.85-1.39v-3.21c0-.19.41-.77.21-1.17-.33,0-.35.74-.4.99-.19,1.11-.26,2.36-.24,3.5l-.42-2.56c-.12,2.09.13,4.14.42,6.19-.54-.23-.57-1.23-.7-1.6-.04-.11-.31-.09-.35-.27-.32-1.27-.22-2.61-.23-3.9-.23-.09-.43.7-.43.75v4.27c0,.36.57,1.5.64,2.14.05.48-.05.56-.26.05-.19-.44-.48-1.12-.58-1.56-.17-.75-.43-2.28-.43-3.01,0-1.04.46-2.05.52-3.06l-.94,1.16c.44,1.27.04,2.76.19,4.07.18,1.55,1.45,3.15,1.49,4.81-1.08-1.15-1.65-2.93-1.71-4.49h-.64c-.16,1.97,1.3,3.66,1.18,5.56-1.61-2.42-2.73-5.26-1.61-8.12-.52.28-.96.81-1.05,1.4-.51,3.21.9,4.85,2.01,7.58.06.16.58.98.01.85l-2.13-4.28-.54-3.2c.14.91-.29,2.16-.09,3.02.46,1.99,1.41,3.66,1.67,6,.04.35.23.53-.19.81-.67-1.64-1.06-3.38-1.54-5.08-.09-.32-.37-.59-.43-.85-.06-.26.09-2.34-.48-1.76.13,3.31,1.61,6.47,1.92,9.83-.32,0-.4-.64-.48-.9-.39-1.23-.4-3.01-1.44-3.8.06.59.47,1.04.59,1.65.11.53,0,1.07.1,1.61.14.71.5,1.52.58,2.21.05.42-.04.31-.41.3-1.01-1.95-.79-4.46-2.14-6.2-.31.84.32,1.48.42,2.04.1.58-.05,1.17.1,1.82.13.56,1.76,3.88,1.62,4.04l-.53-.42-1.18-2.78c-.27,1.71.63,3.17.86,4.8l-.33-.31-.74-1.93.11,4.7c-.78-1.22-.99-2.84-.96-4.27l-.21,2.13c-.31.04-.38-.56-.41-.77-.21-1.84.48-3.6.41-5.43l-.79,1.66-.28,2.39c-.32.06-.29-.61-.29-.83-.07-1.96,1.08-4.32,1.58-6.22-1.21.34-1.25,1.9-1.55,2.83-.09.27-.38.69-.37.06.37-1.56,1.27-3.85,2.12-5.15.37-.56,1.62-.81,1.29-1.8l-1.92,2.03c-.51.75-.82,1.61-1.23,2.4-.25.48-.33.41-.27-.06.28-2.25,3.13-4.27,3.85-6.41.03-.65-.23-.15-.39.04-1.12,1.35-2.04,3.09-3.03,4.56-.4.04-.19-.43-.1-.63.36-.74,1.23-2.03,1.72-2.77.36-.54,1.64-1.93,1.8-2.27.04-.09.05-.35-.1-.32l-2.78,2.78c-.32-.32.29-.89.53-1.18.82-.99,1.97-1.68,2.78-2.66-1.71.72-2.99,2.36-3.9,3.9-.15.26-.35.71-.38.05,1.12-2.92,4.09-4.2,5.98-6.41-.22-.36-.47.09-.64.22-1.02.71-2.05,1.42-2.99,2.24-.24-.25,1.29-1.77,1.71-1.71l-.43-.32,3.42-2.99c-.3-.18-.98.3-1.25.46-.47.28-.82.62-1.25.89-.31.2-.99.74-1.35.58,1.89-2.17,4.35-3.25,6.62-4.92-.17-.32-.51.05-.7.15-.43.24-2.52,1.6-2.72,1.45l.43-.64c-.1,0-.22-.03-.32,0-.64.18-1.69,1.07-2.38,1.26-.4.11-.32-.1-.3-.41,1.07-.39,2.02-1.07,3.06-1.54.85-.38,3.88-1.71,4.58-1.84.47-.09,1.1.5,1.34-.26-.61-.44-5.04.99-5.88,1.49l-.1-.42,7.26-2.57c-2.25.1-4.59.78-6.52,1.92-.15.05-.15-.22-.1-.32.65-1.24,7.21-2.5,8.76-2.68-.12-.38-1.31-.25-1.6-.21-.74.1-1.3.45-1.97.59-.21.05-.75.22-.7-.16l5.34-2.78-3.7,1.11-2.18,2.1c-1.05-.23.88-1.23.92-1.31.04-.07-.19-.37-.08-.6.16-.34.96-.57,1.19-.97-.48-.19-1.5.68-1.92,1.07-.79.72-1.21,1.9-2.35,2.03,1.35-1.61,2.83-3.64,4.91-4.27l-.92-.21c-1.59,1.57-3.27,2.33-4.61,4.2-.24.33-.16,1.03-.67.61.42-.89.92-1.75,1.59-2.48.33-.36,1.07-.39.65-.84-1.8.88-2.84,2.71-3.69,4.44-.06.12-.07.86-.48.47-.5-.48.55-1.92.89-2.42.8-1.16,1.89-2.13,2.95-3.03.03-.16-.21-.14-.32-.1-1.04.34-3.11,2.71-3.84,3.64-.61.79-1.24,2.95-2.47,2.66,1.02-1.28,2.15-2.62,2.03-4.38l-2.99,5.13,1.66-4.33.59-.7c-.56-.21-1.47,1.28-1.8,1.83-.96,1.57-1.48,3.33-1.83,5.11-.37.05-.23-.51-.21-.74.1-1.22.64-2.65,1.16-3.75.11-.23,1.5-1.93.65-1.7-.63.17-1.64,2.5-1.92,3.21-.59,1.47-.94,3.2-1.5,4.7-.54.48-.25.05-.23-.24.03-.7.1-1.4.12-2.11l-.85,1.28c-.12-.45.82-1.42.21-1.71-.62,1.43-1.06,3.09-1.88,4.42-.83,1.33-.62.29-.79.28l-.11.65c-.06.08-.28.17-.36-.2-.12-.55.09-2.23.2-2.85.04-.2.09-.64.37-.59l.21.85c.51-1.67.48-3.55,1.5-5.02l-.42-.1c-.43,1.63-1.54,3.38-2.03,4.92-.38,1.2-.13,2.66-1.18,3.41-.11-.15.75-2.97.83-3.55.04-.27.21-1.32-.19-1.37-1.01,2.35-.91,4.81-1.5,7.26-.37.05-.23-.51-.21-.74.12-1.5.42-3.03.56-4.53.03-.31-.15-.64-.12-1,.04-.41.24-.79.32-1.19.04-.22.28-.7-.12-.65-.15.63-.51,1.18-.63,1.83-.24,1.36.05,3.13-.29,4.41-.13.48-1.21,3.83-1.33,4.02-.07.1-.27.28-.32.21.08-2.19,1.58-4.08,1.28-6.3l-.22.53-.42-.43-.06,1.55-.8,3.15c-.35-1.65.36-2.98.59-4.43.04-.23.23-.74-.16-.69-.83,2.89-.77,5.93-1.93,8.76l-.19-.73c.74-2.33,1.16-4.75,1.37-7.18-1.25,2.95-2.07,6.18-2.25,9.4-.39-.07-.34-.33-.37-.62-.1-1.06.51-3.32.7-4.5.04-.22.29-.7-.11-.65-.6.85-.35,1.82-.52,2.56-.31,1.33-1.54,2.98-1.62,4.49-.19.2-.41.17-.37-.27.07-.77.05-1.59.21-2.35.2-.92.67-1.66,1.01-2.51-.49-.52-1.57,2.61-1.5,2.99-.47-.03-.14-.99-.06-1.24.6-2.15,2.29-3.5,3.28-5.38l.42.42.43-1.6-3.31,3.74-.32-.11c.56-.8,1.11-1.58,1.71-2.35.53-.68,2.55-2.69,2.77-3.21.15-.35-.29-.43-.42-.32-.03.03-.03.34-.23.51-.85.73-1.7,1.42-2.45,2.26-.3-.15.03-.53.15-.71.83-1.29,2.78-2.34,3.38-3.56l-2.56,1.49c.61-.68,1.9-2.2,2.67-2.56.09-.04.35-.05.32.1-.32.23-.3.7-.43.96M323.84,7.26c.17-.17-1.2-2.2-1.92-1.71.16.29,1.66,1.96,1.92,1.71M297.34,9.62c-1.49.14-2.79.62-3.63,1.92.7-.29,1.27-.76,1.99-1.11.53-.26,1.38-.16,1.64-.81M326.83,13.67c.03-.78-2.67-3.71-3.1-3.63-.16.03-.46.36-.11.53l3.21,3.1ZM293.71,12.61c-.52-.07-.84.07-1.27.33-.35.21-1.53,1.49-1.93,1.91-.22.23-.51.36-.43.76l3.63-2.99ZM280.89,19.02c1.12-1.53,2.46-2.9,3.63-4.39.3-.39.79-.9.86-1.38-1.6,1.69-3.94,3.44-4.48,5.77M260.37,21.15l-2.17-3.7-.6-.57c.57,1.52,1.47,3.27,2.77,4.27M309.09,23.93c-1.19-.98-2.26-2.07-3.75-2.56l-.95.75c.8.72,1.77.46,2.62.79.78.3,1.18,1.1,2.08,1.02M326.19,28.63v-3.85c.67.32.34,1.66.45,2.43.24,1.61.92,3.18.83,4.83l.64-.64.24,1.79,1.47,1.09c-.34-1.88-2.1-3.19-2.35-5.02l1.74,2.42.39.04-2.77-5.03c.16.04.56.49.63.59.7,1.05,1.32,2.21,2.04,3.25.22.32.42.3.32-.11-.21-.89-1.42-2.18-1.87-3.05-.48-.95-.55-1.8-.89-2.57-.1-.22-.39-.78-.13-.9l1.5,1.49c.23-.39-.46-1.22-.75-1.6-.57-.73-1.45-1.47-2.03-2.25-.33.95.25,1.94.32,2.89.08,1.13-.04,2.28,0,3.42.01.26-.16.79.21.75M310.46,22.79c-.23-.25-1.08-1.69-1.36-.67l3.63,4.17-1.74-3.07c-.11-.21-.39-.28-.52-.43M317.21,23.5l-2.93-1.45-3.91-.26c.8,1.26,2.96.86,4.37,1.08.71.11,1.66.64,2.47.63M303.9,22.72c-.56-.31-1.34-.31-1.97-.3l-1.6.44,6.84,1.28c-.57-.89-2.02-.5-2.84-.9-.28-.14-.33-.46-.43-.52M322.34,25.85l-1.73-1.36-3.18-1.41.71.68,4.21,2.09ZM314.43,25.86c-.35-1.24-1.1-2.63-2.56-2.56l2.56,2.56ZM322.34,26.92c-.82-1.96-3.54-1.98-5.12-3.11l-3.64-.2c1.15.97,2.04,1.09,2.67,2.67l.53-.43.1,1.5,2.15,3.84c-.11-1.49-1.24-2.7-1.55-4.22-.04-.22-.24-.95.16-.91l2.14,5.77c.42.03.16-.65.12-.86-.22-.98-.81-1.95-1.18-2.88-.05-.62.25-.18.39.04.84,1.32,1.21,3.05,1.53,4.56.39.05.19-.46.16-.69-.09-.61-.38-1.25-.49-1.86-.04-.22-.28-.7.12-.65.32.8.55,1.65.85,2.47.12.34.66.73.33.95l-.53-.43c-.06.62.3,1.1.75,1.5.17-.42.16-1.14.09-1.59-.09-.55-1.15-1.75-.2-1.62.71,2.14.62,4.8,2.35,6.41-.81-1.8-1.32-3.67-1.71-5.56.86.74,1.17,1.93,1.28,2.99l.72-.62,1.95,1.69.1-.32-4.27-4.6c1.47.43,2.31,2.09,3.74,2.78.14.05.15-.2.1-.32-.5-1.11-4.56-3.73-5.71-4.76-.23-.21-.6-.23-.49-.69,1.96,1.16,3.53,2.44,5.55,3.53.32.18.58.15.42-.21-.07-.17-2.59-2.21-2.92-2.43-1.09-.73-2.71-1.17-3.92-1.75l.1-.42c1.23.47,2.86,1.61,4.07,1.92.41.1.31.06.21-.21-.44-1.17-4.05-1.91-5.02-2.89,1.36.08,2.89.88,4.06,1.6M308.66,24.79c-1.38-.49-2.69-.11-4.14-.24-1.35-.12-2.78-.51-4.08-.84l-1.82.22c1.67.15,3.54.38,5.18.7.38.08,1.29.18,1.45.58-2.48-.11-5.03-1.18-7.48-.85l7.57,1.28c.28-.76,1.5-.37,2.34-.46.22-.02,1.01-.09.99-.4M300.97,25.22c-1.42.65-4.16-1.29-4.7.64l5.13.22-.43.42c.52.04,1.6-.09,1.92.43-1.66.22-3.41-.4-5.02-.44-.72-.02-1.28.22-1.93.25-1.09.04-2.5-.59-3.31.83.73.03,1.01-.58,1.82-.65,1.37-.12,4.96.56,6.41.87.36.08.64-.24.53.42-.65-.07-1.08-.27-1.77-.17-.2.03-.68.46-.07.37l.98.23c-1.05.17-2.02.27-3.1.21-.58-.03-1.24-.43-1.78-.29-.61.16-.56.58-.85.71-.42.2-1.3.12-1.75.54-.44.43-.14.38.23.23,1.29-.53,2.62-1.06,4.04-.66l-3.47.8-3.15,1.77c-.03.16.21.14.32.1.76-.24,1.79-.9,2.68-1.17.68-.21,1.64-.4,2.35-.43-2.1,1.16-4.81,1.37-6.62,3.1.56-.07,1.12-.26,1.69-.34.34-.05.7-.26.24.24-1.1.69-4.65,1.66-5.13,2.78-.11.26.05.4.31.31l3.21-1.7.1.42c-1.54.59-3.59,2.07-4.81,3.2-.21.2-.94.73-.64,1.07.84-1.2,2.25-1.63,3.29-2.48.33-.27.61-1.23,1.09-.84l-.85,1.17.64.11c-.36.59-.95.29-1.42.48-1.11.47-2.4,2.03-3.07,3.04.92-.03,1.39-1,2.03-1.49.36-.28,1.36-1.18,1.45-1.23.71-.43,1.79-.51,1.5-1.94.86-.35,1.16-2.08,2.08-1.86-.28.32-1.04.89-.75,1.39,1.28-1.56,2.85-2.98,4.7-3.84l.21.64c.48-.42,1.23-1.37,1.82-1.17-1.34,1.72-3.66,2.74-4.48,4.81l5.02-4.7c.27-.09.43.05.32.32-.2.47-2.35,2.24-2.88,2.89-.14.17-.56.43-.21.64,1.51-1.49,3.04-3.04,4.92-4.06.44.34-.02.36-.17.49-.65.56-1.48.91-2.08,1.54-.03.16.22.14.32.1.61-.25,1.66-1.24,2.46-1.6.61-.28,1.87-.67,2.55-.87.2-.06.71-.27.65.12-2.24,1.08-4.81,2.34-6.91,3.67-.22.14-.66.44-.04.39l8.77-4.48c1.01.16-1.08.6-.64.85,1.7-.62,3.38-1.2,5.23-.75-.83.64-1.96.15-3,.42-.91.23-2.17,1.23-3.2,1.4.06.48,1.48.29,1.77.2.21-.06.17-.39.41-.48.63-.25,1.83-.59,2.09.28-.61-.2-1.54.07-1.92.64,1.91.03,3.48-1.18,5.34-.64-.77-1.25-2.63.29-3.21-.64.69.07,1.33-.26,2.02-.23,1.04.05,1.76.96,2.62,1.03.46.04.94-.22,1.45-.19,1.74.11,3.18.51,4.81,1.09.11-.6-.14-.35-.47-.48-2.26-.9-4.44-1.14-6.8-1.66l.1-.42c1.25.45,2.69.46,3.97.73,1.01.21,1.98.91,2.98.65l-1.27-.87-6.63-.74,1.81-.21,4.27.64c.27-.23-.4-.48-.53-.54-1.78-.67-4.29-.8-6.2-.97l-.12-.63c-.95.03-2.48.68-3.08-.22,2.78-.2,5.48-1.14,8.12.21.12-.57-.14-.37-.42-.53-.37-.22-1.36-.77-1.71-.86-1.2-.31-4.79.19-6.05.55-.18.05-.14.4-.29.43-.44.08-1.07-.31-1.57-.22-.05-.31.38-.3.6-.36,1.54-.45,3.63-.97,5.17-.71l-.22-.42,1.28-.21c-2.25-.74-4.77.66-6.91.56-.36-.02-1.08-.14-1.21-.56,1.78-.03,3.71-.54,5.45-.64.46-.03,1.16.26,1.77.16.33-.05.65-.01.26-.37-1.9-.5-3.9-.43-5.86-.19-.31.04-.51.33-.83.35-1.11.07-2.8-.69-4-.58l.22-.42ZM315.93,28.63c-1.03-1.25-1.84-2.69-3.2-3.63.36.93,1.33,2.04,2.03,2.78.18.19.94,1.07,1.18.85M317.43,29.92c-.79-1.69-1.45-3.53-2.77-4.91l1.83,4.04.94.87ZM345.21,27.57c.24.28,2.1-2.02,1.92-2.56-.32.36-2.22,2.2-1.92,2.56M289.22,26.5l-3.83,2.26-1.51,1.8c.38.35,3.44-2.41,3.95-2.78.73-.07-.47,1.04.53.85l.86-2.13ZM294.24,27.99c1.45-.08,2.93.06,4.38,0l-2.46-.45-2.88.23c-.13.89.7.23.96.21M287.51,31.63c.64-.44.64-1.43.98-2.12.22-.45,1.07-.95.94-1.73-1.1,1.11-1.65,2.32-1.92,3.85M268.28,30.34c.46-.41-1.48-1.29-1.71-1.38-1.21-.49-2.76-.76-4.06-.96l3.85,1.81,1.91.54ZM294.99,28.42c-1.45.03-2.61-.5-3.63.85l1.08-.1,2.55-.75ZM284.52,31.63c1.24-.75,2.74-1.3,2.77-2.99-.63.89-1.64,1.47-2.35,2.24-.22.23-.5.37-.42.75M315.93,29.92c-1.84-.68-3.61-.89-5.55-1.07.34.72,1.35.34,2,.45,1.01.17,1.94.55,2.9.73.22.04.7.28.65-.12M275.97,35.04c.14.02.43-.28.43-.32v-4.81c-.09-.19-.43.4-.43.53v4.59ZM366.79,29.92h-4.17s-.39.35-.32.42c.81.14,1.54-.2,2.45,0l2.04-.43ZM284.52,37.39c-.34-.96.41-1.34.59-1.87.46-1.34.6-2.66,1.39-3.96.29-.48.99-.47.8-1.22-.67.93-2.16,1.31-2.87,2.15-.52.62-.87,1.86-1.62,2.45l.42.32c-.13-.55,2.11-3.04,2.35-2.78-.28,1.08-1.65,1.83-1.87,2.93-.07.34-.25,1.6.16,1.77-.1-1.11-.02-2.5,1.28-2.77-.16.5-.7.93-.81,1.43-.06.28-.24,1.45.17,1.56M267.21,31.84l-3.42-1.07c1.06.78,2.41,3.77,3.53,4.27.09.04.35.05.32-.1l-1.28-1.6c1.3-.52,2.36.38,3.63.32-.87-.83-2.25-1.16-3.42-1.18l.64-.64ZM340.08,32.27c-.39-.37-2.01,2.04-2.27,2.33-.46.51-1.51.9-1.58,1.73l1.39-1.28.32.32,2.14-3.1ZM276.83,32.91v3.95c0,.46-.66,1.16.43,1.6-.59-1.08-.01-1.75.02-2.89.02-.47-.17-.87-.19-1.28-.02-.44.61-1.55-.26-1.39M308.56,33.76c1.42.02,2.85,0,4.27,0,.19,0,1.19.52,1.39.75-.26.37-.93-.32-1.17-.32h-3.85s-.54.23-.54.32l.54.32.1-.42c.1,0,.21,0,.32,0,4.85.57,7.54.93,11.87,3.3.45.24.94.91,1.27.65-1.36-1.55-3.49-2.02-5.13-3.21.64-.02,1.7.43,2.28.71.71.34,1.63,1.13,2.1,1.32.1.04.35.06.32-.1-2.25-2.28-5.7-2.31-8.55-3.42,1.79-.02,3.85.44,5.55,1.07.56.21,1.23.83,1.71.64-1.92-1.45-4.6-2.01-6.98-2.23-.43-.04-1.74-.17-2.06-.16-1.37.04-2.82.55-4.21.57.03.52.58.21.75.21M294.13,33.12c-.29-.27-2.52,2.2-2.78,2.56l2.04-1.48.74-1.08ZM333.67,36.75c-.14-1.23-.25-2.49-.74-3.63l-.32.94,1.06,2.69ZM272.98,37.18c-.14-1.05-1.44-.92-2.24-1.49-.65-.47-.57-1-.74-1.17-.18-.17-2.03-1.06-2.14-.97l1.18,1.49.21-.43c.94,1.29,2.2,2.15,3.74,2.56M329.82,36.54l-1.49-2.56.43,4.27c.29-.02.38-1.21.36-1.36-.04-.35-.49-.74-.36-1.2l1.07.85ZM303.32,35.04c-.56-.87-1.95-1.23-2.78-.53l2.78.53ZM312.94,39.75c.09-.4-.22-.51-.42-.75-1.17-1.4-3.23-2.87-4.87-3.68-.73-.36-1.57-.79-2.4-.7l4,2.09c.6.21,3.39,3.36,3.69,3.04M333.45,40.6c.32-1.77-.16-3.48-.7-5.17-.07-.22-.05-.65-.36-.59l1.06,5.77ZM281.32,37.4c.61-.57,1.35-1.48,1.28-2.35-.5.24-.89.71-.86,1.28l-.42-.22v1.28ZM326.56,37.99c.25-.47-1.23-2.36-1.65-2.63-1.14-.72.26.91.3.98.64,1.22.92,3.36,1.51,4.69l2.24,4.49-1.7-4.82c.03-.85.81.86.96.75.09-.89-1.15-1.6-1.64-2.42-.72-1.2-.13-.84-.01-1.05M324.48,40.6c.29-.29-1.7-1.65-1.94-1.8-2.8-1.8-6.23-3.22-9.6-3.11l3.21.97,1.49.09-.43.21c.2.67.74.17,1.28.3,1.71.41,4.27,2.59,5.98,3.33M308.24,38.89c-.9-.6-2.01-1.9-2.93-2.32-.61-.28-1.38-.11-1.98-.67-.14.56.18.37.4.55,1.26,1,3,1.27,3.69,2.64l.82-.2ZM304.39,38.46c.41-.42-2.22-2.29-2.78-2.13l2.78,2.13ZM311.87,39.96c-.07-.55-.88-1.04-1.3-1.37-.4-.31-3.2-2.43-3.4-2.26,1.14,1.48,3,2.79,4.7,3.63M299.26,38.04c-1.34-.38-2.66-1.29-4.06-1.28l1.75.92c.6.01,1.16.34,1.67.47.22.05.68.31.64-.11M268.49,37.82c-1.41.08-2.86-.45-4.19-.62-.23-.03-.78-.18-.72.19,1.13.12,1.97,1.72,2.89,2.14.09.04.35.05.32-.1l-1.39-1.39,2.57,1.92.42-.43c.89.36,1.58,1.96,2.18,2.36.22.15.64.14.9.32.6.42,1.01,1.21,1.94,1.16l-3.63-2.99c.49.23,1.07-.02,1.55.05,1.09.16,2.27.85,3.36.91-1.61-1.39-4.15-.81-5.55-2.03.16-.12,2.88.48,3.39.56.35.05.69.26.24-.24l-6.63-1.39,2.35-.42ZM299.05,39.32c-.57-.58-2.81-1.72-3.58-1.87-.73-.15-1.29.06-1.98.17l2.73.57,2.82,1.13ZM321.27,42.74c-.63-1.12-2.44-4.52-3.54-4.9-.44-.15-1.11-.19-1.59-.23.4.63,1.62,1.2,2.02,1.72.77.98,1.43,1.98,2.38,2.96.22.23.31.54.73.45M318.07,40.39c.33-.33-2.2-2.51-2.78-2.35.25.32,2.63,2.5,2.78,2.35M323.84,41.03c-.52-.59-4.82-3.22-5.13-2.99.83,1.12,2.37,3.21,3.64,3.73.32.13,1.26.33,1.7.44.22.05.68.31.64-.11l-3.84-2.14,2.99,1.06ZM294.99,38.25h-2.45l-2.03.42c.85.19,1.7-.18,2.47-.22.55-.03,1.6.5,2.02-.2M333.67,41.88c.93-.8,1.73-2.04,2.13-3.21l-1.07,1.71-.64-.43-.43,1.92ZM297.77,40.81c-.43-.52-1.82-.89-2.51-1.02-1.95-.36-4.86-.68-6.25,1.02,1.56-.35,2.93-.8,4.58-.62.9.1,1.58.7,2.69.2,0,.28-.58.47-.81.58-.98.44-1.65.61-2.61,1.24-.25.16-.55-.05-.42.53l5.34-1.93ZM302.26,39.96l-3.96,1.06-2.88,1.29c.38.02.75.02,1.12-.05.86-.17,2.76-.64,3.58-.91.67-.21,1.67-.84,2.13-1.39M309.09,40.38c-.11-.42-.31-.36-.64-.34-1.52.1-2.85,1.38-4.23,1.78-1.33.38-3.24.46-4.58.75-.74.16-1.63.41-2.34.65-.22.08-.65.05-.6.36.94.06,1.81-.47,2.69-.62.58-.1,1.22.04,1.86-.07,1.2-.21,2.16-1.04,3.58-.38v-.74s4.27-1.39,4.27-1.39ZM294.14,40.6l-1.28-.21.22.42c-1.04.24-2,0-3.04.28-.36.09-1.24.46-1.45.79,1.3.19,2.22-.63,3.54-.44.43.06.27.48.41.45.08-.02,1.15-.68,1.33-.81.19-.13.4.04.28-.47M274.05,43.16c-.54-1.29-1.55-2.2-2.99-2.35l2.99,2.35ZM306.32,41.88c.37.21,3.12-.51,2.56-1.07-.5.23-1.04.29-1.55.48-.28.1-.96.28-1.01.59M247.76,41.03c-.58-.49-2.86,2.81-2.99,3.41.57.13.47-.05.71-.26.84-.78,1.42-2.3,2.29-3.15M285.59,41.03c-.92.44-2,.88-2.35,1.92.59.18.4-.38.63-.53.24-.16,1.93,0,1.72-1.39M318.07,45.94c0-.15-.09-.46.13-.43h2.65c-.23-.6-1.23-.45-1.83-.43-.55.02-2.34.7-2.23-.2l3.85-.22c-.26-.63-1.39-.46-2.03-.42-1.02.05-2.35.55-3.27.6-.34.02-.59,0-.68-.38,1.75-.51,3.27-1.16,5.13-.65,0-.19-.19-.33-.37-.38-.61-.17-3.27-.12-4.01-.04-1.53.15-3.39.91-5.03.96-.03-.39.38-.51.68-.61,1-.31,2.38-.3,3.47-.59.56-.15,1.29-.73,1.78-.79.75-.09,2.01.44,2.84.38-1.8-1.5-4.49-.14-6.56.2-.82.13-1.74.32-2.54.43-1.02.15-2.26.18-3.3.22l2.92-.6,3.92-1.96c-.97-.14-2.01.41-2.85.88-.13.07-1.25,1.14-.99.29.05-.17,1.15-.49.33-.53-1.64.33-3.08.93-4.6,1.49l2.2.9,1.22,1.02-.64.21c3.09-.5,5.79,1.56,8.76,1.5l-5.85-1.92-.03-.43c2.37.37,4.56,1.39,6.94,1.5,0,.17-.1.42.14.43,1.05.36,1.65.03,2.64-.22.05-.37-.48-.2-.74-.21-.68-.03-1.36.03-2.03,0M365.94,41.88c.21-.26-1.64-.86-1.92-.85.39.51,1.52,1.68,2.03,1.92.09.04.35.05.32-.1l-.75-.75.32-.22ZM302.9,41.24c-.77.33-1.57.22-2.3.35-.31.05-1.23.18-1.33.5,1.13-.28,2.92.17,3.63-.85M323.62,44.02c-.6-.35-1.97-3.02-2.56-2.56.73,1.03,1.01,2.5,2.56,2.56M326.62,44.23c-.92-1.24-2.53-1.51-3.85-2.13l2.89,3.84c.02-.3-.07-1.56-.14-1.68-.1-.16-1.21-.21-1.03-.89l2.14.85ZM277.04,44.45c.27-.28-1.99-2.46-2.35-2.13.35,1.15,1.58,1.34,2.35,2.13M266.99,42.74c-1.25.16-2.76.12-3.95.43-.3.08-.67,0-.75.42.49.22,1.43,0,1.78.07.45.09,1.37.89,1.97.99.98.17,1.86-.37,2.93-.15.68.14,1.73.92,2.4,1.23l.21-.43,2.68,1.5c-.38-.23-.87-1.42-1.01-1.5-.65-.38-2.84-.31-3.69-.64-.02-.31.77-.38.99-.4.57-.06,1.12,0,1.69-.02.26,0,.79.16.74-.21-2.19-.61-4.21.14-6.41,0l2.06-.79c.42-.06,1.1.49,1.35-.28-1.81-.05-3.35.38-5.03,1.04l-.32-.4,2.35-.86ZM339.44,43.17c-1.66.59-3.32,1.42-4.49,2.77,1.04-.5,2.12-1.1,3.1-1.7.46-.29,1.09-.62,1.39-1.07M307.81,44.45c-1.35-.57-2.84-.78-4.27-.43-.04.31.58.33.81.36.98.16,2.19.36,3.17.47.42.05.31-.04.3-.41M299.26,49.15c.27.3.74.4.64.85-1.01-.38-2.02-.68-3.1-.85-.45-.07-2.3-.24-2.68-.15-.38.08-.38.22-.2.36,2.22.34,4.71.93,6.95,1.07,1.2.07,2.58.09,3.74-.21l-.75-.64c-.2.58-.81.61-1.37.63l-.23-.53.43-.21c-1.45-2.02-3.24-5.13-5.98-5.24l2.68,1.7c.43.4,2.25,3,1.81,3.43-.54.52-.89-.82-1.11-1.14-.84-1.22-2.2-3.19-3.81-3.13l2.01,1.72c.37.7.89,1.54.98,2.34-1.24-1.4-2.25-3.82-4.39-4.27-.21-.04-.58-.13-.52.2.91,0,3.99,2.67,2.99,3.42l-3.95-1.5.32.64c-.73.17-1.56-.58-2.13.11.5.32,1.51.04,1.98.16.56.14,1.01.57,1.82.75,1.21.26,2.88-.07,3.79.91.18.01.12-.29.11-.43M297.13,47.86c-1.3-1.44-2.86-2.9-4.91-2.99.38.76,1.34.89,1.99,1.32.94.61,1.71,1.59,2.92,1.67M303.96,49.36c-.36-1.96-2.21-3.66-4.06-4.27,1.5,1.28,2.72,2.42,2.99,4.49l1.07-.22ZM305.46,49.36c.18-.17-1.76-2.5-2.03-2.78-.19-.2-1.15-1.29-1.39-1.06l2.77,3.97.65-.12ZM276.4,47.44c.44-.43-2.05-1.92-2.56-1.71.11.4,2.45,1.81,2.56,1.71M313.37,46.8c0-.21-.19-.32-.37-.37-1.35-.41-3.34-.64-4.75-.69l2.35.96,3.1.75c.48-.77-.94-.18-1.17-.75l.85.11ZM292.85,46.8c-1.58.31-2.75-.84-4.27-.86.11,1.22,2.05.18,2.44,1.25l1.83-.4ZM306.8,48.66c-.2-.19-1.73-2.71-2.2-2.28,1.08.84.63,2,1.38,3.01l1.61-.24c0-.37-.53-.24-.79-.49M322.55,46.59c-.78-.3-1.6-.29-2.35.1.65.66,1.77.65,2.35-.1M258.95,49.01c.22-.2,1.96-1.43,1.63-1.79-.75.79-2.34,1.04-2.13,2.35.3-.02.32-.41.5-.56M311.02,48.51c-1.45-.05-3.01-.36-4.27-1.07l1.26,1.39,3.01-.32ZM290.21,48.38c-.31-.22-1.57-1.27-1.42-.3,1.29.13,1.59,1.54,2.56,2.14l-.42-.75.43-.21c-.53-.17-.86-.68-1.15-.88M294.99,56.84c-.35,1-.88,1.25-1.71,1.92.8-2.1,1.07-4.02.85-6.3-.07-.76-.16-1.41-1.06-1.39-.23.76.58,1.73.63,2.25.05.55-.43,1.54-.21,2.23l-.35-2.3-.71-1.76c-.22,1.24.37,2.56.21,3.74-.05.38.08.35-.43.32.07-2.34-.82-4.63-2.56-6.2.17.98,1.11,1.62,1.5,2.45.5,1.04.45,2.2.41,3.32-1.09-1.19-1.25-2.43-2.88-3.2l.75,2.25-.42.1c-.02-.59-.32-1.15-.59-1.66-.2-.35-.56-.4-.68-.65-.33-.68.12-1.57-.21-2.51-.17-.48-.67-.86-.65-1.45l-.64-.14c-.11.08,1.18,1.97,1.21,2.48.13,1.86.11,4.93-.2,6.76-.1.59-.5,1.18-.57,1.78-.24,2.18.91,3.83,1.58,5.65,4.57,12.25,10.35,23.77,14.43,36.21.64,1.95,1.08,4.2,1.82,6.09.15.37.23,1.01.74.86,2.11-6.36,3.99-12.81,6.53-19.01,2.69-6.57,5.79-13.01,8.75-19.45,1.02-2.21,3.32-5.63,3.33-8.01.01-2.26-1.74-4.96-.43-7.46l-.45-.23.65-1.39c-.61-.06-.54.63-.96,1.08-.12.12-.35.17-.52.22l.2.51-.43-.11c-.17.67.58.88.65,1.4.09.63-.42,1.89-.76,2.45-.16.28.04.54-.53.42.18-.92.15-2.23,1.07-2.67l-.64-.75c-.64,1.75-1.92,3.07-1.71,5.13-.6.13-.46-.3-.43-.75.1-1.89.78-2.63,1.56-4,.3-.52.56-1.3.8-1.87-.81.41-1.12,1.3-1.28,2.14l-.42-.42c-.76,1.82-.6,3.9-1.82,5.55l1.08-5.11-.22-.22c-1.01,2.04-1.21,4.37-1.4,6.62l-.41-1.8.73-3.76c-.68.96-.75,2.43-1.07,3.63-.16.58-.34,1.25-.53,1.82-.09.28,0,.67-.43.74.08-1.78.7-3.73.85-5.45.02-.23.16-.8-.21-.74-.1.68-.64,1.25-.77,1.92-.11.54-.37,2.06-.42,2.56-.11,1.28.43,2.91-.1,4.28-.37.05-.2-.48-.21-.74-.08-2-.42-3.9.1-5.89.23-.89.85-1.8,1.11-2.74.1-.37.22-.69-.24-.24-2.06,3.67-1.77,7.7-2.25,11.75l-.75-.64-.11.64-.32-.21-.74-6.63c-.5,2.66.33,5.42.21,8.12-.3.06-.28-.41-.32-.63-.1-.52-.1-1.03-.15-1.56l-1.02-3.15.21,2.67c.64-.21.63.29,0,.43,1.11.41.4,1.3.41,2.35.01.91.42,1.8.07,2.62-.13.3-.05.32-.48.26l-.22-3.63c-1.07,1.11-.01,3.36-.21,4.81-.04.29-.16.67-.43.32v-2.99s-.43.22-.43.22l-.43-4.7c-.32,1.71-.36,3.81.19,5.46l.23,3.94-1.04-3.98c-.18-.62.07-1.18.13-1.75.02-.24.25-.73-.15-.68-.95,2.01-.06,3.56.19,5.47.08.59.3,2.23-.19,2.43l-.85-4.49.21,6.84c-2.17-1.98-1.06-4.72-.85-7.26l-1.17,3.2.12-1.58-.44-.22,2.13-3.86c.04-.63-.24-.16-.39.04-.4.53-.64,1.16-1.21,1.57-.16.03-.14-.21-.1-.32.31-.96,1.7-2.23,1.92-3.32-.8.6-1.62,1.36-1.93,2.35h-.42s.65-1.38.65-1.38l-.42-.39c.59-1.7,1.86-2.96,3.18-4.11-.28-.58-2.58,2.03-2.35,1.28l3.42-3.42c-.3-.25-.94.36-1.17.54-.61.5-1.12,1.18-1.72,1.7-.16.03-.15-.22-.1-.32.09-.2,2.02-2.07,2.35-2.36,1.03-.88,2.37-1.4,3.21-2.56-.35-.17-1.05.38-1.35.58-1.1.71-1.95,1.6-2.92,2.42-.17.14-.43.56-.64.21,1.77-1.84,3.72-3.5,5.98-4.7-.97-.05-2.47,1.02-3.28,1.64-.51.39-1.65,1.75-1.96,1.88-.25.11-.42-.06-.32-.32.07-.17,2.29-2.35,2.58-2.55,1.01-.72,2.47-1.02,3.4-1.94l-3.58,1.1-.59.71c-.33-.23-.04-.52.13-.73.6-.75,1.43-1.65,2.4-2.09,1.26-.58,3.05-.39,3.99-1.45l-4.49,1.06c.37-.77-.28-.41-.54-.62-.27-.22-.43-.96-.85-.87-.8.18.19,1.88.1,2.35l-.75-1.28-.75,1.28.4-2.01-.61-.34c.56.9-.28,1.23-.61,1.85-.25.47-.26,1.47-.89,1.36-.24-.29,1.65-3.75.43-4.27l-.75,3.42.11-2.35c-.47-.08-.43.03-.53.41-.21.77-.14,1.77-.32,2.57-.96-.38.29-1.72-.64-2.14l-.43,3.2c-.36.06-.23-.52-.22-.75.04-.61.29-1.19.22-1.81l-1.04,1.65.18,1.12h-.64s.21-1.92.21-1.92c-.77-.13-.46.71-.54,1.07l-2.24-1.07,1.49,1.39.86,1.17-3.63-2.56c1.76,1.71,3.98,2.9,4.7,5.45-.03.66-.23.21-.38-.05-.66-1.1-1.27-2.59-2.62-3.05,1.03,1.23,2.65,3.4,2.79,5.01.02.22.13.82-.22.75-.2-2.1-1.91-3.99-3.21-5.55l3.42,6.09-.43.32-1.5-2.35c.3,2.25,1.81,6.76.86,8.84-.12.26-.5.07-.6.17-.12.11-.12.98-.26,1.25l-.43-.32.43-5.44c-.31-.05-.3.38-.36.6-.28,1-.46,2.21-.49,3.25-.79-.42-.23-1.46-.21-2.03.02-.99-.06-1.98.02-2.97.09-1.15.71-2.44.4-3.76l-.43.31c-.19,2.14-.39,4.29-.64,6.42-.04.32-.17.65-.43.32-.06-1.77-.01-3.56.64-5.23l-.65.21.43-2.67.42.22-.43-1.71-1.39,6.84c-.47-1.01.36-2.33.26-3.29-.05-.45-.64-1.11-.83-1.7-.25-.8-.31-1.86-.39-2.71l-.53,2.78-.75,1.28c.58-2.3.44-4.69.64-7.05l-.51,3c-.76,1.27-.51,2.83-.56,4.27l-.43-1.71-1.06,1.49c.22-1.03.77-1.93.97-2.98.04-.22.28-.7-.12-.65l-1.07,3.63c-.36.01-.47.11-.42-.31.09-.7.61-1.51.63-2.25l-.53.43-1.18,4.27c-.43.04-.08-.52-.26-.81-.08-.12-.51-.14-.55-.35-.18-1.02,1.4-2.94,1.87-3.86-.9-.17-1.14,1.41-1.82,1.82-.15-.69,1.05-2.47,1.51-2.98.42-.46,1.47-.77,1.69-1.09.2-.3.1-.9.54-1.17-.78-.17-.87.88-1.71.96.07-.19.56-1.75.57-1.85.03-.67-.33-1.05-.79-.4-.41.57-.13,1.57-.2,2.26.14,0,.29.01.43,0M287.51,47.87l-.42.1c.91.79.7,2.92,2.14,2.88l-1.71-2.99ZM322.34,48.29c-.09-.38-.38-.42-.72-.42-1.46.03-3.67.13-4.84.96-.53.38-.16.86-1.07.62l-.43.98,1.18-.63c.31-.62,1.31-1.37,1.97-1.47.49-.08.85.2,1.23.18.85-.05,1.75-.39,2.67-.22M283.23,49.36c-.44-.11-.63-.98-1.06-.32l.64,1.28-.43.11-1.07-1.49c.23.76.78,2.03,1.6,2.13.07,0,.58-1.11.53-1.28l.64.64c.14-.72-.25-1.08-.75-1.49l-.11.43ZM319.14,48.72c-.71-.05-1.39.54-1.9,1-.1.09-.88.76-.67.92,1.19.17,1.71-.83,2.78-1.07h-1.07s.85-.85.85-.85ZM281.95,51.5c-.09-1.4-.65-2-1.92-2.35l.21,1.28h-.86s.66,1.48.66,1.48c.68-.18,1.06-.13,1.37-.83l.53.43ZM350.44,49.79c.92.24,2.7-.17,3.74,0,.02-.31-.8-.39-1-.41-.93-.07-2.09.1-3.06-.01,0,.13.25.41.32.43M359.63,50c-1.07-.12-2.51,0-3.63,0-.17,0-.61-.37-.96-.21.04.29.29.37.54.42,1.37.23,3.37.08,4.8.22.08-.23-.66-.42-.75-.43M272.98,50.01c-.96-.15-2.56,3.4-2.35,3.63,1.98-.37.7-2.53,2.35-3.63M250.97,54.28c.18-1.29.7-2.69,1.5-3.74l-.1-.32c-1.45,1.41-2.36,3.99-3.05,5.93-.37,1.05-.7,2.16-.9,3.26l1.93-4.15.2-1.4.42.42ZM251.4,54.28c.92-.33.84-1.38,1.24-2.07.42-.72,1.06-1.24,1.32-1.99-1.3.99-2.51,2.33-2.56,4.06M302.68,50.86l-6.62-.64c-.05.31.38.3.6.36.88.25,1.81.17,2.61.38.55.15,1.39.93,1.8.95.42.02,1.08-.35,1.62-.19v-.85ZM313.8,51.93l.42-1.5-1.39,1.49-.43-1.07c-.17.4-.26.51-.75.43l1.18,2.36c.99-.26,2.31-1.01,3.24-1.24,1.01-.25,2.29-.04,3.27-.58-2.21-.15-4.32.53-6.3,1.39-.26-.15.36-.55.46-.61,1.62-.93,3.81-1.07,5.63-1.32l-3.86-.53-.56.17-.92,1ZM273.62,50.86s-.67-.27-.74,0l-.75,1.92c.65.18,1.66-1.74,1.5-1.92M330.89,50.86l-.43.64-.93-.23c-.45.57-.56,1.24-1.42.87v.64s.42-.22.42-.22l-.21,1.28,1.28-.85-.42,1.71c.41-.04.28-.75.64-.97.3-.19,1.32,0,1.52.26l-.02,1.14h.73c.55-.99.98-2.03.98-3.2-.57.12-.28,1.68-.75,1.7-.63.04.25-1.52.1-1.71l-.85.43v-1.28c0,.4-.43.81-.42,1.18,0,.39.52.53.42.96l-.4-.19-.23.4c-.38-.9-.17-1.65,0-2.56M305.61,53.14l.82-1.64-3.95,1.92,2.99-1.07-1.42,1.25-.93.46c.1,1.05,2.25-.65,2.5-.93M269.77,51.71c-.54-.58-1.64,3-1.49,3.42.29,0,.48-.59.57-.82.33-.84.54-1.77.92-2.6M296.1,54.88c.38-.87.43-2.56-.47-3.17.36,1.4.39,2.63.21,4.06l.64-.75-.38-.14ZM297.92,52.2c-.13-.12-.67-.45-.79-.17.82.76,1.3,1.58.86,2.67,1.12-.98.56.05,1.49.21-.05-.58-.76-.79-.95-1.08-.25-.39-.22-1.25-.61-1.63M301.61,53.21c-1.21-.38-1.75-1.63-3.2-1.28l1.3.94c.55-.1,2.01,1.4,1.9.35M249.26,52.57c-1.1-.15-1.23,1.73-1.5,2.41-.05.11-.82.26-.42.58.27.22.49.05.66-.3.32-.67.46-1.59.76-2.21.17-.35.54-.13.49-.47M333.03,55.13c.28-.47.66-.89.81-1.44.05-.21.24-1.14-.16-1.13l-.21.64-.33-.22c.02,2.44-1.25,3.92-3.73,3.64-.06.29.44.31.64.33,1.36.16,2.26-.38,3.1-1.4l-.11.85.64-.64c.18.83-.52.95-.75,1.48-.21.48-.13,1.09-.23,1.3-.34.72-1.21.35-1.15,1.06l1.46-.46c.06-.04.04-1.23.07-1.33.09-.28.46-.24.6-.52.38-.76.71-2.8.65-3.68-.37.09-.26.67-.54,1.06-.18.25-.38.5-.74.43M359.52,59.62c-.28-1.99-.79-4.43-2.13-5.98l.75,2.77,1.38,3.21ZM341.29,55.63c-.11-.12-1.76-1.22-1.85-1.13.35.23,1,1.6,1.11,1.68.07.05.75-.2,1.02.24.04-.29-.09-.58-.28-.79M364.65,55.35l-2.56-.64,1.21,1.03,1.56.46-.64-.53.43-.32ZM273.83,59.83c-.28-.85-.62-1.68-.77-2.56-.09-.54.36-1.45-.3-1.71.04,1.46-.05,2.42.58,3.81.14.31-.12.58.49.46M299.05,55.99c.05.45-.21,2.76.32,2.77l.22-.85-.54-1.92ZM364.22,60.69c0-1.1.12-2.69-.85-3.42l.85,3.42ZM271.7,63.25c.16-.81-.52-1.34-.63-2.04-.12-.76.02-1.74-.01-2.55-.01-.26.16-.79-.21-.74-.16.99-.26,1.84-.19,2.86.02.22.46,3.16,1.04,2.48M300.12,61.97c-.11-.92.26-1.75.22-2.67,0-.23-.08-.97-.43-.97.07,1.09-.77,2.81.21,3.63M336.44,62.18c.33-1.36.58-2.44.21-3.84l-.37,1.66.15,2.18ZM347.77,60.9c.95-.64-.67-2.19-1.28-2.56l1.28,2.56ZM313.79,66.24v-2.88l-.64-4.81c-.34,1.94-.24,4.09.06,6.03.07.43.16,1.48.58,1.66M310.59,67.1l.2-.93-.41-2.91-.23,2.03.44,1.81ZM287.08,63.9l-.86.21.21.62-.63.35,1.28-.11c-.14.71-.18,1.62-1.07,1.71l.4.23-.19.4c.88-.03.62-1.19,1.71-.85.24-.23-.57-2.07-1.01-2.19l.16-.38ZM287.51,69.45c.92-.69,1.59-2.44-.22-2.03l.43.53h-1.28s1.28.22,1.28.22l-.21,1.28ZM289.01,68.38l-1.07,1.6.38.14-.17.39,1.5-.43c-.02-.59-.23-.99-.86-.85l.21-.85ZM325.55,68.6c-.75-.28-1.13.61-1.61.65-.5.05-.83-.57-1.38-.44l.43.64-1.07.43,1.07-.21-.32.86,2.24-.64-.43-.64h.7s.36-.64.36-.64ZM352.69,72.87c.69-.74,1.24-1.99,1.28-2.99-.37.02-.24.6-.45.94-.46.71-1.13.86-.83,2.06M289.65,70.52c-.12-.12-1.11.57-1.22.69-.05.05.09.31.03.38-.25.3-.85.16-.95.64l1.71-.42-.85,1.28,1.28-.64.19.72-.83.77.85.11-.85.75c.83,0,1.31-.79,2.03,0l.1.64-.64-.43c.23.95-.42.38-.64.85l.64.64,1.07-.21-1.07,1.28c.8-.36,1.12.32,1.46.97l-.82.53h.85s-.64,1.06-.64,1.06l1.49-.64-.11.85c.93-.81.16-.85,0-1.38-.23-.75.51-2.27-1.17-1.6-.23-.6.65-.94.61-1.35-.01-.12-.86-1.72-1.04-2.14-.06-.13-.37-.15-.38-.18-.05-.12.27-.82-.25-1.55-.13-.18-.47.15-.64-.23l.21-.75h-.64s.21-.64.21-.64ZM324.26,70.95c-.92-.08-1.63.72-2.46,0l-.1.42.77.2-.13.87h.65s.1.42.1.42l.54-.34-.21-.73.53.02.33-.87ZM322.84,73.68c-.14-.25.29-.78-.93-.6l.64.85-2.14,1.07,1.71.12c.52-.27.18-1.23,1.07-.98.23-.52-.3-.38-.35-.47M322.13,75.65c-.46-.1-.92-.29-1.4-.24-.48.04-.14.76-.95.24l.31.58.75-.15-1.07,1.06c.91.12,1.06-.76,2.14-.43.31-.54-.82-.36-.43-.85.11-.13.8.63.64-.21M321.27,78.21c-.4-.78-1.4-.65-2.14-.63l.71.21.14.64c-.07.1-1.96-1.04-2.35-.32,1.2-.04,1.3.39,2.13,1.07l-1.28.11c.09.75,1.87.11,2.15-.11.33-.26-.26-.97.63-.96M293.71,79.92c-.68-.17-.25.39-.56.66l-1.79.62,1.47.03c.14.53.2,1.45.88,1.47l-.64.21.32.42.75-.42-.59.84-1.54.65,2.13.02v.92s-.42.34-.42.34c1.16.36,2.49-.1,1.92-1.49l-1.07.21.64-.53c-.41-.66-.55-1.79-1.49-2.03l.64-.53c-.27-.69-1.07-.56-.64-1.39M320.2,80.35l-1.49.22.43.32c-.69.83-1.39-.11-2.13,0,1.12,1,2.83,1.24,3.2-.53M319.14,82.27l-1.07-.22v.62s-1.28.03-1.28.03l1.28.42-2.56-.21c.28,1.03,1.95,0,1.92,1.07-.37,0-.76.05-1.13-.04-.39-.1-1.25-1.05-1.22-.28l1.71.75-.64.64,1.89.18.68-.71-.43-.74.64-.33-.64-.64.85-.53ZM318.07,85.48h-2.56c.29.48,1.28.57.21.96l.64.11-.85.75.64.21c-.37.57-1.17-.2-1.61-.32-.44.58.41.44.8.66.55.31.89.85,1.88.62l-.85-.64,1.06-.32-.64-.53c.93-.03,1.06-.75,1.28-1.5M296.27,85.69l-1.71.43c.45,1.04.86,1.76,1.92.74l-.64-.32.43-.85ZM297.34,88.26c-1.18-.2-.69.31-.91.57-.39.46-.81.3-.8,1.35.11.09,1.57-.59,1.28.11l-1.71,1.18,2.35-1.07c.05.79-.87.75-1.28,1.18l.85.21-1.49.75,1.27.23.02.62,1.28-.21-.85.75.43.42-1.28.96,1.39-.43-.32.64c.8-.19,1.28-.51,2.14-.21l-.21-.76-.86.12.63-.84-.43-.13.22-.95h-1.28s.83-.55.83-.55l-.2-.95-.85.43c.85-.85.85-1.43-.21-2.03l.42-.53-.55-.2.12-.65ZM315.04,88.94c-.21-.12-1.46-.11-1.46.06l1.05.12v1.05s.66,0,.66,0c.42.35-2.31.55-2.56.21.33.64,1.3.63,1.92.64v.21l-1.71.21h3.2s-.64-.74-.64-.74l1.06-.64-.42-.53.85-.64h-1.71s.32.64.32.64c-.43.09-.41-.5-.57-.6M315.51,92.32l-2.35-.21,1.06.75c-.36.49-.97.3-1.49.32l.1.42.97-.21-.64.43.43.32-.43.32h1.91c.2-.32-.02-.96.03-1.14.04-.13.7-.26.41-.99M313.1,94.71c-.22-.12-.88.27-1.23.17l1.49.43-1.49.96.64.11-.41.22.2.63-2.14.43h2.14s-1.07.64-1.07.64l2.56-.21c.18-.83-.92-.18-1.28-.53l1.71-.65-.42-.32v-.42c.76.15.85-.42.85-1.07-.43-.06-.95.09-1.35,0-.16-.04-.15-.35-.19-.38M300.12,95.73c-1.19.18-1.92.94-3.2.43l1.92.86-.64.42c.63-.05.8.26,1.06.75l-.64.32.64.21c-.2.6-.96.41-1.5.43l1.07.21-.64.64,1.6-.22.11.65,1.25-.55c-.26-.56-.3-1.42-.43-1.87-.05-.17-.33-.11-.42-.45-.15-.59-.22-1.22-.2-1.83M311.44,100.65c.63-.11,1.27-.27,1.92-.21l-.19-.98c.43-.17.47-.21.41-.73h-2.14c-.03.51,1.02-.13.85.53-.1.38-1.14-.22-1.28-.1l.43.85-1.5-.21,1.49.44c.07.13-.03.33,0,.41-1.07.19-1.88.34-2.99.32l3.42.32-.37.59-2.4.48,1.68.67.16.58,1.22.04c.51-.27.12-.92.15-1.16.02-.15.35-.13.4-.3.07-.23.29-1.28.23-1.33h-1.5s.03-.16,0-.22M301.83,101.07c-.72-.79-2.7-.05-3.85-.21-.05.37.49.2.74.21.53.02,1.07-.02,1.61,0l-1.5.64,1.3.1-.02,1.18,1.07-.21-1.06.92-.65.15c-.18.8,1.04.3,1.5.43l-.86.53.86.32-1.71.43,2.14-.21c.15.67-.34.3-.58.47-.13.1-.36.7-.27.81.78-.57,1.82-.64,2.77-.64-.95-.98-.5-2.85-1.69-3.73.62-.88-.38-.62-.24-1.08l.43-.11ZM311.23,104.5l.85-.43c-1.14-.08-2.29-.45-3.4-.78-.28-.08-.26-.53-.66.03.62.46,1.45.41,2.14.64.34.11.59.38,1.06.54l-1.07.75.43.32-1.71.22,1.28.43-1.07.32.61.35-.18.39h1.07c-.44.86-1.31.85-2.14.64l.22.42c-.6.42-2.06-1.02-1.92,0l1.93.32.78,1.18,1.55-.24.23-1.05h-.49c-.62-.57,1-.24.69-1.36-.19-.66-1.3-.05-1.48-.56l1.71-.22c.28-.54-.49-.37-.43-.53l.64-1.39c-.19-.04-.49.05-.64,0M302.68,106.42c-.97-.17-2.6.71-1.58,1.69l1.15-.2-.43.42.85.21-2.35,1.07,2.13-.42-.86.75.86.53-1.28-.11c.32.37,1.46,0,1.28.75l-1.28.64h1.71s-1.28.85-1.28.85c.13.14,1.84-.53,1.49.11l-2.13.96,2.56-.42c.4.6-1.14.39-.64.85.15.14,1.3-.07,1.07.64l-1.28.43,1.07.21-1.28.43c.66-.42,1.88.17,2.15.12.73-.14.98-1.34.2-1.51l.43-.64c-.38-.59-.92-.01-1.5-.11.27-.48.72-.77,1.28-.64-.37-.63-.28-1.34-.44-1.98-.04-.16-.35-.14-.4-.31-.17-.62-.11-1.43-.46-2.07l.43-.13v-.42s-.53.01-.53.01l-.1-1.51-1.07.21.22-.42ZM310.8,110.27l-2.56.22,1.07.21-1.49.43.64.64-1.92-.21v.64c1.4-.39,2.67-.14,4.06,0l-.64-.64.64-.11-.2-.65c.34-.17.51,0,.41-.52M310.38,112.62l-2.99.42c1.06.1,2.55.99,2.99-.42M309.95,114.97c-.53-.01-1.05-.02-1.58.03-.27.02-1.31.12-1.41.4h2.14s-.64.43-.64.43c.11.52,1.13-.04,1.47-.03l.03-.83ZM305.89,117.11c-1.37-.28-2.35.54-3.63.64.32.59,1.41-.16,1.92,0,.2.75-1.57.5-1.71.64v.64s.64,0,.64,0l-.42-.42,1.07.21-.22-.42h1.28s-.43.85-.43.85l.85-.11c-.33.15-.36.83-.47.92-.2.15-.66-.14-.59.25,1,.18.75-.73,1.8-.22l.23-.21c0-.8.34-1.02-.53-1.39l.42-.53-1.28.21,1.07-1.07ZM309.73,119.03c-.7.05-1.24.43-1.92,0l1.28.43-1.07.64,1.51.11.2-1.18ZM306.58,121.75c-.12-.24.33-1.04.16-1.44l-1.39.85.11-.63h-1.07s.43.64.43.64h-1.07s.21-.64.21-.64l-1.28.43v.85s2.14-.42,2.14-.42c.15.94-2.07.09-1.92,1.07.95.1,1.63-.02,2.35-.64.07.52-.44.79-.85.86l.02.41c.55.31.71.62,1.48.44l-.42-.42c.61-.19,1.11-.36,1.71,0,.04-.05-.18-.95-.23-1.11-.06-.18-.34-.18-.36-.22M309.52,120.74l-.81.75.39,1.28-.43.54h.85s0-2.56,0-2.56ZM307.17,125.44l.21-2.14-3.42.64c.07.41.8.14,1.23.28.06.02.59.77.69.9-.87-.03-1.47-.05-2.13.64l2.14.11-1.07.75,1.5.11-1.07.43c-.03.96,2.22,1.42,2.68.86.21-.26-.65-2.26-.33-2.79l-.42.22ZM307.78,128.82l-2.11-.6-.21.85.85.21-1.71.97-1.71.53h1.71s-.22.43-.22.43l1.92-.21-.43.85c3.26.31,2.2-1.21,2.13-3.42l-.24.39ZM308.45,132.06l-1.73.31c-.13,1.01-.58,2.04-1.69,2.26v.42c.06.07,1.13-.92,1.73-.13.41.54.58,1.87.19,2.48l.83-.03.02-.61,1.28.21c-.12-.88-1.2-.88-.64-1.92-1.01.31-1.02-.63-1.92-.43l.33-.86,1.38.43-.64.64,1.28-.21c.21-1.13-1.1-.78-1.27-1.61.22-1.03.5.51,1.05.33l-.21-1.28ZM310.38,139.97c-1.13-.34-2.27-.55-3.42-.21l1.49.21-.43.64,1.17-.43.22.45.96-.65Z"/>
      <path d="M284.8,141.61c.27.17.69-.12.57.38l-.86.33.12.85-.54.21.11-.43h-.75l-.14.87-.93.2.21-.64-.83-.03c.18-.89-.71-.37-.67-1.04l-1.06.64.4-.31-.19-.54,1.07-.22v.62s.84.04.84.04v.63s.53-.23.53-.23l.23.44.54-1.28-1.71.21c-.36-.28,2.18-.97,2.24.21.46-.33.59-.72.54-1.28.34-.09.13.27.28.36"/>
      <path d="M350.76,55.77l-.58-.59-1.98-3.68c.29-.29,1.96,1.8,2.11,2.07.28.51.19,1.6.45,2.2"/>
      <path d="M337.09,16.03l-1.5-6.84c.29.12.48.93.58,1.24.5,1.64.77,3.37,1.17,5.04.08.32.28.39-.25.56"/>
      <path d="M328.97,141.89c-.19.55-.43.91-1.07.85l.42.64h-.85s.21-.85.21-.85l-.85.21.13-.66c.53-.41,1,.17,1.26.16.23-.01.36-.49.75-.35"/>
      <path d="M304.82,67.74l-.59-2.08c-.52-.81-.94-1.62-.9-2.62,1,1.31,1.65,3.03,1.49,4.7"/>
    </g>
  </g>
</svg>